<svg width="188" height="378" viewBox="0 0 188 378" fill="none" xmlns="http://www.w3.org/2000/svg">
<rect x="6.18174" y="4.87838" width="175.301" height="368.264" rx="22.5198" stroke="#AFAFAF" stroke-width="9.71441"/>
<path d="M186.34 86.1262H187.002C187.368 86.1262 187.665 86.4227 187.665 86.7885V127.854C187.665 128.22 187.368 128.516 187.002 128.516H186.34V86.1262Z" fill="#AFAFAF"/>
<path d="M1.32471 77.7365H0.662361C0.296558 77.7365 1.49012e-05 78.033 1.49012e-05 78.3988V102.685C1.49012e-05 103.051 0.296557 103.347 0.662361 103.347H1.32471V77.7365Z" fill="#AFAFAF"/>
<path d="M1.32471 111.737H0.662361C0.296558 111.737 1.49012e-05 112.033 1.49012e-05 112.399V136.685C1.49012e-05 137.051 0.296557 137.348 0.662361 137.348H1.32471V111.737Z" fill="#AFAFAF"/>
<path d="M1.32483 50.801H0.662483C0.29668 50.801 0.000136971 51.0976 0.000136971 51.4634V62.9441C0.000136971 63.3099 0.296679 63.6064 0.662483 63.6064H1.32483V50.801Z" fill="#AFAFAF"/>
<g clip-path="url(#clip0_605_5348)">
<rect x="11.0389" y="9.73558" width="165.587" height="358.55" rx="17.6626" fill="#1E1E20"/>
<g clip-path="url(#clip1_605_5348)">
<rect width="165.587" height="358.55" transform="translate(11.0389 9.73558)" fill="#1E1E20"/>
<g clip-path="url(#clip2_605_5348)">
<rect width="165.587" height="358.55" transform="translate(11.0389 9.73558)" fill="white"/>
<g clip-path="url(#clip3_605_5348)">
<rect width="165.587" height="358.55" transform="translate(11.0389 9.73558)" fill="white"/>
<rect width="165.587" height="19.4288" transform="translate(11.0389 9.73558)" fill="white"/>
<rect opacity="0.35" x="159.772" y="17.6101" width="9.27285" height="4.56283" rx="0.956722" stroke="#292A2E" stroke-width="0.441564"/>
<path opacity="0.4" d="M169.708 19.0084V20.7747C170.063 20.6251 170.294 20.2771 170.294 19.8916C170.294 19.506 170.063 19.158 169.708 19.0084Z" fill="#292A2E"/>
<rect x="160.435" y="18.2725" width="7.94815" height="3.23814" rx="0.588752" fill="#292A2E"/>
<path fill-rule="evenodd" clip-rule="evenodd" d="M153.959 18.3969C154.941 18.397 155.886 18.7741 156.598 19.4504C156.651 19.5026 156.737 19.502 156.79 19.4489L157.302 18.9322C157.329 18.9053 157.344 18.8688 157.344 18.8309C157.344 18.793 157.328 18.7568 157.301 18.7302C155.432 16.9409 152.484 16.9409 150.616 18.7302C150.589 18.7567 150.573 18.793 150.573 18.8309C150.573 18.8688 150.588 18.9052 150.614 18.9322L151.127 19.4489C151.18 19.502 151.266 19.5027 151.319 19.4504C152.031 18.7741 152.976 18.3969 153.959 18.3969ZM153.959 20.0782C154.498 20.0782 155.019 20.2786 155.419 20.6406C155.473 20.692 155.558 20.6909 155.611 20.6381L156.123 20.1213C156.15 20.0942 156.165 20.0575 156.164 20.0192C156.164 19.981 156.148 19.9446 156.121 19.918C154.903 18.7857 153.016 18.7857 151.797 19.918C151.77 19.9446 151.754 19.9811 151.754 20.0193C151.753 20.0575 151.768 20.0943 151.796 20.1213L152.307 20.6381C152.36 20.6909 152.445 20.692 152.499 20.6406C152.899 20.2789 153.419 20.0784 153.959 20.0782ZM154.984 21.2094C154.985 21.2478 154.97 21.2847 154.942 21.3115L154.057 22.2044C154.031 22.2306 153.996 22.2454 153.959 22.2454C153.922 22.2454 153.886 22.2306 153.86 22.2044L152.975 21.3115C152.947 21.2847 152.932 21.2477 152.933 21.2094C152.934 21.1711 152.951 21.1348 152.979 21.1091C153.545 20.6312 154.373 20.6312 154.938 21.1091C154.967 21.1348 154.983 21.1711 154.984 21.2094Z" fill="#292A2E"/>
<path fill-rule="evenodd" clip-rule="evenodd" d="M147.924 17.5365H147.482C147.238 17.5365 147.041 17.7342 147.041 17.9781V21.805C147.041 22.0489 147.238 22.2466 147.482 22.2466H147.924C148.168 22.2466 148.365 22.0489 148.365 21.805V17.9781C148.365 17.7342 148.168 17.5365 147.924 17.5365ZM145.422 18.5669H145.863C146.107 18.5669 146.305 18.7646 146.305 19.0084V21.805C146.305 22.0489 146.107 22.2466 145.863 22.2466H145.422C145.178 22.2466 144.98 22.0489 144.98 21.805V19.0084C144.98 18.7646 145.178 18.5669 145.422 18.5669ZM143.803 19.5972H143.361C143.117 19.5972 142.919 19.7949 142.919 20.0387V21.805C142.919 22.0489 143.117 22.2466 143.361 22.2466H143.803C144.046 22.2466 144.244 22.0489 144.244 21.805V20.0387C144.244 19.7949 144.046 19.5972 143.803 19.5972ZM141.742 20.4803H141.3C141.056 20.4803 140.859 20.678 140.859 20.9219V21.805C140.859 22.0489 141.056 22.2466 141.3 22.2466H141.742C141.986 22.2466 142.183 22.0489 142.183 21.805V20.9219C142.183 20.678 141.986 20.4803 141.742 20.4803Z" fill="#292A2E"/>
<path d="M27.448 17.6927C26.4357 17.6927 25.7145 18.3848 25.7145 19.3323V19.3388C25.7145 20.225 26.3419 20.8783 27.2378 20.8783C27.8781 20.8783 28.2856 20.5516 28.457 20.1829H28.5217C28.5217 20.2185 28.5185 20.2541 28.5185 20.2896C28.4829 21.1823 28.1692 21.9067 27.4286 21.9067C27.0179 21.9067 26.73 21.6933 26.6071 21.3666L26.5974 21.3343H25.776L25.7824 21.3698C25.9312 22.0846 26.5716 22.5923 27.4286 22.5923C28.6026 22.5923 29.3109 21.6609 29.3109 20.0891V20.0827C29.3109 18.4009 28.4441 17.6927 27.448 17.6927ZM27.4448 20.2379C26.9144 20.2379 26.5295 19.8498 26.5295 19.3097V19.3032C26.5295 18.7826 26.9402 18.3718 27.4545 18.3718C27.9719 18.3718 28.3762 18.789 28.3762 19.3226V19.3291C28.3762 19.8563 27.9719 20.2379 27.4448 20.2379ZM30.7055 20.1376C31.003 20.1376 31.2197 19.9145 31.2197 19.6299C31.2197 19.3421 31.003 19.1189 30.7055 19.1189C30.4112 19.1189 30.1913 19.3421 30.1913 19.6299C30.1913 19.9145 30.4112 20.1376 30.7055 20.1376ZM30.7055 22.5406C31.003 22.5406 31.2197 22.3142 31.2197 22.0296C31.2197 21.7418 31.003 21.5186 30.7055 21.5186C30.4112 21.5186 30.1913 21.7418 30.1913 22.0296C30.1913 22.3142 30.4112 22.5406 30.7055 22.5406ZM34.267 22.4759H35.0658V21.5801H35.6933V20.8912H35.0658V17.8091H33.8854C33.2515 18.7728 32.5885 19.8466 31.9837 20.8977V21.5801H34.267V22.4759ZM32.7599 20.9106V20.8621C33.2127 20.0697 33.7528 19.2062 34.2314 18.4753H34.2799V20.9106H32.7599ZM37.5213 22.4759H38.3557V17.8091H37.5245L36.3053 18.6661V19.452L37.4663 18.6305H37.5213V22.4759Z" fill="#292A2E"/>
<rect x="64.4541" y="362.532" width="59.1696" height="2.20782" rx="1.10391" fill="#292A2E"/>
<path d="M61.4205 56.9563C63.1384 56.9563 64.4062 55.8955 64.5977 54.3639L64.608 54.3121H63.2989L63.2833 54.3639C63.0401 55.2849 62.3726 55.7972 61.4205 55.7972C60.1217 55.7972 59.2834 54.752 59.2834 53.0909V53.0857C59.2834 51.4299 60.1165 50.3898 61.4205 50.3898C62.3933 50.3898 63.0505 50.9228 63.2678 51.7766L63.2937 51.8749H64.6028L64.5977 51.8231C64.401 50.3018 63.1384 49.2307 61.4205 49.2307C59.2782 49.2307 57.9173 50.7003 57.9173 53.0857V53.0909C57.9173 55.4764 59.273 56.9563 61.4205 56.9563ZM65.4929 56.827H66.7813V53.6446C66.7813 52.8322 67.2212 52.3717 67.9508 52.3717C68.1681 52.3717 68.3648 52.4027 68.4734 52.4441V51.2798C68.3751 51.2539 68.225 51.2281 68.0646 51.2281C67.4333 51.2281 66.978 51.6265 66.8072 52.2889H66.7813V51.3419H65.4929V56.827ZM71.3401 56.9356C72.7735 56.9356 73.5807 56.087 73.7515 55.2435L73.767 55.1866H72.5613L72.551 55.2228C72.4268 55.5902 72.0077 55.9318 71.366 55.9318C70.5277 55.9318 69.9999 55.3626 69.9792 54.4001H73.8188V53.9861C73.8188 52.3303 72.8459 51.2281 71.2781 51.2281C69.7102 51.2281 68.7011 52.3665 68.7011 54.0948V54.1C68.7011 55.8438 69.6946 56.9356 71.3401 56.9356ZM71.2936 52.2371C71.9766 52.2371 72.4734 52.6718 72.5665 53.5411H69.9948C70.0982 52.6977 70.6105 52.2371 71.2936 52.2371ZM76.2715 56.9201C76.996 56.9201 77.6066 56.5579 77.9222 55.9835H77.9533V56.827H79.2417V53.0547C79.2417 51.9525 78.3569 51.2281 76.9856 51.2281C75.5936 51.2281 74.7502 51.9577 74.6726 52.9305L74.6674 52.9926H75.8627L75.8731 52.946C75.9559 52.5424 76.3284 52.2578 76.939 52.2578C77.591 52.2578 77.9533 52.5942 77.9533 53.1478V53.5256L76.5199 53.6136C75.19 53.6963 74.4345 54.2811 74.4345 55.2539V55.2642C74.4345 56.2422 75.1745 56.9201 76.2715 56.9201ZM75.7178 55.2125V55.2073C75.7178 54.7727 76.0645 54.4984 76.701 54.457L77.9533 54.3794V54.7934C77.9533 55.4454 77.3944 55.9369 76.6544 55.9369C76.0904 55.9369 75.7178 55.6627 75.7178 55.2125ZM82.3206 56.9356C82.5793 56.9356 82.807 56.9098 82.9571 56.8891V55.9214C82.8691 55.9266 82.7708 55.9421 82.6466 55.9421C82.1757 55.9421 81.9377 55.7714 81.9377 55.2332V52.3354H82.9571V51.3419H81.9377V49.95H80.6285V51.3419H79.8523V52.3354H80.6285V55.3419C80.6285 56.4699 81.1718 56.9356 82.3206 56.9356ZM86.1498 56.9356C87.5831 56.9356 88.3904 56.087 88.5611 55.2435L88.5767 55.1866H87.371L87.3606 55.2228C87.2365 55.5902 86.8173 55.9318 86.1757 55.9318C85.3374 55.9318 84.8096 55.3626 84.7889 54.4001H88.6284V53.9861C88.6284 52.3303 87.6556 51.2281 86.0877 51.2281C84.5198 51.2281 83.5108 52.3665 83.5108 54.0948V54.1C83.5108 55.8438 84.5043 56.9356 86.1498 56.9356ZM86.1032 52.2371C86.7863 52.2371 87.283 52.6718 87.3762 53.5411H84.8044C84.9079 52.6977 85.4202 52.2371 86.1032 52.2371ZM93.6219 56.9356C93.8806 56.9356 94.1083 56.9098 94.2584 56.8891V55.9214C94.1704 55.9266 94.0721 55.9421 93.9479 55.9421C93.477 55.9421 93.239 55.7714 93.239 55.2332V52.3354H94.2584V51.3419H93.239V49.95H91.9298V51.3419H91.1536V52.3354H91.9298V55.3419C91.9298 56.4699 92.4731 56.9356 93.6219 56.9356ZM97.4666 56.9356C99.0759 56.9356 100.121 55.8645 100.121 54.0844V54.0741C100.121 52.3044 99.0604 51.2281 97.4614 51.2281C95.8676 51.2281 94.812 52.3147 94.812 54.0741V54.0844C94.812 55.8593 95.8521 56.9356 97.4666 56.9356ZM97.4718 55.8955C96.649 55.8955 96.1264 55.2384 96.1264 54.0844V54.0741C96.1264 52.9357 96.6594 52.2733 97.4614 52.2733C98.279 52.2733 98.8068 52.9305 98.8068 54.0741V54.0844C98.8068 55.2332 98.2842 55.8955 97.4718 55.8955ZM105.109 56.9356C105.901 56.9356 106.507 56.5424 106.817 55.8955H106.848V56.827H108.137V49.36H106.848V52.2837H106.817C106.507 51.6265 105.88 51.2281 105.104 51.2281C103.728 51.2281 102.843 52.3096 102.843 54.0793V54.0844C102.843 55.849 103.723 56.9356 105.109 56.9356ZM105.498 55.849C104.67 55.849 104.157 55.1763 104.157 54.0844V54.0793C104.157 52.9874 104.675 52.3147 105.498 52.3147C106.289 52.3147 106.848 53.0081 106.848 54.0793V54.0844C106.848 55.1608 106.294 55.849 105.498 55.849ZM111.645 56.9356C113.254 56.9356 114.299 55.8645 114.299 54.0844V54.0741C114.299 52.3044 113.239 51.2281 111.64 51.2281C110.046 51.2281 108.99 52.3147 108.99 54.0741V54.0844C108.99 55.8593 110.03 56.9356 111.645 56.9356ZM111.65 55.8955C110.827 55.8955 110.305 55.2384 110.305 54.0844V54.0741C110.305 52.9357 110.838 52.2733 111.64 52.2733C112.457 52.2733 112.985 52.9305 112.985 54.0741V54.0844C112.985 55.2332 112.463 55.8955 111.65 55.8955ZM117.285 56.827H118.574V49.36H117.285V56.827ZM120.354 50.5554C120.757 50.5554 121.068 50.2346 121.068 49.8516C121.068 49.4584 120.757 49.1427 120.354 49.1427C119.95 49.1427 119.634 49.4584 119.634 49.8516C119.634 50.2346 119.95 50.5554 120.354 50.5554ZM119.707 56.827H120.995V51.3419H119.707V56.827ZM124.235 56.9356C125.58 56.9356 126.537 56.2422 126.537 55.2073V55.2021C126.537 54.4053 126.098 53.9602 124.964 53.7067L124.048 53.5049C123.479 53.3755 123.267 53.1685 123.267 52.8529V52.8477C123.267 52.4441 123.624 52.1802 124.193 52.1802C124.794 52.1802 125.145 52.501 125.202 52.9409L125.208 52.9823H126.408L126.403 52.9253C126.356 51.9784 125.559 51.2281 124.193 51.2281C122.869 51.2281 121.994 51.9059 121.994 52.9098V52.915C121.994 53.7274 122.522 54.2397 123.572 54.4725L124.483 54.6743C125.052 54.8037 125.244 54.99 125.244 55.3212V55.3263C125.244 55.73 124.866 55.9835 124.24 55.9835C123.588 55.9835 123.231 55.7041 123.133 55.2332L123.122 55.1866H121.854L121.86 55.2332C121.973 56.2526 122.796 56.9356 124.235 56.9356ZM129.399 56.9356C129.658 56.9356 129.885 56.9098 130.035 56.8891V55.9214C129.947 55.9266 129.849 55.9421 129.725 55.9421C129.254 55.9421 129.016 55.7714 129.016 55.2332V52.3354H130.035V51.3419H129.016V49.95H127.707V51.3419H126.931V52.3354H127.707V55.3419C127.707 56.4699 128.25 56.9356 129.399 56.9356Z" fill="#1B1C1F"/>
<path d="M51.6731 70.4319C52.636 70.4319 53.282 69.952 53.4812 69.0917H52.9318C52.7749 69.623 52.3161 69.9309 51.6761 69.9309C50.8159 69.9309 50.2695 69.2487 50.2695 68.1801C50.2695 67.1206 50.8219 66.4324 51.6731 66.4324C52.2949 66.4324 52.793 66.8067 52.9318 67.3772H53.4812C53.3423 66.5079 52.6209 65.9313 51.6731 65.9313C50.4808 65.9313 49.7111 66.8127 49.7111 68.1801C49.7111 69.5596 50.4717 70.4319 51.6731 70.4319ZM54.0698 70.3595H54.595V68.5303C54.595 67.9869 54.918 67.6308 55.4402 67.6308C55.9322 67.6308 56.1828 67.9296 56.1828 68.4276V70.3595H56.708V68.331C56.708 67.6308 56.2914 67.1659 55.6032 67.1659C55.1263 67.1659 54.7822 67.3712 54.6071 67.7213H54.595V66.0038H54.0698V70.3595ZM58.676 70.4138C59.5424 70.4138 60.1279 69.789 60.1279 68.7899C60.1279 67.7877 59.5424 67.1659 58.676 67.1659C57.8067 67.1659 57.2211 67.7877 57.2211 68.7899C57.2211 69.789 57.8067 70.4138 58.676 70.4138ZM58.676 69.952C58.1206 69.952 57.7554 69.5294 57.7554 68.7899C57.7554 68.0503 58.1206 67.6277 58.676 67.6277C59.2314 67.6277 59.5937 68.0503 59.5937 68.7899C59.5937 69.5294 59.2314 69.952 58.676 69.952ZM61.9602 70.4138C62.8265 70.4138 63.4121 69.789 63.4121 68.7899C63.4121 67.7877 62.8265 67.1659 61.9602 67.1659C61.0908 67.1659 60.5053 67.7877 60.5053 68.7899C60.5053 69.789 61.0908 70.4138 61.9602 70.4138ZM61.9602 69.952C61.4048 69.952 61.0395 69.5294 61.0395 68.7899C61.0395 68.0503 61.4048 67.6277 61.9602 67.6277C62.5156 67.6277 62.8778 68.0503 62.8778 68.7899C62.8778 69.5294 62.5156 69.952 61.9602 69.952ZM63.889 68.0865C63.889 68.5152 64.1607 68.7989 64.7131 68.9408L65.2654 69.0827C65.6186 69.1762 65.7484 69.297 65.7484 69.5203C65.7484 69.8041 65.4858 69.9852 65.0602 69.9852C64.6346 69.9852 64.3871 69.8101 64.3297 69.4841H63.8045C63.8588 70.0395 64.3388 70.4138 65.027 70.4138C65.7605 70.4138 66.2766 70.0274 66.2766 69.4811C66.2766 69.0193 66.0472 68.7899 65.4133 68.6299L64.9274 68.5122C64.5712 68.4216 64.4052 68.2767 64.4052 68.0594C64.4052 67.7847 64.6587 67.5945 65.0421 67.5945C65.4284 67.5945 65.6729 67.7817 65.7092 68.0835H66.2102C66.1861 67.5523 65.7092 67.1659 65.0602 67.1659C64.3689 67.1659 63.889 67.5493 63.889 68.0865ZM68.0817 67.6217C68.5767 67.6217 68.9058 67.996 68.9178 68.5212H67.2124C67.2456 67.999 67.5897 67.6217 68.0817 67.6217ZM68.9058 69.46C68.8182 69.7558 68.5254 69.958 68.127 69.958C67.5625 69.958 67.2094 69.5626 67.2094 68.9619V68.9317H69.4612V68.7325C69.4612 67.7817 68.939 67.1659 68.0908 67.1659C67.2244 67.1659 66.669 67.827 66.669 68.8019C66.669 69.789 67.2154 70.4138 68.1149 70.4138C68.8001 70.4138 69.3314 70.0093 69.4219 69.46H68.9058ZM71.5198 71.5337C72.0873 71.5337 72.3468 71.3133 72.6155 70.5798L73.8501 67.2202H73.2977L72.4283 69.8343H72.4193L71.55 67.2202H70.9885L72.1476 70.3625L72.0752 70.5829C71.9544 70.9481 71.7914 71.09 71.4986 71.09C71.4322 71.09 71.3507 71.0869 71.2934 71.0749V71.5156C71.3507 71.5276 71.4564 71.5337 71.5198 71.5337ZM75.477 70.4138C76.3433 70.4138 76.9289 69.789 76.9289 68.7899C76.9289 67.7877 76.3433 67.1659 75.477 67.1659C74.6077 67.1659 74.0221 67.7877 74.0221 68.7899C74.0221 69.789 74.6077 70.4138 75.477 70.4138ZM75.477 69.952C74.9216 69.952 74.5564 69.5294 74.5564 68.7899C74.5564 68.0503 74.9216 67.6277 75.477 67.6277C76.0324 67.6277 76.3947 68.0503 76.3947 68.7899C76.3947 69.5294 76.0324 69.952 75.477 69.952ZM80.038 67.2202H79.5128V69.0645C79.5128 69.5988 79.2049 69.949 78.6948 69.949C78.2088 69.949 77.9703 69.6743 77.9703 69.1642V67.2202H77.4451V69.2577C77.4451 69.9701 77.8466 70.4138 78.5318 70.4138C79.0147 70.4138 79.3407 70.2116 79.5279 69.8494H79.5399V70.3595H80.038V67.2202ZM80.7202 70.3595H81.2454V68.4035C81.2454 67.9598 81.511 67.667 81.9185 67.667C82.0453 67.667 82.157 67.6821 82.1992 67.6972V67.187C82.157 67.181 82.0785 67.1659 81.988 67.1659C81.6197 67.1659 81.3299 67.3863 81.2273 67.7334H81.2152V67.2202H80.7202V70.3595ZM84.0647 66.4626V67.2202H83.5968V67.6519H84.0647V69.5445C84.0647 70.1482 84.2881 70.3836 84.8646 70.3836C84.9883 70.3836 85.1332 70.3746 85.1966 70.3595V69.9188C85.1604 69.9248 85.0397 69.9339 84.9793 69.9339C84.7106 69.9339 84.5899 69.8041 84.5899 69.5173V67.6519H85.1996V67.2202H84.5899V66.4626H84.0647ZM86.9715 70.4138C87.8378 70.4138 88.4234 69.789 88.4234 68.7899C88.4234 67.7877 87.8378 67.1659 86.9715 67.1659C86.1022 67.1659 85.5166 67.7877 85.5166 68.7899C85.5166 69.789 86.1022 70.4138 86.9715 70.4138ZM86.9715 69.952C86.4161 69.952 86.0509 69.5294 86.0509 68.7899C86.0509 68.0503 86.4161 67.6277 86.9715 67.6277C87.5269 67.6277 87.8891 68.0503 87.8891 68.7899C87.8891 69.5294 87.5269 69.952 86.9715 69.952ZM91.4117 70.4138C91.8645 70.4138 92.2237 70.1904 92.4259 69.8282H92.435V70.3595H92.9361V66.0038H92.4108V67.7304H92.3988C92.2116 67.3863 91.8494 67.1659 91.3996 67.1659C90.6088 67.1659 90.0685 67.8058 90.0685 68.7899C90.0685 69.7739 90.6118 70.4138 91.4117 70.4138ZM91.5113 67.6277C92.0516 67.6277 92.4139 68.0896 92.4139 68.7899C92.4139 69.4932 92.0516 69.952 91.5113 69.952C90.9559 69.952 90.6058 69.5022 90.6058 68.7899C90.6058 68.0805 90.9559 67.6277 91.5113 67.6277ZM94.9464 70.4138C95.8127 70.4138 96.3983 69.789 96.3983 68.7899C96.3983 67.7877 95.8127 67.1659 94.9464 67.1659C94.0771 67.1659 93.4915 67.7877 93.4915 68.7899C93.4915 69.789 94.0771 70.4138 94.9464 70.4138ZM94.9464 69.952C94.391 69.952 94.0257 69.5294 94.0257 68.7899C94.0257 68.0503 94.391 67.6277 94.9464 67.6277C95.5018 67.6277 95.864 68.0503 95.864 68.7899C95.864 69.5294 95.5018 69.952 94.9464 69.952ZM98.2245 70.3595H98.7497V66.0038H98.2245V70.3595ZM99.4862 70.3595H100.011V67.2202H99.4862V70.3595ZM99.7488 66.692C99.9299 66.692 100.078 66.5441 100.078 66.366C100.078 66.1849 99.9299 66.04 99.7488 66.04C99.5707 66.04 99.4228 66.1849 99.4228 66.366C99.4228 66.5441 99.5707 66.692 99.7488 66.692ZM100.666 68.0865C100.666 68.5152 100.938 68.7989 101.491 68.9408L102.043 69.0827C102.396 69.1762 102.526 69.297 102.526 69.5203C102.526 69.8041 102.263 69.9852 101.838 69.9852C101.412 69.9852 101.165 69.8101 101.107 69.4841H100.582C100.636 70.0395 101.116 70.4138 101.804 70.4138C102.538 70.4138 103.054 70.0274 103.054 69.4811C103.054 69.0193 102.825 68.7899 102.191 68.6299L101.705 68.5122C101.349 68.4216 101.183 68.2767 101.183 68.0594C101.183 67.7847 101.436 67.5945 101.82 67.5945C102.206 67.5945 102.45 67.7817 102.487 68.0835H102.988C102.964 67.5523 102.487 67.1659 101.838 67.1659C101.146 67.1659 100.666 67.5493 100.666 68.0865ZM103.769 66.4626V67.2202H103.302V67.6519H103.769V69.5445C103.769 70.1482 103.993 70.3836 104.569 70.3836C104.693 70.3836 104.838 70.3746 104.901 70.3595V69.9188C104.865 69.9248 104.744 69.9339 104.684 69.9339C104.415 69.9339 104.295 69.8041 104.295 69.5173V67.6519H104.904V67.2202H104.295V66.4626H103.769ZM109.342 68.2495C109.275 67.6851 108.807 67.1659 108.023 67.1659C107.156 67.1659 106.58 67.7998 106.58 68.7899C106.58 69.8011 107.159 70.4138 108.029 70.4138C108.741 70.4138 109.266 69.9731 109.348 69.3483H108.832C108.741 69.7256 108.46 69.952 108.032 69.952C107.488 69.952 107.114 69.5203 107.114 68.7899C107.114 68.0775 107.482 67.6277 108.026 67.6277C108.487 67.6277 108.753 67.9085 108.828 68.2495H109.342ZM111.132 70.4138C111.998 70.4138 112.584 69.789 112.584 68.7899C112.584 67.7877 111.998 67.1659 111.132 67.1659C110.262 67.1659 109.677 67.7877 109.677 68.7899C109.677 69.789 110.262 70.4138 111.132 70.4138ZM111.132 69.952C110.576 69.952 110.211 69.5294 110.211 68.7899C110.211 68.0503 110.576 67.6277 111.132 67.6277C111.687 67.6277 112.049 68.0503 112.049 68.7899C112.049 69.5294 111.687 69.952 111.132 69.952ZM113.142 70.3595H113.667V66.0038H113.142V70.3595ZM115.677 70.4138C116.544 70.4138 117.129 69.789 117.129 68.7899C117.129 67.7877 116.544 67.1659 115.677 67.1659C114.808 67.1659 114.223 67.7877 114.223 68.7899C114.223 69.789 114.808 70.4138 115.677 70.4138ZM115.677 69.952C115.122 69.952 114.757 69.5294 114.757 68.7899C114.757 68.0503 115.122 67.6277 115.677 67.6277C116.233 67.6277 116.595 68.0503 116.595 68.7899C116.595 69.5294 116.233 69.952 115.677 69.952ZM117.661 70.3595H118.186V68.4035C118.186 67.9598 118.451 67.667 118.859 67.667C118.986 67.667 119.097 67.6821 119.14 67.6972V67.187C119.097 67.181 119.019 67.1659 118.928 67.1659C118.56 67.1659 118.27 67.3863 118.168 67.7334H118.156V67.2202H117.661V70.3595ZM121.005 66.4626V67.2202H120.537V67.6519H121.005V69.5445C121.005 70.1482 121.229 70.3836 121.805 70.3836C121.929 70.3836 122.074 70.3746 122.137 70.3595V69.9188C122.101 69.9248 121.98 69.9339 121.92 69.9339C121.651 69.9339 121.53 69.8041 121.53 69.5173V67.6519H122.14V67.2202H121.53V66.4626H121.005ZM122.729 70.3595H123.254V68.5303C123.254 67.9869 123.577 67.6308 124.099 67.6308C124.591 67.6308 124.842 67.9296 124.842 68.4276V70.3595H125.367V68.331C125.367 67.6308 124.95 67.1659 124.262 67.1659C123.785 67.1659 123.441 67.3712 123.266 67.7213H123.254V66.0038H122.729V70.3595ZM127.293 67.6217C127.788 67.6217 128.117 67.996 128.129 68.5212H126.423C126.457 67.999 126.801 67.6217 127.293 67.6217ZM128.117 69.46C128.029 69.7558 127.736 69.958 127.338 69.958C126.773 69.958 126.42 69.5626 126.42 68.9619V68.9317H128.672V68.7325C128.672 67.7817 128.15 67.1659 127.302 67.1659C126.435 67.1659 125.88 67.827 125.88 68.8019C125.88 69.789 126.426 70.4138 127.326 70.4138C128.011 70.4138 128.542 70.0093 128.633 69.46H128.117ZM129.203 70.3595H129.729V68.3914C129.729 67.9568 130.03 67.6308 130.447 67.6308C130.836 67.6308 131.09 67.8783 131.09 68.2556V70.3595H131.615V68.3643C131.615 67.9386 131.908 67.6308 132.325 67.6308C132.738 67.6308 132.977 67.8843 132.977 68.3129V70.3595H133.502V68.1922C133.502 67.5704 133.1 67.1659 132.478 67.1659C132.038 67.1659 131.67 67.3893 131.494 67.7636H131.482C131.347 67.3832 131.03 67.1659 130.601 67.1659C130.178 67.1659 129.858 67.3893 129.711 67.7213H129.698V67.2202H129.203V70.3595ZM135.431 67.6217C135.926 67.6217 136.255 67.996 136.267 68.5212H134.561C134.594 67.999 134.939 67.6217 135.431 67.6217ZM136.255 69.46C136.167 69.7558 135.874 69.958 135.476 69.958C134.911 69.958 134.558 69.5626 134.558 68.9619V68.9317H136.81V68.7325C136.81 67.7817 136.288 67.1659 135.44 67.1659C134.573 67.1659 134.018 67.827 134.018 68.8019C134.018 69.789 134.564 70.4138 135.464 70.4138C136.149 70.4138 136.68 70.0093 136.771 69.46H136.255ZM137.785 70.3897C137.978 70.3897 138.129 70.2387 138.129 70.0456C138.129 69.8524 137.978 69.7014 137.785 69.7014C137.592 69.7014 137.441 69.8524 137.441 70.0456C137.441 70.2387 137.592 70.3897 137.785 70.3897ZM137.785 68.168C137.978 68.168 138.129 68.0171 138.129 67.8239C138.129 67.6308 137.978 67.4798 137.785 67.4798C137.592 67.4798 137.441 67.6308 137.441 67.8239C137.441 68.0171 137.592 68.168 137.785 68.168Z" fill="#767E8C"/>
<g filter="url(#filter0_d_605_5348)">
<rect x="21.6367" y="86.1262" width="144.391" height="45.9227" rx="3.53251" fill="white"/>
</g>
<path d="M21.6367 89.6587C21.6367 87.7077 23.2183 86.1262 25.1692 86.1262H162.496C164.447 86.1262 166.028 87.7077 166.028 89.6587V102.022H21.6367V89.6587Z" fill="#24A19C"/>
<circle cx="36.2083" cy="116.594" r="7.50659" fill="#E7ECF5"/>
<rect x="50.7798" y="109.75" width="81.6893" height="2.20782" rx="1.10391" fill="#E7ECF5"/>
<rect x="50.7798" y="115.49" width="56.5202" height="2.20782" rx="1.10391" fill="#E7ECF5"/>
<rect x="50.7798" y="121.231" width="68.884" height="2.20782" rx="1.10391" fill="#E7ECF5"/>
<g filter="url(#filter1_d_605_5348)">
<rect x="21.6367" y="139.114" width="144.391" height="45.9227" rx="3.53251" fill="white"/>
</g>
<path d="M21.6367 142.646C21.6367 140.695 23.2183 139.114 25.1692 139.114H162.496C164.447 139.114 166.028 140.695 166.028 142.646V155.01H21.6367V142.646Z" fill="#1B1C1F"/>
<circle cx="36.2083" cy="169.582" r="7.50659" fill="#E7ECF5"/>
<rect x="50.7798" y="162.737" width="81.6893" height="2.20782" rx="1.10391" fill="#E7ECF5"/>
<rect x="50.7798" y="168.478" width="56.5202" height="2.20782" rx="1.10391" fill="#E7ECF5"/>
<rect x="50.7798" y="174.218" width="68.884" height="2.20782" rx="1.10391" fill="#E7ECF5"/>
<g filter="url(#filter2_d_605_5348)">
<rect x="21.6367" y="192.102" width="144.391" height="45.9227" rx="3.53251" fill="white"/>
</g>
<path d="M21.6367 195.634C21.6367 193.683 23.2183 192.102 25.1692 192.102H162.496C164.447 192.102 166.028 193.683 166.028 195.634V207.998H21.6367V195.634Z" fill="#EA4335"/>
<circle cx="36.2083" cy="222.569" r="7.50659" fill="#E7ECF5"/>
<rect x="50.7798" y="215.725" width="81.6893" height="2.20782" rx="1.10391" fill="#E7ECF5"/>
<rect x="50.7798" y="221.466" width="56.5202" height="2.20782" rx="1.10391" fill="#E7ECF5"/>
<rect x="50.7798" y="227.206" width="68.884" height="2.20782" rx="1.10391" fill="#E7ECF5"/>
<g filter="url(#filter3_d_605_5348)">
<rect x="21.6367" y="245.089" width="144.391" height="45.9227" rx="3.53251" fill="white"/>
</g>
<path d="M21.6367 248.622C21.6367 246.671 23.2183 245.089 25.1692 245.089H162.496C164.447 245.089 166.028 246.671 166.028 248.622V260.986H21.6367V248.622Z" fill="#1877F2"/>
<circle cx="36.2083" cy="275.557" r="7.50659" fill="#E7ECF5"/>
<rect x="50.7798" y="268.713" width="81.6893" height="2.20782" rx="1.10391" fill="#E7ECF5"/>
<rect x="50.7798" y="274.453" width="56.5202" height="2.20782" rx="1.10391" fill="#E7ECF5"/>
<rect x="50.7798" y="280.194" width="68.884" height="2.20782" rx="1.10391" fill="#E7ECF5"/>
<rect x="21.6367" y="321.48" width="144.391" height="24.7276" rx="7.06502" fill="#24A19C"/>
<path d="M71.8249 330.293C70.2105 330.293 69.2014 331.407 69.2014 333.188C69.2014 334.97 70.2105 336.08 71.8249 336.08C73.4355 336.08 74.4485 334.97 74.4485 333.188C74.4485 331.407 73.4355 330.293 71.8249 330.293ZM71.8249 331.058C72.8883 331.058 73.5558 331.88 73.5558 333.188C73.5558 334.492 72.8883 335.315 71.8249 335.315C70.7616 335.315 70.0902 334.492 70.0902 333.188C70.0902 331.88 70.7616 331.058 71.8249 331.058ZM77.3048 331.838C76.7149 331.838 76.2453 332.137 76.0047 332.606H75.9892V331.904H75.1781V337.337H76.0163V335.315H76.0358C76.2686 335.769 76.7343 336.056 77.3203 336.056C78.3449 336.056 79.0241 335.237 79.0241 333.945C79.0241 332.653 78.341 331.838 77.3048 331.838ZM77.0836 335.346C76.4394 335.346 76.0125 334.795 76.0125 333.945C76.0125 333.103 76.4433 332.544 77.0836 332.544C77.7472 332.544 78.1625 333.091 78.1625 333.945C78.1625 334.803 77.7472 335.346 77.0836 335.346ZM81.3798 332.505C81.9658 332.505 82.3617 332.944 82.3811 333.569H80.3397C80.3824 332.952 80.7938 332.505 81.3798 332.505ZM82.3772 334.787C82.2647 335.144 81.9115 335.385 81.4341 335.385C80.7627 335.385 80.3358 334.915 80.3358 334.205V334.155H83.2194V333.867C83.2194 332.629 82.513 331.83 81.3798 331.83C80.2272 331.83 79.4898 332.684 79.4898 333.964C79.4898 335.253 80.2155 336.064 81.4147 336.064C82.35 336.064 83.0564 335.532 83.1728 334.787H82.3772ZM83.8714 335.986H84.7096V333.607C84.7096 332.975 85.09 332.556 85.6799 332.556C86.262 332.556 86.5492 332.893 86.5492 333.507V335.986H87.3914V333.344C87.3914 332.408 86.8752 331.834 85.9748 331.834C85.3461 331.834 84.9114 332.121 84.6902 332.587H84.6708V331.904H83.8714V335.986ZM92.1766 335.986V331.135H93.888V330.386H89.5919V331.135H91.3072V335.986H92.1766ZM95.2503 336.064C96.4184 336.064 97.1868 335.261 97.1868 333.945C97.1868 332.633 96.4145 331.83 95.2503 331.83C94.086 331.83 93.3137 332.633 93.3137 333.945C93.3137 335.261 94.0821 336.064 95.2503 336.064ZM95.2503 335.373C94.5944 335.373 94.1675 334.853 94.1675 333.945C94.1675 333.041 94.5944 332.521 95.2503 332.521C95.9061 332.521 96.333 333.041 96.333 333.945C96.333 334.853 95.91 335.373 95.2503 335.373ZM99.3679 336.056C99.9617 336.056 100.427 335.757 100.668 335.292H100.684V335.986H101.499V330.386H100.656V332.583H100.641C100.412 332.133 99.9462 331.838 99.3602 331.838C98.3356 331.838 97.6526 332.657 97.6526 333.945C97.6526 335.234 98.3356 336.056 99.3679 336.056ZM99.5891 332.544C100.233 332.544 100.664 333.099 100.664 333.945C100.664 334.799 100.233 335.346 99.5891 335.346C98.9255 335.346 98.5102 334.807 98.5102 333.945C98.5102 333.087 98.9255 332.544 99.5891 332.544ZM102.764 337.508C103.614 337.508 104.013 337.19 104.363 336.2L105.896 331.904H105.011L103.975 335.226H103.963L102.927 331.904H102.019L103.493 335.99C103.493 335.994 103.42 336.235 103.42 336.243C103.292 336.662 103.086 336.825 102.694 336.825C102.624 336.825 102.484 336.825 102.422 336.809V337.488C102.484 337.5 102.698 337.508 102.764 337.508ZM107.731 335.393C107.281 335.393 106.986 335.16 106.986 334.803C106.986 334.453 107.27 334.232 107.77 334.197L108.775 334.135V334.457C108.775 334.989 108.317 335.393 107.731 335.393ZM107.498 336.056C108.034 336.056 108.55 335.769 108.787 335.315H108.806V335.986H109.61V333.173C109.61 332.354 108.977 331.83 107.987 331.83C106.978 331.83 106.35 332.373 106.303 333.111H107.095C107.169 332.746 107.471 332.513 107.956 332.513C108.469 332.513 108.775 332.785 108.775 333.239V333.553L107.658 333.619C106.687 333.673 106.14 334.112 106.14 334.826C106.14 335.56 106.699 336.056 107.498 336.056ZM112.551 331.838C111.962 331.838 111.492 332.137 111.251 332.606H111.236V331.904H110.425V337.337H111.263V335.315H111.282C111.515 335.769 111.981 336.056 112.567 336.056C113.592 336.056 114.271 335.237 114.271 333.945C114.271 332.653 113.588 331.838 112.551 331.838ZM112.33 335.346C111.686 335.346 111.259 334.795 111.259 333.945C111.259 333.103 111.69 332.544 112.33 332.544C112.994 332.544 113.409 333.091 113.409 333.945C113.409 334.803 112.994 335.346 112.33 335.346ZM117.046 331.838C116.456 331.838 115.986 332.137 115.745 332.606H115.73V331.904H114.919V337.337H115.757V335.315H115.777C116.009 335.769 116.475 336.056 117.061 336.056C118.086 336.056 118.765 335.237 118.765 333.945C118.765 332.653 118.082 331.838 117.046 331.838ZM116.824 335.346C116.18 335.346 115.753 334.795 115.753 333.945C115.753 333.103 116.184 332.544 116.824 332.544C117.488 332.544 117.903 333.091 117.903 333.945C117.903 334.803 117.488 335.346 116.824 335.346Z" fill="white"/>
<rect x="16.7793" y="79.0611" width="14.13" height="14.13" rx="7.06502" fill="#24A19C"/>
<g clip-path="url(#clip4_605_5348)">
<path d="M25.6106 84.8015L23.182 87.2301L22.0781 86.1261" stroke="white" stroke-width="0.883128" stroke-linecap="round" stroke-linejoin="round"/>
</g>
</g>
</g>
</g>
<mask id="path-45-inside-1_605_5348" fill="white">
<path fill-rule="evenodd" clip-rule="evenodd" d="M137.462 15.7434V9.73556H137.462V12.1403C137.462 10.7694 138.488 9.74043 139.857 9.73558H155.43C162.849 9.73558 166.559 9.73558 169.393 11.1794C171.885 12.4494 173.912 14.476 175.182 16.9685C176.625 19.8022 176.625 23.5117 176.625 30.9307V347.197C176.625 354.616 176.625 358.325 175.182 361.159C173.912 363.651 171.885 365.678 169.393 366.948C166.559 368.392 162.849 368.392 155.43 368.392H32.234C24.8151 368.392 21.1056 368.392 18.2719 366.948C15.7793 365.678 13.7528 363.651 12.4828 361.159C11.0389 358.325 11.0389 354.616 11.0389 347.197V30.9307C11.0389 23.5117 11.0389 19.8022 12.4828 16.9685C13.7528 14.476 15.7793 12.4494 18.2719 11.1794C21.1056 9.73558 24.815 9.73558 32.234 9.73558H47.4625C48.8249 9.74082 50.1847 11.0942 50.2027 12.4565V15.7434C50.2027 19.2557 53.05 22.103 56.5623 22.103H131.102C134.615 22.103 137.462 19.2557 137.462 15.7434Z"/>
</mask>
<path d="M137.462 9.73556V9.51478H137.241V9.73556H137.462ZM137.462 9.73556H137.683V9.51478H137.462V9.73556ZM139.857 9.73558V9.5148L139.856 9.5148L139.857 9.73558ZM169.393 11.1794L169.493 10.9827V10.9827L169.393 11.1794ZM175.182 16.9685L174.985 17.0688V17.0688L175.182 16.9685ZM175.182 361.159L174.985 361.059L175.182 361.159ZM169.393 366.948L169.493 367.145L169.393 366.948ZM18.2719 366.948L18.1717 367.145H18.1717L18.2719 366.948ZM12.4828 361.159L12.2861 361.259H12.2861L12.4828 361.159ZM12.4828 16.9685L12.6795 17.0688L12.4828 16.9685ZM18.2719 11.1794L18.3721 11.3761L18.2719 11.1794ZM47.4625 9.73558L47.4633 9.5148H47.4625V9.73558ZM50.2027 12.4565H50.4235L50.4234 12.4536L50.2027 12.4565ZM137.241 9.73556V15.7434H137.683V9.73556H137.241ZM137.462 9.95635H137.462V9.51478H137.462V9.95635ZM137.241 9.73556V12.1403H137.683V9.73556H137.241ZM137.683 12.1403C137.683 10.891 138.61 9.96078 139.858 9.95636L139.856 9.5148C138.365 9.52009 137.241 10.6479 137.241 12.1403H137.683ZM139.857 9.95636H155.43V9.5148H139.857V9.95636ZM155.43 9.95636C159.143 9.95636 161.915 9.95653 164.113 10.1361C166.308 10.3155 167.912 10.6727 169.292 11.3761L169.493 10.9827C168.04 10.2423 166.372 9.8776 164.149 9.69601C161.929 9.51463 159.136 9.5148 155.43 9.5148V9.95636ZM169.292 11.3761C171.743 12.625 173.736 14.6177 174.985 17.0688L175.378 16.8683C174.087 14.3342 172.027 12.2739 169.493 10.9827L169.292 11.3761ZM174.985 17.0688C175.688 18.4493 176.046 20.0528 176.225 22.2481C176.405 24.446 176.405 27.2175 176.405 30.9307H176.846C176.846 27.2248 176.846 24.4322 176.665 22.2121C176.483 19.9895 176.119 18.3214 175.378 16.8683L174.985 17.0688ZM176.405 30.9307V347.197H176.846V30.9307H176.405ZM176.405 347.197C176.405 350.91 176.405 353.681 176.225 355.879C176.046 358.075 175.688 359.678 174.985 361.059L175.378 361.259C176.119 359.806 176.483 358.138 176.665 355.915C176.846 353.695 176.846 350.903 176.846 347.197H176.405ZM174.985 361.059C173.736 363.51 171.743 365.502 169.292 366.751L169.493 367.145C172.027 365.854 174.087 363.793 175.378 361.259L174.985 361.059ZM169.292 366.751C167.912 367.455 166.308 367.812 164.113 367.991C161.915 368.171 159.144 368.171 155.43 368.171V368.613C159.136 368.613 161.929 368.613 164.149 368.431C166.372 368.25 168.04 367.885 169.493 367.145L169.292 366.751ZM155.43 368.171H32.234V368.613H155.43V368.171ZM32.234 368.171C28.5209 368.171 25.7493 368.171 23.5514 367.991C21.3561 367.812 19.7526 367.455 18.3721 366.751L18.1717 367.145C19.6248 367.885 21.2929 368.25 23.5155 368.431C25.7355 368.613 28.5282 368.613 32.234 368.613V368.171ZM18.3721 366.751C15.9211 365.502 13.9283 363.51 12.6795 361.059L12.2861 361.259C13.5772 363.793 15.6375 365.854 18.1717 367.145L18.3721 366.751ZM12.6795 361.059C11.9761 359.678 11.6188 358.075 11.4395 355.879C11.2599 353.681 11.2597 350.91 11.2597 347.197H10.8182C10.8182 350.903 10.818 353.695 10.9994 355.915C11.181 358.138 11.5456 359.806 12.2861 361.259L12.6795 361.059ZM11.2597 347.197V30.9307H10.8182V347.197H11.2597ZM11.2597 30.9307C11.2597 27.2175 11.2599 24.446 11.4395 22.2481C11.6188 20.0528 11.9761 18.4493 12.6795 17.0688L12.2861 16.8683C11.5456 18.3214 11.181 19.9895 10.9994 22.2121C10.818 24.4322 10.8182 27.2248 10.8182 30.9307H11.2597ZM12.6795 17.0688C13.9283 14.6177 15.9211 12.625 18.3721 11.3761L18.1717 10.9827C15.6375 12.2739 13.5772 14.3342 12.2861 16.8683L12.6795 17.0688ZM18.3721 11.3761C19.7526 10.6727 21.3561 10.3155 23.5514 10.1361C25.7493 9.95653 28.5209 9.95636 32.234 9.95636V9.5148C28.5282 9.5148 25.7355 9.51463 23.5155 9.69601C21.2929 9.8776 19.6248 10.2423 18.1717 10.9827L18.3721 11.3761ZM32.234 9.95636H47.4625V9.5148H32.234V9.95636ZM50.4234 12.4536C50.4135 11.7018 50.0357 10.9705 49.4923 10.4305C48.949 9.89056 48.2156 9.51769 47.4633 9.5148L47.4616 9.95636C48.0718 9.95871 48.6995 10.2651 49.1811 10.7437C49.6627 11.2223 49.9738 11.8489 49.9819 12.4594L50.4234 12.4536ZM50.4235 15.7434V12.4565H49.9819V15.7434H50.4235ZM56.5623 21.8822C53.1719 21.8822 50.4235 19.1338 50.4235 15.7434H49.9819C49.9819 19.3776 52.9281 22.3238 56.5623 22.3238V21.8822ZM131.102 21.8822H56.5623V22.3238H131.102V21.8822ZM137.241 15.7434C137.241 19.1338 134.493 21.8822 131.102 21.8822V22.3238C134.737 22.3238 137.683 19.3776 137.683 15.7434H137.241Z" fill="#1E1E20" style="mix-blend-mode:overlay" mask="url(#path-45-inside-1_605_5348)"/>
<path fill-rule="evenodd" clip-rule="evenodd" d="M50.203 9.73557H137.462H137.462H139.867C138.503 9.73557 137.477 10.751 137.462 12.11V15.7434C137.462 19.2557 134.615 22.103 131.103 22.103H56.5626C53.0503 22.103 50.203 19.2557 50.203 15.7434V9.73557ZM47.4546 9.73557C48.8288 9.73557 50.2029 11.1097 50.2029 12.4839V11.7968V9.73557H47.4546Z" fill="#1E1E20"/>
<circle cx="2.64938" cy="2.64938" r="2.64938" transform="matrix(-1 0 0 1 110.833 11.5018)" fill="#333333"/>
<rect x="76.8322" y="12.3849" width="22.0782" height="3.53251" rx="1.76626" fill="#333333"/>
</g>
<rect x="7.50643" y="6.20307" width="172.652" height="365.615" rx="21.1951" stroke="#1E1E20" stroke-width="7.06502"/>
<defs>
<filter id="filter0_d_605_5348" x="3.97416" y="70.2299" width="179.717" height="81.2478" filterUnits="userSpaceOnUse" color-interpolation-filters="sRGB">
<feFlood flood-opacity="0" result="BackgroundImageFix"/>
<feColorMatrix in="SourceAlpha" type="matrix" values="0 0 0 0 0 0 0 0 0 0 0 0 0 0 0 0 0 0 127 0" result="hardAlpha"/>
<feOffset dy="1.76626"/>
<feGaussianBlur stdDeviation="8.83128"/>
<feComposite in2="hardAlpha" operator="out"/>
<feColorMatrix type="matrix" values="0 0 0 0 0.0582469 0 0 0 0 0.0855965 0 0 0 0 0.229182 0 0 0 0.08 0"/>
<feBlend mode="normal" in2="BackgroundImageFix" result="effect1_dropShadow_605_5348"/>
<feBlend mode="normal" in="SourceGraphic" in2="effect1_dropShadow_605_5348" result="shape"/>
</filter>
<filter id="filter1_d_605_5348" x="3.97416" y="123.218" width="179.717" height="81.2478" filterUnits="userSpaceOnUse" color-interpolation-filters="sRGB">
<feFlood flood-opacity="0" result="BackgroundImageFix"/>
<feColorMatrix in="SourceAlpha" type="matrix" values="0 0 0 0 0 0 0 0 0 0 0 0 0 0 0 0 0 0 127 0" result="hardAlpha"/>
<feOffset dy="1.76626"/>
<feGaussianBlur stdDeviation="8.83128"/>
<feComposite in2="hardAlpha" operator="out"/>
<feColorMatrix type="matrix" values="0 0 0 0 0.0582469 0 0 0 0 0.0855965 0 0 0 0 0.229182 0 0 0 0.08 0"/>
<feBlend mode="normal" in2="BackgroundImageFix" result="effect1_dropShadow_605_5348"/>
<feBlend mode="normal" in="SourceGraphic" in2="effect1_dropShadow_605_5348" result="shape"/>
</filter>
<filter id="filter2_d_605_5348" x="3.97416" y="176.205" width="179.717" height="81.2478" filterUnits="userSpaceOnUse" color-interpolation-filters="sRGB">
<feFlood flood-opacity="0" result="BackgroundImageFix"/>
<feColorMatrix in="SourceAlpha" type="matrix" values="0 0 0 0 0 0 0 0 0 0 0 0 0 0 0 0 0 0 127 0" result="hardAlpha"/>
<feOffset dy="1.76626"/>
<feGaussianBlur stdDeviation="8.83128"/>
<feComposite in2="hardAlpha" operator="out"/>
<feColorMatrix type="matrix" values="0 0 0 0 0.0582469 0 0 0 0 0.0855965 0 0 0 0 0.229182 0 0 0 0.08 0"/>
<feBlend mode="normal" in2="BackgroundImageFix" result="effect1_dropShadow_605_5348"/>
<feBlend mode="normal" in="SourceGraphic" in2="effect1_dropShadow_605_5348" result="shape"/>
</filter>
<filter id="filter3_d_605_5348" x="3.97416" y="229.193" width="179.717" height="81.2478" filterUnits="userSpaceOnUse" color-interpolation-filters="sRGB">
<feFlood flood-opacity="0" result="BackgroundImageFix"/>
<feColorMatrix in="SourceAlpha" type="matrix" values="0 0 0 0 0 0 0 0 0 0 0 0 0 0 0 0 0 0 127 0" result="hardAlpha"/>
<feOffset dy="1.76626"/>
<feGaussianBlur stdDeviation="8.83128"/>
<feComposite in2="hardAlpha" operator="out"/>
<feColorMatrix type="matrix" values="0 0 0 0 0.0582469 0 0 0 0 0.0855965 0 0 0 0 0.229182 0 0 0 0.08 0"/>
<feBlend mode="normal" in2="BackgroundImageFix" result="effect1_dropShadow_605_5348"/>
<feBlend mode="normal" in="SourceGraphic" in2="effect1_dropShadow_605_5348" result="shape"/>
</filter>
<clipPath id="clip0_605_5348">
<rect x="11.0389" y="9.73558" width="165.587" height="358.55" rx="17.6626" fill="white"/>
</clipPath>
<clipPath id="clip1_605_5348">
<rect width="165.587" height="358.55" fill="white" transform="translate(11.0389 9.73558)"/>
</clipPath>
<clipPath id="clip2_605_5348">
<rect width="165.587" height="358.55" fill="white" transform="translate(11.0389 9.73558)"/>
</clipPath>
<clipPath id="clip3_605_5348">
<rect width="165.587" height="358.55" fill="white" transform="translate(11.0389 9.73558)"/>
</clipPath>
<clipPath id="clip4_605_5348">
<rect width="5.29877" height="5.29877" fill="white" transform="translate(21.1949 83.4768)"/>
</clipPath>
</defs>
</svg>
