<svg width="182" height="176" viewBox="0 0 182 176" fill="none" xmlns="http://www.w3.org/2000/svg">
<g filter="url(#filter0_d_605_5432)">
<rect x="24" y="45" width="109" height="76.4253" rx="5.01149" fill="white"/>
<path d="M31.517 88.8506H125.482" stroke="#E0E5ED" stroke-width="0.3"/>
<path d="M38.2197 79.7045C41.9216 79.7045 44.9226 76.7036 44.9226 73.0017C44.9226 69.2998 41.9216 66.2988 38.2197 66.2988C34.5178 66.2988 31.5168 69.2998 31.5168 73.0017C31.5168 76.7036 34.5178 79.7045 38.2197 79.7045Z" fill="url(#paint0_linear_605_5432)"/>
<path fill-rule="evenodd" clip-rule="evenodd" d="M34.5508 72.9308C36.5049 72.0795 37.8078 71.5182 38.4598 71.2471C40.3213 70.4728 40.7081 70.3383 40.9602 70.3339C41.0156 70.3329 41.1396 70.3466 41.2199 70.4118C41.2877 70.4668 41.3064 70.5412 41.3153 70.5933C41.3242 70.6455 41.3353 70.7643 41.3265 70.8572C41.2256 71.9171 40.7892 74.4891 40.5671 75.6762C40.4731 76.1785 40.2881 76.3469 40.109 76.3634C39.7198 76.3992 39.4242 76.1062 39.0472 75.859C38.4572 75.4723 38.124 75.2316 37.5513 74.8542C36.8895 74.4181 37.3186 74.1784 37.6957 73.7867C37.7944 73.6842 39.5094 72.1243 39.5426 71.9827C39.5468 71.965 39.5506 71.8991 39.5114 71.8642C39.4723 71.8294 39.4144 71.8413 39.3727 71.8508C39.3135 71.8642 38.3711 72.4871 36.5454 73.7195C36.2778 73.9032 36.0355 73.9927 35.8185 73.988C35.5791 73.9829 35.1188 73.8527 34.7765 73.7415C34.3568 73.605 34.0231 73.5329 34.0522 73.3011C34.0673 73.1804 34.2335 73.057 34.5508 72.9308Z" fill="white"/>
<path d="M53.6332 66.9446V66.3324H57.281V66.9446H55.8104V71.0458H55.1015V66.9446H53.6332ZM59.0104 71.1172C58.6621 71.1172 58.3622 71.0428 58.1105 70.8939C57.8604 70.7436 57.6671 70.5326 57.5306 70.261C57.3955 69.9879 57.328 69.668 57.328 69.3013C57.328 68.9392 57.3955 68.6201 57.5306 68.3439C57.6671 68.0677 57.8574 67.8521 58.1013 67.6972C58.3468 67.5422 58.6337 67.4647 58.9621 67.4647C59.1615 67.4647 59.3549 67.4977 59.5421 67.5637C59.7292 67.6297 59.8973 67.7332 60.0461 67.8744C60.1949 68.0155 60.3123 68.1989 60.3982 68.4244C60.4841 68.6485 60.5271 68.9208 60.5271 69.2415V69.4854H57.717V68.9699H59.8528C59.8528 68.7888 59.8159 68.6285 59.7423 68.4889C59.6686 68.3477 59.5651 68.2365 59.4316 68.1552C59.2996 68.0738 59.1447 68.0332 58.9667 68.0332C58.7734 68.0332 58.6046 68.0807 58.4604 68.1759C58.3177 68.2695 58.2072 68.3922 58.1289 68.5441C58.0522 68.6945 58.0139 68.8579 58.0139 69.0343V69.4371C58.0139 69.6734 58.0553 69.8744 58.1381 70.0401C58.2225 70.2058 58.3399 70.3324 58.4903 70.4198C58.6406 70.5058 58.8163 70.5487 59.0173 70.5487C59.1477 70.5487 59.2666 70.5303 59.374 70.4935C59.4815 70.4551 59.5743 70.3984 59.6525 70.3232C59.7308 70.248 59.7906 70.1552 59.832 70.0447L60.4834 70.1621C60.4312 70.3539 60.3376 70.5219 60.2026 70.6661C60.0691 70.8088 59.9011 70.92 59.6986 70.9998C59.4976 71.0781 59.2682 71.1172 59.0104 71.1172ZM61.9464 66.3324V71.0458H61.2582V66.3324H61.9464ZM64.3633 71.1172C64.015 71.1172 63.7151 71.0428 63.4634 70.8939C63.2133 70.7436 63.02 70.5326 62.8835 70.261C62.7484 69.9879 62.6809 69.668 62.6809 69.3013C62.6809 68.9392 62.7484 68.6201 62.8835 68.3439C63.02 68.0677 63.2103 67.8521 63.4542 67.6972C63.6997 67.5422 63.9866 67.4647 64.315 67.4647C64.5144 67.4647 64.7078 67.4977 64.895 67.5637C65.0821 67.6297 65.2502 67.7332 65.399 67.8744C65.5478 68.0155 65.6652 68.1989 65.7511 68.4244C65.837 68.6485 65.88 68.9208 65.88 69.2415V69.4854H63.0699V68.9699H65.2057C65.2057 68.7888 65.1688 68.6285 65.0952 68.4889C65.0215 68.3477 64.918 68.2365 64.7845 68.1552C64.6525 68.0738 64.4976 68.0332 64.3196 68.0332C64.1263 68.0332 63.9575 68.0807 63.8133 68.1759C63.6706 68.2695 63.5601 68.3922 63.4818 68.5441C63.4051 68.6945 63.3668 68.8579 63.3668 69.0343V69.4371C63.3668 69.6734 63.4082 69.8744 63.491 70.0401C63.5754 70.2058 63.6928 70.3324 63.8432 70.4198C63.9935 70.5058 64.1692 70.5487 64.3702 70.5487C64.5006 70.5487 64.6195 70.5303 64.7269 70.4935C64.8344 70.4551 64.9272 70.3984 65.0054 70.3232C65.0837 70.248 65.1435 70.1552 65.1849 70.0447L65.8363 70.1621C65.7841 70.3539 65.6905 70.5219 65.5555 70.6661C65.422 70.8088 65.254 70.92 65.0515 70.9998C64.8505 71.0781 64.6211 71.1172 64.3633 71.1172ZM68.0933 72.4451C67.8125 72.4451 67.5708 72.4083 67.3683 72.3347C67.1673 72.261 67.0031 72.1636 66.8758 72.0424C66.7484 71.9212 66.6533 71.7885 66.5904 71.6442L67.1819 71.4003C67.2233 71.4678 67.2785 71.5391 67.3476 71.6143C67.4182 71.691 67.5133 71.7562 67.633 71.8099C67.7542 71.8636 67.9099 71.8905 68.1002 71.8905C68.361 71.8905 68.5766 71.8268 68.7469 71.6995C68.9172 71.5736 69.0024 71.3726 69.0024 71.0965V70.4014H68.9586C68.9172 70.4766 68.8574 70.5602 68.7791 70.6523C68.7024 70.7443 68.5965 70.8241 68.4615 70.8916C68.3265 70.9591 68.1508 70.9929 67.9345 70.9929C67.6552 70.9929 67.4036 70.9277 67.1796 70.7973C66.9571 70.6653 66.7807 70.4712 66.6502 70.215C66.5214 69.9572 66.4569 69.6404 66.4569 69.2645C66.4569 68.8886 66.5206 68.5664 66.6479 68.2979C66.7768 68.0293 66.9533 67.8237 67.1773 67.6811C67.4013 67.5368 67.6552 67.4647 67.9391 67.4647C68.1585 67.4647 68.3357 67.5015 68.4707 67.5752C68.6057 67.6473 68.7108 67.7317 68.786 67.8284C68.8627 67.925 68.9218 68.0102 68.9632 68.0838H69.0139V67.5107H69.6882V71.1241C69.6882 71.4279 69.6176 71.6772 69.4765 71.8721C69.3353 72.0669 69.1443 72.2112 68.9034 72.3048C68.664 72.3983 68.394 72.4451 68.0933 72.4451ZM68.0864 70.4221C68.2843 70.4221 68.4515 70.3761 68.5881 70.284C68.7262 70.1904 68.8305 70.057 68.9011 69.8836C68.9732 69.7087 69.0093 69.4992 69.0093 69.2553C69.0093 69.0175 68.974 68.808 68.9034 68.627C68.8328 68.4459 68.7292 68.3048 68.5927 68.2035C68.4561 68.1007 68.2874 68.0493 68.0864 68.0493C67.8792 68.0493 67.7066 68.103 67.5685 68.2104C67.4304 68.3163 67.3261 68.4605 67.2555 68.6431C67.1865 68.8257 67.152 69.0297 67.152 69.2553C67.152 69.487 67.1873 69.6903 67.2578 69.8652C67.3284 70.0401 67.4327 70.1766 67.5708 70.2748C67.7105 70.373 67.8823 70.4221 68.0864 70.4221ZM70.5787 71.0458V67.5107H71.2438V68.0723H71.2807C71.3451 67.8821 71.4586 67.7325 71.6213 67.6235C71.7854 67.513 71.9711 67.4578 72.1782 67.4578C72.2212 67.4578 72.2718 67.4593 72.3301 67.4624C72.39 67.4655 72.4368 67.4693 72.4705 67.4739V68.1321C72.4429 68.1245 72.3938 68.116 72.3232 68.1068C72.2526 68.0961 72.1821 68.0907 72.1115 68.0907C71.9489 68.0907 71.8039 68.1252 71.6765 68.1943C71.5507 68.2618 71.451 68.3562 71.3773 68.4774C71.3037 68.5971 71.2668 68.7336 71.2668 68.887V71.0458H70.5787ZM74.0307 71.1241C73.8067 71.1241 73.6042 71.0827 73.4232 70.9998C73.2421 70.9154 73.0986 70.7934 72.9928 70.6339C72.8884 70.4743 72.8363 70.2787 72.8363 70.047C72.8363 69.8475 72.8746 69.6834 72.9513 69.5545C73.0281 69.4256 73.1316 69.3236 73.2621 69.2484C73.3925 69.1732 73.5382 69.1164 73.6993 69.0781C73.8604 69.0397 74.0246 69.0106 74.1919 68.9906C74.4036 68.9661 74.5754 68.9461 74.7074 68.9308C74.8393 68.9139 74.9352 68.887 74.9951 68.8502C75.0549 68.8134 75.0848 68.7536 75.0848 68.6707V68.6546C75.0848 68.4536 75.0281 68.2979 74.9145 68.1874C74.8025 68.0769 74.6353 68.0217 74.4128 68.0217C74.1811 68.0217 73.9985 68.0731 73.865 68.1759C73.7331 68.2771 73.6418 68.3899 73.5912 68.5142L72.9444 68.3669C73.0212 68.1521 73.1332 67.9787 73.2805 67.8468C73.4293 67.7133 73.6004 67.6166 73.7937 67.5568C73.987 67.4954 74.1903 67.4647 74.4036 67.4647C74.5447 67.4647 74.6943 67.4816 74.8524 67.5154C75.012 67.5476 75.1608 67.6074 75.2989 67.6949C75.4385 67.7823 75.5528 67.9074 75.6418 68.07C75.7308 68.2311 75.7753 68.4405 75.7753 68.6983V71.0458H75.1032V70.5625H75.0756C75.0311 70.6515 74.9644 70.739 74.8754 70.8249C74.7864 70.9108 74.6721 70.9822 74.5325 71.0389C74.3929 71.0957 74.2256 71.1241 74.0307 71.1241ZM74.1803 70.5717C74.3706 70.5717 74.5332 70.5341 74.6683 70.459C74.8048 70.3838 74.9084 70.2856 74.979 70.1644C75.0511 70.0416 75.0871 69.9104 75.0871 69.7708V69.3151C75.0626 69.3397 75.015 69.3627 74.9444 69.3842C74.8754 69.4041 74.7964 69.4218 74.7074 69.4371C74.6184 69.4509 74.5317 69.4639 74.4473 69.4762C74.3629 69.487 74.2924 69.4962 74.2356 69.5038C74.1021 69.5207 73.9801 69.5491 73.8696 69.589C73.7607 69.6289 73.6733 69.6864 73.6073 69.7616C73.5428 69.8353 73.5106 69.9335 73.5106 70.0562C73.5106 70.2265 73.5735 70.3554 73.6993 70.4428C73.8251 70.5288 73.9855 70.5717 74.1803 70.5717ZM76.6594 71.0458V67.5107H77.32V68.0861H77.3637C77.4373 67.8913 77.5578 67.7394 77.725 67.6304C77.8923 67.52 78.0925 67.4647 78.3257 67.4647C78.562 67.4647 78.7599 67.52 78.9195 67.6304C79.0806 67.7409 79.1995 67.8928 79.2762 68.0861H79.3131C79.3975 67.8974 79.5317 67.747 79.7158 67.635C79.8999 67.5215 80.1194 67.4647 80.3741 67.4647C80.6947 67.4647 80.9563 67.5652 81.1589 67.7662C81.3629 67.9672 81.465 68.2702 81.465 68.6753V71.0458H80.7768V68.7397C80.7768 68.5004 80.7116 68.327 80.5812 68.2196C80.4508 68.1122 80.295 68.0585 80.114 68.0585C79.89 68.0585 79.7158 68.1275 79.5915 68.2656C79.4673 68.4022 79.4051 68.5779 79.4051 68.7927V71.0458H78.7193V68.696C78.7193 68.5042 78.6594 68.35 78.5398 68.2334C78.4201 68.1168 78.2644 68.0585 78.0726 68.0585C77.9421 68.0585 77.8217 68.093 77.7112 68.1621C77.6023 68.2296 77.5141 68.3239 77.4466 68.4452C77.3806 68.5664 77.3476 68.7068 77.3476 68.8663V71.0458H76.6594Z" fill="black"/>
<path d="M56.9841 77.2947H56.5085C56.4804 77.1579 56.4311 77.0377 56.3608 76.9342C56.2918 76.8306 56.2074 76.7437 56.1077 76.6733C56.0092 76.6017 55.8999 76.548 55.7797 76.5122C55.6595 76.4764 55.5342 76.4585 55.4038 76.4585C55.166 76.4585 54.9505 76.5186 54.7574 76.6388C54.5657 76.759 54.4129 76.9361 54.2991 77.1701C54.1865 77.4041 54.1303 77.6911 54.1303 78.0312C54.1303 78.3713 54.1865 78.6584 54.2991 78.8923C54.4129 79.1263 54.5657 79.3034 54.7574 79.4236C54.9505 79.5438 55.166 79.6039 55.4038 79.6039C55.5342 79.6039 55.6595 79.586 55.7797 79.5502C55.8999 79.5144 56.0092 79.4613 56.1077 79.391C56.2074 79.3194 56.2918 79.2318 56.3608 79.1283C56.4311 79.0234 56.4804 78.9032 56.5085 78.7677H56.9841C56.9483 78.9684 56.8831 79.1481 56.7885 79.3066C56.6939 79.4652 56.5763 79.6001 56.4356 79.7113C56.295 79.8213 56.1371 79.905 55.9619 79.9625C55.788 80.0201 55.602 80.0488 55.4038 80.0488C55.0688 80.0488 54.7709 79.967 54.51 79.8034C54.2492 79.6397 54.044 79.407 53.8944 79.1052C53.7448 78.8035 53.67 78.4455 53.67 78.0312C53.67 77.6169 53.7448 77.2589 53.8944 76.9572C54.044 76.6554 54.2492 76.4227 54.51 76.2591C54.7709 76.0954 55.0688 76.0136 55.4038 76.0136C55.602 76.0136 55.788 76.0423 55.9619 76.0999C56.1371 76.1574 56.295 76.2418 56.4356 76.353C56.5763 76.463 56.6939 76.5973 56.7885 76.7558C56.8831 76.9131 56.9483 77.0927 56.9841 77.2947ZM58.8611 80.0565C58.5952 80.0565 58.3618 79.9932 58.1611 79.8666C57.9616 79.7401 57.8056 79.563 57.6931 79.3354C57.5819 79.1078 57.5263 78.8418 57.5263 78.5375C57.5263 78.2307 57.5819 77.9628 57.6931 77.7339C57.8056 77.5051 57.9616 77.3273 58.1611 77.2008C58.3618 77.0742 58.5952 77.0109 58.8611 77.0109C59.1271 77.0109 59.3598 77.0742 59.5593 77.2008C59.76 77.3273 59.916 77.5051 60.0272 77.7339C60.1397 77.9628 60.196 78.2307 60.196 78.5375C60.196 78.8418 60.1397 79.1078 60.0272 79.3354C59.916 79.563 59.76 79.7401 59.5593 79.8666C59.3598 79.9932 59.1271 80.0565 58.8611 80.0565ZM58.8611 79.6499C59.0632 79.6499 59.2294 79.5981 59.3598 79.4946C59.4902 79.391 59.5867 79.2548 59.6494 79.0861C59.712 78.9173 59.7434 78.7344 59.7434 78.5375C59.7434 78.3406 59.712 78.1572 59.6494 77.9871C59.5867 77.817 59.4902 77.6796 59.3598 77.5747C59.2294 77.4699 59.0632 77.4175 58.8611 77.4175C58.6591 77.4175 58.4929 77.4699 58.3625 77.5747C58.2321 77.6796 58.1355 77.817 58.0729 77.9871C58.0102 78.1572 57.9789 78.3406 57.9789 78.5375C57.9789 78.7344 58.0102 78.9173 58.0729 79.0861C58.1355 79.2548 58.2321 79.391 58.3625 79.4946C58.4929 79.5981 58.6591 79.6499 58.8611 79.6499ZM61.3126 78.223V79.9951H60.8599V77.0492H61.2972V77.5095H61.3356C61.4046 77.3599 61.5095 77.2398 61.6501 77.149C61.7907 77.0569 61.9723 77.0109 62.1948 77.0109C62.3943 77.0109 62.5688 77.0518 62.7184 77.1336C62.868 77.2142 62.9843 77.3369 63.0674 77.5019C63.1505 77.6655 63.1921 77.8727 63.1921 78.1233V79.9951H62.7395V78.154C62.7395 77.9225 62.6794 77.7422 62.5592 77.6131C62.439 77.4827 62.2741 77.4175 62.0644 77.4175C61.9199 77.4175 61.7907 77.4488 61.677 77.5115C61.5644 77.5741 61.4756 77.6655 61.4104 77.7857C61.3452 77.9059 61.3126 78.0517 61.3126 78.223ZM64.4448 78.223V79.9951H63.9922V77.0492H64.4295V77.5095H64.4678C64.5369 77.3599 64.6417 77.2398 64.7824 77.149C64.923 77.0569 65.1046 77.0109 65.3271 77.0109C65.5265 77.0109 65.7011 77.0518 65.8507 77.1336C66.0002 77.2142 66.1166 77.3369 66.1997 77.5019C66.2828 77.6655 66.3244 77.8727 66.3244 78.1233V79.9951H65.8717V78.154C65.8717 77.9225 65.8117 77.7422 65.6915 77.6131C65.5713 77.4827 65.4063 77.4175 65.1966 77.4175C65.0522 77.4175 64.923 77.4488 64.8092 77.5115C64.6967 77.5741 64.6078 77.6655 64.5426 77.7857C64.4774 77.9059 64.4448 78.0517 64.4448 78.223ZM68.3596 80.0565C68.0758 80.0565 67.8309 79.9939 67.625 79.8686C67.4205 79.742 67.2626 79.5655 67.1513 79.3392C67.0414 79.1116 66.9864 78.847 66.9864 78.5452C66.9864 78.2435 67.0414 77.9775 67.1513 77.7474C67.2626 77.5159 67.4173 77.3356 67.6155 77.2065C67.8149 77.0761 68.0476 77.0109 68.3136 77.0109C68.467 77.0109 68.6185 77.0365 68.7681 77.0876C68.9177 77.1387 69.0539 77.2219 69.1766 77.3369C69.2994 77.4507 69.3972 77.6016 69.4701 77.7896C69.543 77.9775 69.5794 78.2089 69.5794 78.4838V78.6756H67.3086V78.2844H69.1191C69.1191 78.1182 69.0859 77.9698 69.0194 77.8394C68.9542 77.709 68.8608 77.6061 68.7393 77.5306C68.6192 77.4552 68.4772 77.4175 68.3136 77.4175C68.1333 77.4175 67.9773 77.4622 67.8456 77.5517C67.7152 77.64 67.6148 77.755 67.5445 77.897C67.4742 78.0389 67.439 78.191 67.439 78.3534V78.6143C67.439 78.8367 67.4774 79.0253 67.5541 79.18C67.6321 79.3335 67.7401 79.4505 67.8782 79.531C68.0163 79.6103 68.1768 79.6499 68.3596 79.6499C68.4785 79.6499 68.5859 79.6333 68.6818 79.6001C68.779 79.5655 68.8627 79.5144 68.9331 79.4466C69.0034 79.3776 69.0577 79.2919 69.0961 79.1896L69.5334 79.3124C69.4873 79.4607 69.41 79.5911 69.3013 79.7036C69.1926 79.8149 69.0584 79.9018 68.8985 79.9645C68.7387 80.0258 68.5591 80.0565 68.3596 80.0565ZM71.4377 80.0565C71.1615 80.0565 70.9237 79.9913 70.7242 79.8609C70.5248 79.7305 70.3713 79.5508 70.2639 79.322C70.1565 79.0931 70.1028 78.8316 70.1028 78.5375C70.1028 78.2383 70.1578 77.9743 70.2678 77.7454C70.379 77.5153 70.5337 77.3356 70.7319 77.2065C70.9314 77.0761 71.1641 77.0109 71.43 77.0109C71.6372 77.0109 71.8238 77.0492 71.9901 77.126C72.1563 77.2027 72.2924 77.3101 72.3986 77.4482C72.5047 77.5863 72.5705 77.7474 72.5961 77.9315H72.1435C72.109 77.7972 72.0322 77.6783 71.9133 77.5747C71.7957 77.4699 71.6372 77.4175 71.4377 77.4175C71.2612 77.4175 71.1065 77.4635 70.9736 77.5556C70.8419 77.6463 70.7389 77.7748 70.6648 77.9411C70.5919 78.106 70.5555 78.2997 70.5555 78.5222C70.5555 78.7498 70.5913 78.948 70.6629 79.1167C70.7357 79.2855 70.838 79.4166 70.9697 79.5099C71.1027 79.6033 71.2587 79.6499 71.4377 79.6499C71.5553 79.6499 71.6621 79.6295 71.758 79.5886C71.8539 79.5476 71.9351 79.4888 72.0016 79.4121C72.068 79.3354 72.1154 79.2433 72.1435 79.1359H72.5961C72.5705 79.3098 72.5072 79.4664 72.4062 79.6058C72.3065 79.7439 72.1742 79.8539 72.0092 79.9357C71.8456 80.0162 71.6551 80.0565 71.4377 80.0565ZM74.5119 77.0492V77.4328H72.9853V77.0492H74.5119ZM73.4302 76.3434H73.8829V79.1513C73.8829 79.2791 73.9014 79.375 73.9385 79.439C73.9769 79.5016 74.0254 79.5438 74.0843 79.5655C74.1443 79.586 74.2076 79.5962 74.2741 79.5962C74.324 79.5962 74.3649 79.5937 74.3969 79.5886C74.4288 79.5822 74.4544 79.577 74.4736 79.5732L74.5657 79.9798C74.535 79.9913 74.4921 80.0028 74.4372 80.0143C74.3822 80.0271 74.3125 80.0335 74.2281 80.0335C74.1002 80.0335 73.9749 80.006 73.8522 79.951C73.7307 79.8961 73.6297 79.8123 73.5492 79.6998C73.4699 79.5873 73.4302 79.4453 73.4302 79.274V76.3434Z" fill="#515151"/>
<path fill-rule="evenodd" clip-rule="evenodd" d="M122.297 72.2501C122.643 72.2501 122.924 71.9697 122.924 71.6237C122.924 71.2777 122.643 70.9973 122.297 70.9973C121.951 70.9973 121.671 71.2777 121.671 71.6237C121.671 71.9697 121.951 72.2501 122.297 72.2501Z" fill="#A0AAB8"/>
<path fill-rule="evenodd" clip-rule="evenodd" d="M122.297 74.4426C122.643 74.4426 122.924 74.1622 122.924 73.8162C122.924 73.4702 122.643 73.1898 122.297 73.1898C121.951 73.1898 121.671 73.4702 121.671 73.8162C121.671 74.1622 121.951 74.4426 122.297 74.4426Z" fill="#A0AAB8"/>
<path fill-rule="evenodd" clip-rule="evenodd" d="M122.297 76.6352C122.643 76.6352 122.924 76.3547 122.924 76.0087C122.924 75.6628 122.643 75.3823 122.297 75.3823C121.951 75.3823 121.671 75.6628 121.671 76.0087C121.671 76.3547 121.951 76.6352 122.297 76.6352Z" fill="#A0AAB8"/>
<path d="M53.3052 101.115V96.4018H56.2281V97.014H54.0163V98.4501H56.0186V99.06H54.0163V101.115H53.3052ZM58.0311 101.193C57.8071 101.193 57.6046 101.152 57.4235 101.069C57.2425 100.985 57.099 100.863 56.9931 100.703C56.8888 100.544 56.8366 100.348 56.8366 100.116C56.8366 99.9169 56.875 99.7528 56.9517 99.6239C57.0284 99.495 57.132 99.393 57.2624 99.3178C57.3928 99.2426 57.5386 99.1858 57.6997 99.1475C57.8608 99.1091 58.025 99.0799 58.1922 99.06C58.404 99.0355 58.5758 99.0155 58.7078 99.0002C58.8397 98.9833 58.9356 98.9564 58.9954 98.9196C59.0553 98.8828 59.0852 98.8229 59.0852 98.7401V98.724C59.0852 98.523 59.0284 98.3673 58.9149 98.2568C58.8029 98.1463 58.6356 98.0911 58.4132 98.0911C58.1815 98.0911 57.9989 98.1425 57.8654 98.2453C57.7335 98.3465 57.6422 98.4593 57.5915 98.5836L56.9448 98.4363C57.0215 98.2215 57.1335 98.0481 57.2808 97.9162C57.4297 97.7827 57.6007 97.686 57.7941 97.6262C57.9874 97.5648 58.1907 97.5341 58.404 97.5341C58.5451 97.5341 58.6947 97.551 58.8527 97.5847C59.0123 97.617 59.1611 97.6768 59.2992 97.7643C59.4389 97.8517 59.5532 97.9768 59.6422 98.1394C59.7312 98.3005 59.7756 98.5099 59.7756 98.7677V101.115H59.1036V100.632H59.076C59.0315 100.721 58.9648 100.808 58.8758 100.894C58.7868 100.98 58.6725 101.052 58.5328 101.108C58.3932 101.165 58.226 101.193 58.0311 101.193ZM58.1807 100.641C58.371 100.641 58.5336 100.604 58.6686 100.528C58.8052 100.453 58.9088 100.355 58.9793 100.234C59.0514 100.111 59.0875 99.9798 59.0875 99.8402V99.3845C59.063 99.4091 59.0154 99.4321 58.9448 99.4536C58.8758 99.4735 58.7967 99.4911 58.7078 99.5065C58.6188 99.5203 58.5321 99.5333 58.4477 99.5456C58.3633 99.5564 58.2927 99.5656 58.2359 99.5732C58.1025 99.5901 57.9805 99.6185 57.87 99.6584C57.7611 99.6983 57.6736 99.7558 57.6076 99.831C57.5432 99.9047 57.511 100.003 57.511 100.126C57.511 100.296 57.5739 100.425 57.6997 100.512C57.8255 100.598 57.9859 100.641 58.1807 100.641ZM62.1489 101.187C61.8067 101.187 61.5121 101.109 61.2651 100.954C61.0196 100.798 60.8309 100.582 60.6989 100.307C60.567 100.033 60.501 99.7182 60.501 99.3638C60.501 99.0048 60.5685 98.6879 60.7035 98.4133C60.8386 98.1371 61.0288 97.9215 61.2743 97.7666C61.5198 97.6116 61.809 97.5341 62.142 97.5341C62.4105 97.5341 62.6498 97.584 62.86 97.6837C63.0702 97.7819 63.2398 97.92 63.3687 98.098C63.4991 98.276 63.5766 98.4839 63.6011 98.7217H62.9314C62.8946 98.556 62.8102 98.4133 62.6782 98.2936C62.5478 98.1739 62.3729 98.1141 62.1535 98.1141C61.9617 98.1141 61.7937 98.1647 61.6495 98.266C61.5068 98.3657 61.3955 98.5084 61.3157 98.6941C61.236 98.8782 61.1961 99.0961 61.1961 99.3477C61.1961 99.6055 61.2352 99.8279 61.3134 100.015C61.3917 100.202 61.5022 100.347 61.6448 100.45C61.7891 100.553 61.9586 100.604 62.1535 100.604C62.2839 100.604 62.402 100.581 62.5079 100.533C62.6153 100.484 62.7051 100.414 62.7772 100.324C62.8508 100.233 62.9022 100.124 62.9314 99.9967H63.6011C63.5766 100.225 63.5022 100.429 63.3779 100.609C63.2536 100.788 63.0871 100.93 62.8784 101.032C62.6713 101.135 62.4281 101.187 62.1489 101.187ZM65.8282 101.187C65.4799 101.187 65.1799 101.112 64.9283 100.963C64.6782 100.813 64.4849 100.602 64.3483 100.33C64.2133 100.057 64.1458 99.7374 64.1458 99.3707C64.1458 99.0086 64.2133 98.6895 64.3483 98.4133C64.4849 98.1371 64.6752 97.9215 64.9191 97.7666C65.1646 97.6116 65.4515 97.5341 65.7799 97.5341C65.9793 97.5341 66.1727 97.5671 66.3598 97.6331C66.547 97.6991 66.715 97.8026 66.8639 97.9438C67.0127 98.0849 67.1301 98.2683 67.216 98.4938C67.3019 98.7178 67.3449 98.9902 67.3449 99.3109V99.5548H64.5348V99.0393H66.6705C66.6705 98.8582 66.6337 98.6979 66.5601 98.5583C66.4864 98.4171 66.3829 98.3059 66.2494 98.2246C66.1174 98.1432 65.9625 98.1026 65.7845 98.1026C65.5911 98.1026 65.4224 98.1501 65.2781 98.2453C65.1355 98.3389 65.025 98.4616 64.9467 98.6135C64.87 98.7639 64.8317 98.9273 64.8317 99.1037V99.5065C64.8317 99.7428 64.8731 99.9438 64.9559 100.109C65.0403 100.275 65.1577 100.402 65.3081 100.489C65.4584 100.575 65.6341 100.618 65.8351 100.618C65.9655 100.618 66.0844 100.6 66.1918 100.563C66.2992 100.525 66.3921 100.468 66.4703 100.393C66.5486 100.317 66.6084 100.225 66.6498 100.114L67.3012 100.231C67.249 100.423 67.1554 100.591 67.0204 100.735C66.8869 100.878 66.7189 100.989 66.5163 101.069C66.3153 101.147 66.086 101.187 65.8282 101.187ZM68.1312 101.115V96.4018H68.8194V98.1532H68.8608C68.9007 98.0796 68.9582 97.9944 69.0334 97.8977C69.1086 97.8011 69.2129 97.7167 69.3464 97.6446C69.4799 97.5709 69.6564 97.5341 69.8758 97.5341C70.1611 97.5341 70.4158 97.6062 70.6399 97.7505C70.8639 97.8947 71.0396 98.1026 71.1669 98.3742C71.2958 98.6457 71.3602 98.9725 71.3602 99.3546C71.3602 99.7366 71.2966 100.064 71.1692 100.337C71.0419 100.609 70.8669 100.818 70.6445 100.966C70.422 101.111 70.1681 101.184 69.8827 101.184C69.6679 101.184 69.4922 101.148 69.3556 101.076C69.2206 101.004 69.1147 100.92 69.038 100.823C68.9613 100.726 68.9022 100.64 68.8608 100.565H68.8033V101.115H68.1312ZM68.8056 99.3477C68.8056 99.5963 68.8416 99.8141 68.9137 100.001C68.9859 100.189 69.0902 100.335 69.2267 100.441C69.3633 100.545 69.5305 100.597 69.7285 100.597C69.9341 100.597 70.1059 100.543 70.244 100.434C70.3821 100.324 70.4864 100.174 70.557 99.9852C70.6291 99.7965 70.6652 99.584 70.6652 99.3477C70.6652 99.1145 70.6299 98.905 70.5593 98.7194C70.4903 98.5337 70.3859 98.3872 70.2463 98.2798C70.1082 98.1724 69.9356 98.1187 69.7285 98.1187C69.529 98.1187 69.3602 98.1701 69.2221 98.2729C69.0856 98.3757 68.982 98.5192 68.9114 98.7033C68.8409 98.8874 68.8056 99.1022 68.8056 99.3477ZM73.5896 101.187C73.2582 101.187 72.969 101.111 72.7219 100.959C72.4749 100.807 72.2831 100.594 72.1466 100.321C72.01 100.048 71.9417 99.729 71.9417 99.3638C71.9417 98.9971 72.01 98.6764 72.1466 98.4018C72.2831 98.1271 72.4749 97.9139 72.7219 97.762C72.969 97.6101 73.2582 97.5341 73.5896 97.5341C73.921 97.5341 74.2102 97.6101 74.4573 97.762C74.7043 97.9139 74.8961 98.1271 75.0326 98.4018C75.1692 98.6764 75.2375 98.9971 75.2375 99.3638C75.2375 99.729 75.1692 100.048 75.0326 100.321C74.8961 100.594 74.7043 100.807 74.4573 100.959C74.2102 101.111 73.921 101.187 73.5896 101.187ZM73.5919 100.609C73.8067 100.609 73.9847 100.552 74.1259 100.439C74.267 100.325 74.3714 100.174 74.4389 99.9852C74.5079 99.7965 74.5424 99.5886 74.5424 99.3615C74.5424 99.136 74.5079 98.9288 74.4389 98.7401C74.3714 98.5498 74.267 98.3972 74.1259 98.2821C73.9847 98.167 73.8067 98.1095 73.5919 98.1095C73.3756 98.1095 73.1961 98.167 73.0534 98.2821C72.9122 98.3972 72.8071 98.5498 72.7381 98.7401C72.6705 98.9288 72.6368 99.136 72.6368 99.3615C72.6368 99.5886 72.6705 99.7965 72.7381 99.9852C72.8071 100.174 72.9122 100.325 73.0534 100.439C73.1961 100.552 73.3756 100.609 73.5919 100.609ZM77.4623 101.187C77.1308 101.187 76.8416 101.111 76.5946 100.959C76.3476 100.807 76.1558 100.594 76.0192 100.321C75.8827 100.048 75.8144 99.729 75.8144 99.3638C75.8144 98.9971 75.8827 98.6764 76.0192 98.4018C76.1558 98.1271 76.3476 97.9139 76.5946 97.762C76.8416 97.6101 77.1308 97.5341 77.4623 97.5341C77.7937 97.5341 78.0829 97.6101 78.3299 97.762C78.577 97.9139 78.7687 98.1271 78.9053 98.4018C79.0419 98.6764 79.1101 98.9971 79.1101 99.3638C79.1101 99.729 79.0419 100.048 78.9053 100.321C78.7687 100.594 78.577 100.807 78.3299 100.959C78.0829 101.111 77.7937 101.187 77.4623 101.187ZM77.4646 100.609C77.6794 100.609 77.8574 100.552 77.9985 100.439C78.1397 100.325 78.244 100.174 78.3115 99.9852C78.3806 99.7965 78.4151 99.5886 78.4151 99.3615C78.4151 99.136 78.3806 98.9288 78.3115 98.7401C78.244 98.5498 78.1397 98.3972 77.9985 98.2821C77.8574 98.167 77.6794 98.1095 77.4646 98.1095C77.2482 98.1095 77.0687 98.167 76.926 98.2821C76.7849 98.3972 76.6798 98.5498 76.6107 98.7401C76.5432 98.9288 76.5094 99.136 76.5094 99.3615C76.5094 99.5886 76.5432 99.7965 76.6107 99.9852C76.6798 100.174 76.7849 100.325 76.926 100.439C77.0687 100.552 77.2482 100.609 77.4646 100.609ZM80.4788 99.9162L80.4742 99.0761H80.5938L82.0023 97.5801H82.8263L81.2198 99.2832H81.1117L80.4788 99.9162ZM79.8458 101.115V96.4018H80.534V101.115H79.8458ZM82.0783 101.115L80.8125 99.4351L81.2866 98.9541L82.9229 101.115H82.0783Z" fill="black"/>
<path d="M56.4237 107.364H55.9481C55.9199 107.227 55.8707 107.107 55.8004 107.004C55.7313 106.9 55.647 106.813 55.5472 106.743C55.4488 106.671 55.3395 106.617 55.2193 106.582C55.0991 106.546 54.9738 106.528 54.8434 106.528C54.6055 106.528 54.3901 106.588 54.197 106.708C54.0052 106.828 53.8524 107.006 53.7386 107.239C53.6261 107.473 53.5699 107.761 53.5699 108.101C53.5699 108.441 53.6261 108.728 53.7386 108.962C53.8524 109.196 54.0052 109.373 54.197 109.493C54.3901 109.613 54.6055 109.673 54.8434 109.673C54.9738 109.673 55.0991 109.655 55.2193 109.62C55.3395 109.584 55.4488 109.531 55.5472 109.46C55.647 109.389 55.7313 109.301 55.8004 109.198C55.8707 109.093 55.9199 108.973 55.9481 108.837H56.4237C56.3879 109.038 56.3227 109.217 56.2281 109.376C56.1335 109.535 56.0158 109.669 55.8752 109.781C55.7345 109.891 55.5766 109.974 55.4015 110.032C55.2276 110.09 55.0415 110.118 54.8434 110.118C54.5084 110.118 54.2104 110.036 53.9496 109.873C53.6888 109.709 53.4836 109.476 53.334 109.175C53.1844 108.873 53.1096 108.515 53.1096 108.101C53.1096 107.686 53.1844 107.328 53.334 107.027C53.4836 106.725 53.6888 106.492 53.9496 106.328C54.2104 106.165 54.5084 106.083 54.8434 106.083C55.0415 106.083 55.2276 106.112 55.4015 106.169C55.5766 106.227 55.7345 106.311 55.8752 106.422C56.0158 106.532 56.1335 106.667 56.2281 106.825C56.3227 106.982 56.3879 107.162 56.4237 107.364ZM58.3007 110.126C58.0348 110.126 57.8014 110.063 57.6007 109.936C57.4012 109.809 57.2452 109.632 57.1327 109.405C57.0215 109.177 56.9658 108.911 56.9658 108.607C56.9658 108.3 57.0215 108.032 57.1327 107.803C57.2452 107.574 57.4012 107.397 57.6007 107.27C57.8014 107.144 58.0348 107.08 58.3007 107.08C58.5667 107.08 58.7994 107.144 58.9988 107.27C59.1996 107.397 59.3556 107.574 59.4668 107.803C59.5793 108.032 59.6356 108.3 59.6356 108.607C59.6356 108.911 59.5793 109.177 59.4668 109.405C59.3556 109.632 59.1996 109.809 58.9988 109.936C58.7994 110.063 58.5667 110.126 58.3007 110.126ZM58.3007 109.719C58.5027 109.719 58.6689 109.668 58.7994 109.564C58.9298 109.46 59.0263 109.324 59.089 109.155C59.1516 108.987 59.1829 108.804 59.1829 108.607C59.1829 108.41 59.1516 108.227 59.089 108.057C59.0263 107.886 58.9298 107.749 58.7994 107.644C58.6689 107.539 58.5027 107.487 58.3007 107.487C58.0987 107.487 57.9325 107.539 57.8021 107.644C57.6716 107.749 57.5751 107.886 57.5124 108.057C57.4498 108.227 57.4185 108.41 57.4185 108.607C57.4185 108.804 57.4498 108.987 57.5124 109.155C57.5751 109.324 57.6716 109.46 57.8021 109.564C57.9325 109.668 58.0987 109.719 58.3007 109.719ZM60.7521 108.292V110.065H60.2995V107.119H60.7368V107.579H60.7751C60.8442 107.429 60.949 107.309 61.0897 107.218C61.2303 107.126 61.4119 107.08 61.6344 107.08C61.8338 107.08 62.0084 107.121 62.158 107.203C62.3076 107.284 62.4239 107.406 62.507 107.571C62.5901 107.735 62.6317 107.942 62.6317 108.193V110.065H62.1791V108.223C62.1791 107.992 62.119 107.812 61.9988 107.683C61.8786 107.552 61.7136 107.487 61.5039 107.487C61.3595 107.487 61.2303 107.518 61.1165 107.581C61.004 107.644 60.9151 107.735 60.8499 107.855C60.7847 107.975 60.7521 108.121 60.7521 108.292ZM63.8844 108.292V110.065H63.4318V107.119H63.8691V107.579H63.9074C63.9765 107.429 64.0813 107.309 64.222 107.218C64.3626 107.126 64.5442 107.08 64.7666 107.08C64.9661 107.08 65.1406 107.121 65.2902 107.203C65.4398 107.284 65.5562 107.406 65.6393 107.571C65.7224 107.735 65.7639 107.942 65.7639 108.193V110.065H65.3113V108.223C65.3113 107.992 65.2512 107.812 65.131 107.683C65.0109 107.552 64.8459 107.487 64.6362 107.487C64.4917 107.487 64.3626 107.518 64.2488 107.581C64.1363 107.644 64.0474 107.735 63.9822 107.855C63.917 107.975 63.8844 108.121 63.8844 108.292ZM67.7992 110.126C67.5153 110.126 67.2705 110.063 67.0646 109.938C66.86 109.811 66.7021 109.635 66.5909 109.409C66.4809 109.181 66.426 108.916 66.426 108.615C66.426 108.313 66.4809 108.047 66.5909 107.817C66.7021 107.585 66.8568 107.405 67.055 107.276C67.2545 107.146 67.4872 107.08 67.7531 107.08C67.9066 107.08 68.0581 107.106 68.2077 107.157C68.3573 107.208 68.4935 107.291 68.6162 107.406C68.739 107.52 68.8368 107.671 68.9096 107.859C68.9825 108.047 69.019 108.278 69.019 108.553V108.745H66.7482V108.354H68.5587C68.5587 108.188 68.5254 108.039 68.4589 107.909C68.3937 107.778 68.3004 107.675 68.1789 107.6C68.0587 107.525 67.9168 107.487 67.7531 107.487C67.5729 107.487 67.4169 107.532 67.2852 107.621C67.1548 107.709 67.0544 107.824 66.9841 107.966C66.9137 108.108 66.8786 108.26 66.8786 108.423V108.684C66.8786 108.906 66.9169 109.095 66.9937 109.249C67.0717 109.403 67.1797 109.52 67.3178 109.6C67.4559 109.68 67.6163 109.719 67.7992 109.719C67.9181 109.719 68.0255 109.703 68.1214 109.669C68.2186 109.635 68.3023 109.584 68.3726 109.516C68.443 109.447 68.4973 109.361 68.5357 109.259L68.9729 109.382C68.9269 109.53 68.8496 109.661 68.7409 109.773C68.6322 109.884 68.4979 109.971 68.3381 110.034C68.1783 110.095 67.9986 110.126 67.7992 110.126ZM70.8773 110.126C70.6011 110.126 70.3633 110.061 70.1638 109.93C69.9643 109.8 69.8109 109.62 69.7035 109.391C69.5961 109.163 69.5424 108.901 69.5424 108.607C69.5424 108.308 69.5974 108.044 69.7073 107.815C69.8186 107.585 69.9733 107.405 70.1715 107.276C70.3709 107.146 70.6036 107.08 70.8696 107.08C71.0767 107.08 71.2634 107.119 71.4296 107.195C71.5958 107.272 71.732 107.38 71.8381 107.518C71.9443 107.656 72.0101 107.817 72.0357 108.001H71.5831C71.5485 107.867 71.4718 107.748 71.3529 107.644C71.2353 107.539 71.0767 107.487 70.8773 107.487C70.7008 107.487 70.5461 107.533 70.4131 107.625C70.2814 107.716 70.1785 107.844 70.1044 108.01C70.0315 108.175 69.995 108.369 69.995 108.592C69.995 108.819 70.0308 109.017 70.1024 109.186C70.1753 109.355 70.2776 109.486 70.4093 109.579C70.5423 109.673 70.6983 109.719 70.8773 109.719C70.9949 109.719 71.1017 109.699 71.1976 109.658C71.2935 109.617 71.3746 109.558 71.4411 109.482C71.5076 109.405 71.5549 109.313 71.5831 109.205H72.0357C72.0101 109.379 71.9468 109.536 71.8458 109.675C71.7461 109.813 71.6137 109.923 71.4488 110.005C71.2851 110.086 71.0946 110.126 70.8773 110.126ZM73.9515 107.119V107.502H72.4249V107.119H73.9515ZM72.8698 106.413H73.3224V109.221C73.3224 109.349 73.341 109.444 73.3781 109.508C73.4164 109.571 73.465 109.613 73.5238 109.635C73.5839 109.655 73.6472 109.666 73.7137 109.666C73.7636 109.666 73.8045 109.663 73.8364 109.658C73.8684 109.652 73.894 109.646 73.9132 109.643L74.0052 110.049C73.9745 110.061 73.9317 110.072 73.8767 110.084C73.8217 110.097 73.7521 110.103 73.6677 110.103C73.5398 110.103 73.4145 110.075 73.2918 110.02C73.1703 109.965 73.0693 109.882 72.9887 109.769C72.9095 109.657 72.8698 109.515 72.8698 109.343V106.413Z" fill="#515151"/>
<g clip-path="url(#clip0_605_5432)">
<path d="M44.9181 103.069C44.9181 99.368 41.9182 96.3681 38.2175 96.3681C34.5169 96.3681 31.517 99.368 31.517 103.069C31.517 106.413 33.9673 109.185 37.1706 109.688V105.006H35.4693V103.069H37.1706V101.592C37.1706 99.9131 38.171 98.9855 39.7015 98.9855C40.4344 98.9855 41.2014 99.1164 41.2014 99.1164V100.765H40.3565C39.5242 100.765 39.2645 101.282 39.2645 101.812V103.069H41.1229L40.8258 105.006H39.2645V109.688C42.4678 109.185 44.9181 106.413 44.9181 103.069Z" fill="#1877F2"/>
<path d="M40.8258 105.006L41.1228 103.069H39.2645V101.812C39.2645 101.282 39.5241 100.765 40.3565 100.765H41.2014V99.1164C41.2014 99.1164 40.4346 98.9855 39.7015 98.9855C38.1709 98.9855 37.1706 99.9131 37.1706 101.592V103.069H35.4692V105.006H37.1706V109.688C37.8643 109.796 38.5707 109.796 39.2645 109.688V105.006H40.8258Z" fill="white"/>
</g>
<path fill-rule="evenodd" clip-rule="evenodd" d="M121.736 101.066C122.082 101.066 122.363 100.786 122.363 100.44C122.363 100.094 122.082 99.8136 121.736 99.8136C121.39 99.8136 121.11 100.094 121.11 100.44C121.11 100.786 121.39 101.066 121.736 101.066Z" fill="#A0AAB8"/>
<path fill-rule="evenodd" clip-rule="evenodd" d="M121.736 103.259C122.082 103.259 122.363 102.978 122.363 102.633C122.363 102.287 122.082 102.006 121.736 102.006C121.39 102.006 121.11 102.287 121.11 102.633C121.11 102.978 121.39 103.259 121.736 103.259Z" fill="#A0AAB8"/>
<path fill-rule="evenodd" clip-rule="evenodd" d="M121.736 105.451C122.082 105.451 122.363 105.171 122.363 104.825C122.363 104.479 122.082 104.199 121.736 104.199C121.39 104.199 121.11 104.479 121.11 104.825C121.11 105.171 121.39 105.451 121.736 105.451Z" fill="#A0AAB8"/>
<path d="M36.2562 54.948C36.2562 56.2563 35.195 57.3174 33.8867 57.3174C32.5785 57.3174 31.5173 56.2563 31.5173 54.948C31.5173 53.6388 32.5785 52.5786 33.8867 52.5786C35.195 52.5786 36.2562 53.6388 36.2562 54.948Z" fill="#EB5757"/>
<path d="M43.49 54.948C43.49 56.2563 42.4298 57.3174 41.1206 57.3174C39.8123 57.3174 38.7512 56.2563 38.7512 54.948C38.7512 53.6388 39.8123 52.5786 41.1206 52.5786C42.4298 52.5786 43.49 53.6388 43.49 54.948Z" fill="#F2C94C"/>
<path d="M50.5911 54.948C50.5911 56.2563 49.5309 57.3174 48.2217 57.3174C46.9134 57.3174 45.8523 56.2563 45.8523 54.948C45.8523 53.6388 46.9134 52.5786 48.2217 52.5786C49.5309 52.5786 50.5911 53.6388 50.5911 54.948Z" fill="#27AE60"/>
<rect opacity="0.2" x="55.9404" y="53.8005" width="72.0481" height="2.44231" rx="1.22115" fill="#C3D1EB"/>
</g>
<defs>
<filter id="filter0_d_605_5432" x="-24.9311" y="0.961987" width="206.862" height="174.288" filterUnits="userSpaceOnUse" color-interpolation-filters="sRGB">
<feFlood flood-opacity="0" result="BackgroundImageFix"/>
<feColorMatrix in="SourceAlpha" type="matrix" values="0 0 0 0 0 0 0 0 0 0 0 0 0 0 0 0 0 0 127 0" result="hardAlpha"/>
<feOffset dy="4.89311"/>
<feGaussianBlur stdDeviation="24.4656"/>
<feComposite in2="hardAlpha" operator="out"/>
<feColorMatrix type="matrix" values="0 0 0 0 0.0582469 0 0 0 0 0.0855965 0 0 0 0 0.229182 0 0 0 0.1 0"/>
<feBlend mode="normal" in2="BackgroundImageFix" result="effect1_dropShadow_605_5432"/>
<feBlend mode="normal" in="SourceGraphic" in2="effect1_dropShadow_605_5432" result="shape"/>
</filter>
<linearGradient id="paint0_linear_605_5432" x1="38.2197" y1="66.2988" x2="38.2197" y2="79.6051" gradientUnits="userSpaceOnUse">
<stop stop-color="#2AABEE"/>
<stop offset="1" stop-color="#229ED9"/>
</linearGradient>
<clipPath id="clip0_605_5432">
<rect width="13.4011" height="13.4011" fill="white" transform="translate(31.5168 96.368)"/>
</clipPath>
</defs>
</svg>
