<svg width="188" height="379" viewBox="0 0 188 379" fill="none" xmlns="http://www.w3.org/2000/svg">
<rect x="6.19302" y="4.86631" width="175.614" height="368.922" rx="22.56" stroke="#AFAFAF" stroke-width="9.73176"/>
<path d="M186.673 86.2589H187.337C187.703 86.2589 188 86.556 188 86.9225V128.061C188 128.428 187.703 128.725 187.337 128.725H186.673V86.2589Z" fill="#AFAFAF"/>
<path d="M1.32703 77.8549H0.663497C0.29704 77.8549 -3.24249e-05 78.1519 -3.24249e-05 78.5184V102.848C-3.24249e-05 103.214 0.29704 103.511 0.663497 103.511H1.32703V77.8549Z" fill="#AFAFAF"/>
<path d="M1.32703 111.916H0.663497C0.29704 111.916 -3.24249e-05 112.213 -3.24249e-05 112.58V136.909C-3.24249e-05 137.276 0.29704 137.573 0.663497 137.573H1.32703V111.916Z" fill="#AFAFAF"/>
<path d="M1.32703 50.871H0.663497C0.29704 50.871 -3.24249e-05 51.168 -3.24249e-05 51.5345V63.0357C-3.24249e-05 63.4021 0.29704 63.6992 0.663497 63.6992H1.32703V50.871Z" fill="#AFAFAF"/>
<g clip-path="url(#clip0_610_5725)">
<rect x="11.0589" y="9.7321" width="165.882" height="359.191" rx="17.6941" fill="#1E1E20"/>
<g clip-path="url(#clip1_610_5725)">
<rect width="165.882" height="359.191" transform="translate(11.059 9.73227)" fill="#1E1E20"/>
<g clip-path="url(#clip2_610_5725)">
<rect width="165.882" height="359.191" transform="translate(10.6166 9.73244)" fill="white"/>
<g clip-path="url(#clip3_610_5725)">
<rect width="165.882" height="359.191" transform="translate(10.6167 9.7326)" fill="white"/>
<rect width="165.882" height="19.4635" transform="translate(10.6168 9.73277)" fill="white"/>
<rect opacity="0.35" x="159.616" y="17.6214" width="9.28941" height="4.57098" rx="0.958431" stroke="#292A2E" stroke-width="0.442353"/>
<path opacity="0.4" d="M169.569 19.0222V20.7916C169.925 20.6417 170.156 20.2931 170.156 19.9069C170.156 19.5207 169.925 19.172 169.569 19.0222Z" fill="#292A2E"/>
<rect x="160.279" y="18.2849" width="7.96235" height="3.24392" rx="0.589804" fill="#292A2E"/>
<path fill-rule="evenodd" clip-rule="evenodd" d="M153.792 18.4096C154.776 18.4096 155.722 18.7875 156.436 19.465C156.489 19.5173 156.575 19.5166 156.628 19.4635L157.142 18.9458C157.168 18.9188 157.183 18.8823 157.183 18.8444C157.183 18.8064 157.167 18.7701 157.14 18.7434C155.268 16.9509 152.315 16.9509 150.443 18.7434C150.416 18.77 150.401 18.8064 150.4 18.8443C150.4 18.8823 150.415 18.9188 150.442 18.9458L150.955 19.4635C151.008 19.5167 151.094 19.5173 151.148 19.465C151.861 18.7874 152.808 18.4096 153.792 18.4096ZM153.792 20.0939C154.333 20.0939 154.854 20.2947 155.255 20.6573C155.309 20.7088 155.394 20.7076 155.447 20.6548L155.96 20.1371C155.987 20.1099 156.002 20.0731 156.002 20.0348C156.001 19.9965 155.985 19.96 155.958 19.9334C154.737 18.799 152.847 18.799 151.627 19.9334C151.599 19.96 151.583 19.9965 151.583 20.0348C151.583 20.0731 151.598 20.11 151.625 20.1371L152.137 20.6548C152.19 20.7076 152.276 20.7088 152.33 20.6573C152.73 20.2949 153.251 20.0941 153.792 20.0939ZM154.819 21.2271C154.82 21.2655 154.805 21.3025 154.777 21.3294L153.89 22.2238C153.864 22.2501 153.829 22.2649 153.792 22.2649C153.755 22.2649 153.719 22.2501 153.693 22.2238L152.806 21.3294C152.779 21.3025 152.764 21.2655 152.765 21.2271C152.765 21.1887 152.782 21.1524 152.81 21.1266C153.377 20.6479 154.207 20.6479 154.773 21.1266C154.802 21.1524 154.818 21.1887 154.819 21.2271Z" fill="#292A2E"/>
<path fill-rule="evenodd" clip-rule="evenodd" d="M147.746 17.5477H147.304C147.06 17.5477 146.861 17.7457 146.861 17.99V21.8237C146.861 22.0681 147.06 22.2661 147.304 22.2661H147.746C147.99 22.2661 148.189 22.0681 148.189 21.8237V17.99C148.189 17.7457 147.99 17.5477 147.746 17.5477ZM145.24 18.5798H145.682C145.926 18.5798 146.124 18.7779 146.124 19.0222V21.8237C146.124 22.068 145.926 22.2661 145.682 22.2661H145.24C144.995 22.2661 144.797 22.068 144.797 21.8237V19.0222C144.797 18.7779 144.995 18.5798 145.24 18.5798ZM143.618 19.612H143.175C142.931 19.612 142.733 19.81 142.733 20.0543V21.8237C142.733 22.0681 142.931 22.2661 143.175 22.2661H143.618C143.862 22.2661 144.06 22.0681 144.06 21.8237V20.0543C144.06 19.81 143.862 19.612 143.618 19.612ZM141.553 20.4967H141.111C140.867 20.4967 140.669 20.6947 140.669 20.939V21.8237C140.669 22.0681 140.867 22.2661 141.111 22.2661H141.553C141.798 22.2661 141.996 22.0681 141.996 21.8237V20.939C141.996 20.6947 141.798 20.4967 141.553 20.4967Z" fill="#292A2E"/>
<path d="M27.0552 17.6916C26.0411 17.6916 25.3186 18.3849 25.3186 19.3342V19.3407C25.3186 20.2284 25.9471 20.8829 26.8446 20.8829C27.4861 20.8829 27.8943 20.5556 28.066 20.1863H28.1308C28.1308 20.2219 28.1276 20.2576 28.1276 20.2932C28.0919 21.1874 27.7777 21.9131 27.0357 21.9131C26.6243 21.9131 26.3359 21.6993 26.2128 21.3721L26.2031 21.3397H25.3802L25.3866 21.3753C25.5357 22.0913 26.1772 22.6 27.0357 22.6C28.2118 22.6 28.9214 21.6669 28.9214 20.0923V20.0858C28.9214 18.4011 28.0531 17.6916 27.0552 17.6916ZM27.0519 20.2414C26.5206 20.2414 26.135 19.8526 26.135 19.3115V19.305C26.135 18.7834 26.5465 18.3719 27.0617 18.3719C27.58 18.3719 27.985 18.7899 27.985 19.3245V19.331C27.985 19.8591 27.58 20.2414 27.0519 20.2414ZM30.3185 20.1409C30.6166 20.1409 30.8336 19.9174 30.8336 19.6323C30.8336 19.3439 30.6166 19.1204 30.3185 19.1204C30.0237 19.1204 29.8034 19.3439 29.8034 19.6323C29.8034 19.9174 30.0237 20.1409 30.3185 20.1409ZM30.3185 22.5482C30.6166 22.5482 30.8336 22.3214 30.8336 22.0363C30.8336 21.7479 30.6166 21.5244 30.3185 21.5244C30.0237 21.5244 29.8034 21.7479 29.8034 22.0363C29.8034 22.3214 30.0237 22.5482 30.3185 22.5482ZM33.8864 22.4834H34.6866V21.5859H35.3152V20.8958H34.6866V17.8082H33.5041C32.869 18.7737 32.2049 19.8493 31.599 20.9023V21.5859H33.8864V22.4834ZM32.3766 20.9153V20.8667C32.8302 20.0729 33.3712 19.2078 33.8507 18.4756H33.8993V20.9153H32.3766ZM37.1464 22.4834H37.9823V17.8082H37.1497L35.9282 18.6668V19.4541L37.0914 18.6311H37.1464V22.4834Z" fill="#292A2E"/>
<path d="M160.353 45.5633C162.674 45.5633 164.556 43.6819 164.556 41.361C164.556 39.0401 162.674 37.1586 160.353 37.1586C158.032 37.1586 156.151 39.0401 156.151 41.361C156.151 43.6819 158.032 45.5633 160.353 45.5633Z" stroke="#1D3066" stroke-width="0.663529" stroke-linecap="round" stroke-linejoin="round"/>
<path d="M164.998 46.0057L164.113 45.121" stroke="#1D3066" stroke-width="0.663529" stroke-linecap="round" stroke-linejoin="round"/>
<path d="M84.4763 44.7167H85.4793V39.1065H84.4763V44.7167ZM86.3697 44.7167H87.3377V42.3257C87.3377 41.7308 87.6915 41.3265 88.2475 41.3265C88.7996 41.3265 89.0717 41.657 89.0717 42.244V44.7167H90.0398V42.0496C90.0398 41.0932 89.5227 40.51 88.6168 40.51C87.9909 40.51 87.571 40.7977 87.3572 41.241H87.3377V40.5956H86.3697V44.7167ZM93.119 44.7984C94.1609 44.7984 94.8219 43.9819 94.8219 42.6561V42.6522C94.8219 41.3226 94.1571 40.51 93.1229 40.51C92.5397 40.51 92.0693 40.8094 91.836 41.3032H91.8127V39.1065H90.8446V44.7167H91.8127V44.0169H91.836C92.0693 44.5029 92.5242 44.7984 93.119 44.7984ZM92.8274 43.9819C92.2287 43.9819 91.8127 43.4648 91.8127 42.6561V42.6522C91.8127 41.8475 92.2326 41.3265 92.8274 41.3265C93.4456 41.3265 93.8344 41.8319 93.8344 42.6522V42.6561C93.8344 43.4765 93.4495 43.9819 92.8274 43.9819ZM97.2674 44.7984C98.4765 44.7984 99.2618 43.9936 99.2618 42.6561V42.6484C99.2618 41.3187 98.4648 40.51 97.2635 40.51C96.066 40.51 95.2729 41.3265 95.2729 42.6484V42.6561C95.2729 43.9897 96.0543 44.7984 97.2674 44.7984ZM97.2712 44.0169C96.6531 44.0169 96.2604 43.5231 96.2604 42.6561V42.6484C96.2604 41.793 96.6608 41.2954 97.2635 41.2954C97.8777 41.2954 98.2743 41.7891 98.2743 42.6484V42.6561C98.2743 43.5192 97.8816 44.0169 97.2712 44.0169ZM99.2968 44.7167H100.331L101.182 43.2393H101.206L102.061 44.7167H103.119L101.804 42.6328L103.13 40.5956H102.073L101.252 42.0419H101.229L100.401 40.5956H99.3124L100.63 42.66L99.2968 44.7167Z" fill="#1B1C1F"/>
<path d="M28.0897 44.6786L24.9932 41.5822L28.0897 38.4857" stroke="#130F26" stroke-width="0.663529" stroke-linecap="round" stroke-linejoin="round"/>
<g clip-path="url(#clip4_610_5725)" filter="url(#filter0_d_610_5725)">
<rect width="165.882" height="38.9271" transform="translate(10.6168 329.996)" fill="white"/>
<rect x="63.9792" y="363.133" width="59.2753" height="2.21176" rx="1.10588" fill="#292A2E"/>
<path d="M25.2741 348.917V347.565C25.2741 347.219 25.5561 346.939 25.9039 346.939H27.1753C27.3423 346.939 27.5025 347.005 27.6206 347.122C27.7387 347.24 27.8051 347.399 27.8051 347.565V348.917C27.804 349.061 27.8607 349.199 27.9626 349.301C28.0645 349.402 28.2031 349.46 28.3477 349.46H29.2151C29.6202 349.461 30.0091 349.302 30.2959 349.018C30.5827 348.734 30.7439 348.348 30.7439 347.946V344.093C30.7439 343.768 30.5989 343.46 30.3479 343.251L27.3971 340.912C26.8838 340.501 26.1484 340.515 25.6504 340.943L22.767 343.251C22.5041 343.453 22.347 343.763 22.3392 344.093V347.942C22.3392 348.78 23.0237 349.46 23.8681 349.46H24.7157C25.016 349.46 25.2601 349.219 25.2623 348.921L25.2741 348.917Z" fill="#A0AAB8"/>
<path d="M64.2743 345.138H62.7349C62.3014 345.138 61.9165 345.377 61.7219 345.766L61.3503 346.5C61.2619 346.677 61.0849 346.788 60.8903 346.788H59.4394C59.3022 346.788 59.1076 346.757 58.9793 346.5L58.6077 345.771C58.4131 345.386 58.0238 345.142 57.5948 345.142H56.0465C55.874 345.142 55.7369 345.28 55.7369 345.452V346.894C55.7369 348.5 56.7012 349.46 58.3114 349.46H62.0183C63.5356 349.46 64.4689 348.628 64.5839 347.151V345.448C64.5839 345.28 64.4468 345.138 64.2743 345.138Z" fill="#24A19C"/>
<path d="M60.4921 340.613C60.4921 340.431 60.3417 340.281 60.1604 340.281C59.979 340.281 59.8286 340.431 59.8286 340.613V341.497H60.4921V340.613Z" fill="#24A19C"/>
<path d="M64.5839 344.067V344.528C64.4866 344.492 64.3805 344.474 64.2743 344.474H62.7349C62.0493 344.474 61.4344 344.855 61.1292 345.465L60.7974 346.12H59.5323L59.2005 345.47C58.8953 344.855 58.2804 344.474 57.5948 344.474H56.0465C55.9404 344.474 55.8342 344.492 55.7369 344.528V344.067C55.7369 342.457 56.6968 341.497 58.3069 341.497H59.8286V342.909L59.5101 342.59C59.3819 342.462 59.1695 342.462 59.0413 342.59C58.913 342.718 58.913 342.931 59.0413 343.059L59.926 343.944C59.9304 343.948 59.9348 343.948 59.9348 343.952C59.9658 343.979 59.9967 344.001 60.0321 344.014C60.0764 344.032 60.1162 344.041 60.1604 344.041C60.2046 344.041 60.2445 344.032 60.2843 344.014C60.3241 344.001 60.3639 343.975 60.3949 343.944L61.2796 343.059C61.4078 342.931 61.4078 342.718 61.2796 342.59C61.1513 342.462 60.9389 342.462 60.8107 342.59L60.4922 342.909V341.497H62.0139C63.624 341.497 64.5839 342.457 64.5839 344.067Z" fill="#24A19C"/>
<path d="M95.8804 341.303V340.613C95.8804 340.431 95.73 340.281 95.5486 340.281C95.3672 340.281 95.2168 340.431 95.2168 340.613V341.276H92.3415V340.613C92.3415 340.431 92.1911 340.281 92.0098 340.281C91.8284 340.281 91.678 340.431 91.678 340.613V341.303C90.4837 341.413 89.9042 342.126 89.8157 343.183C89.8069 343.311 89.913 343.417 90.0369 343.417H97.5215C97.6498 343.417 97.7559 343.307 97.7427 343.183C97.6542 342.126 97.0747 341.413 95.8804 341.303Z" fill="#A0AAB8"/>
<path d="M97.318 344.081H90.2404C89.9971 344.081 89.798 344.28 89.798 344.523V347.248C89.798 348.575 90.4616 349.46 92.0098 349.46H95.5486C97.0969 349.46 97.7604 348.575 97.7604 347.248V344.523C97.7604 344.28 97.5613 344.081 97.318 344.081ZM92.545 347.783C92.5229 347.801 92.5008 347.823 92.4787 347.836C92.4522 347.854 92.4256 347.867 92.3991 347.876C92.3725 347.889 92.346 347.898 92.3194 347.903C92.2885 347.907 92.2619 347.912 92.231 347.912C92.1735 347.912 92.116 347.898 92.0629 347.876C92.0054 347.854 91.9611 347.823 91.9169 347.783C91.8373 347.699 91.7886 347.584 91.7886 347.469C91.7886 347.354 91.8373 347.239 91.9169 347.155C91.9611 347.115 92.0054 347.084 92.0629 347.062C92.1425 347.027 92.231 347.018 92.3194 347.036C92.346 347.04 92.3725 347.049 92.3991 347.062C92.4256 347.071 92.4522 347.084 92.4787 347.102C92.5008 347.12 92.5229 347.137 92.545 347.155C92.6247 347.239 92.6733 347.354 92.6733 347.469C92.6733 347.584 92.6247 347.699 92.545 347.783ZM92.545 346.235C92.461 346.315 92.346 346.363 92.231 346.363C92.116 346.363 92.001 346.315 91.9169 346.235C91.8373 346.151 91.7886 346.036 91.7886 345.921C91.7886 345.806 91.8373 345.691 91.9169 345.607C92.0408 345.483 92.2354 345.443 92.3991 345.514C92.4566 345.536 92.5052 345.567 92.545 345.607C92.6247 345.691 92.6733 345.806 92.6733 345.921C92.6733 346.036 92.6247 346.151 92.545 346.235ZM94.0933 347.783C94.0092 347.863 93.8942 347.912 93.7792 347.912C93.6642 347.912 93.5492 347.863 93.4651 347.783C93.3855 347.699 93.3369 347.584 93.3369 347.469C93.3369 347.354 93.3855 347.239 93.4651 347.155C93.6288 346.991 93.9296 346.991 94.0933 347.155C94.1729 347.239 94.2216 347.354 94.2216 347.469C94.2216 347.584 94.1729 347.699 94.0933 347.783ZM94.0933 346.235C94.0712 346.253 94.049 346.27 94.0269 346.288C94.0004 346.306 93.9738 346.319 93.9473 346.328C93.9208 346.341 93.8942 346.35 93.8677 346.354C93.8367 346.359 93.8102 346.363 93.7792 346.363C93.6642 346.363 93.5492 346.315 93.4651 346.235C93.3855 346.151 93.3369 346.036 93.3369 345.921C93.3369 345.806 93.3855 345.691 93.4651 345.607C93.505 345.567 93.5536 345.536 93.6111 345.514C93.7748 345.443 93.9694 345.483 94.0933 345.607C94.1729 345.691 94.2216 345.806 94.2216 345.921C94.2216 346.036 94.1729 346.151 94.0933 346.235ZM95.6415 347.783C95.5575 347.863 95.4425 347.912 95.3274 347.912C95.2124 347.912 95.0974 347.863 95.0134 347.783C94.9338 347.699 94.8851 347.584 94.8851 347.469C94.8851 347.354 94.9338 347.239 95.0134 347.155C95.177 346.991 95.4778 346.991 95.6415 347.155C95.7211 347.239 95.7698 347.354 95.7698 347.469C95.7698 347.584 95.7211 347.699 95.6415 347.783ZM95.6415 346.235C95.6194 346.253 95.5973 346.27 95.5752 346.288C95.5486 346.306 95.5221 346.319 95.4955 346.328C95.469 346.341 95.4425 346.35 95.4159 346.354C95.385 346.359 95.354 346.363 95.3274 346.363C95.2124 346.363 95.0974 346.315 95.0134 346.235C94.9338 346.151 94.8851 346.036 94.8851 345.921C94.8851 345.806 94.9338 345.691 95.0134 345.607C95.0576 345.567 95.1018 345.536 95.1594 345.514C95.239 345.479 95.3274 345.47 95.4159 345.487C95.4425 345.492 95.469 345.501 95.4955 345.514C95.5221 345.523 95.5486 345.536 95.5752 345.554C95.5973 345.571 95.6194 345.589 95.6415 345.607C95.7211 345.691 95.7698 345.806 95.7698 345.921C95.7698 346.036 95.7211 346.151 95.6415 346.235Z" fill="#A0AAB8"/>
<path fill-rule="evenodd" clip-rule="evenodd" d="M124.098 340.613H125.593C126.217 340.613 126.717 341.121 126.717 341.746V343.254C126.717 343.882 126.217 344.386 125.593 344.386H124.098C123.479 344.386 122.974 343.882 122.974 343.254V341.746C122.974 341.121 123.479 340.613 124.098 340.613ZM124.098 345.686H125.593C126.217 345.686 126.717 346.191 126.717 346.819V348.327C126.717 348.951 126.217 349.46 125.593 349.46H124.098C123.479 349.46 122.974 348.951 122.974 348.327V346.819C122.974 346.191 123.479 345.686 124.098 345.686ZM130.698 340.613H129.203C128.579 340.613 128.079 341.121 128.079 341.746V343.254C128.079 343.882 128.579 344.386 129.203 344.386H130.698C131.317 344.386 131.822 343.882 131.822 343.254V341.746C131.822 341.121 131.317 340.613 130.698 340.613ZM129.203 345.686H130.698C131.317 345.686 131.822 346.191 131.822 346.819V348.327C131.822 348.951 131.317 349.46 130.698 349.46H129.203C128.579 349.46 128.079 348.951 128.079 348.327V346.819C128.079 346.191 128.579 345.686 129.203 345.686Z" fill="#A0AAB8"/>
<path fill-rule="evenodd" clip-rule="evenodd" d="M161.26 345.801H162.018C162.197 345.801 162.346 345.656 162.346 345.474C162.346 345.288 162.197 345.142 162.018 345.142H161.26V344.377C161.26 344.196 161.115 344.05 160.936 344.05C160.756 344.05 160.607 344.196 160.607 344.377V345.142H159.854C159.674 345.142 159.526 345.288 159.526 345.474C159.526 345.656 159.674 345.801 159.854 345.801H160.607V346.567C160.607 346.748 160.756 346.894 160.936 346.894C161.115 346.894 161.26 346.748 161.26 346.567V345.801ZM164.263 343.721C164.366 343.719 164.478 343.718 164.58 343.718C164.689 343.718 164.777 343.806 164.777 343.917V347.474C164.777 348.571 163.897 349.46 162.806 349.46H159.324C158.185 349.46 157.257 348.526 157.257 347.376V342.608C157.257 341.511 158.142 340.613 159.232 340.613H161.571C161.685 340.613 161.772 340.706 161.772 340.816V342.241C161.772 343.05 162.434 343.714 163.235 343.718C163.422 343.718 163.587 343.719 163.732 343.721C163.844 343.722 163.944 343.722 164.032 343.722C164.095 343.722 164.175 343.722 164.263 343.721ZM164.383 343.075C164.023 343.076 163.599 343.075 163.293 343.072C162.809 343.072 162.41 342.669 162.41 342.18V341.014C162.41 340.823 162.639 340.728 162.77 340.866L164.533 342.718C164.661 342.852 164.568 343.074 164.383 343.075Z" fill="#A0AAB8"/>
<rect x="53.9675" y="329.997" width="12.3859" height="1.32706" fill="#24A19C"/>
</g>
<circle cx="151.727" cy="222.062" r="10.6165" fill="#24A19C"/>
<path d="M148.078 222.061H155.377" stroke="white" stroke-width="0.884706" stroke-linecap="round" stroke-linejoin="round"/>
<path d="M151.727 218.412V225.711" stroke="white" stroke-width="0.884706" stroke-linecap="round" stroke-linejoin="round"/>
<g filter="url(#filter1_d_610_5725)">
<g clip-path="url(#clip5_610_5725)">
<rect x="21.2333" y="132.707" width="144.649" height="61.0447" rx="3.53882" fill="white"/>
<path d="M21.2333 136.246C21.2333 134.291 22.8177 132.707 24.7721 132.707H162.344C164.298 132.707 165.883 134.291 165.883 136.246V148.632H21.2333V136.246Z" fill="#EA4335"/>
<path d="M29.6398 138.089V143.249" stroke="white" stroke-width="0.387059" stroke-miterlimit="10" stroke-linecap="round" stroke-linejoin="round"/>
<path d="M29.6398 138.605H32.5298C33.2265 138.605 33.3813 138.992 32.8911 139.482L32.5814 139.792C32.375 139.998 32.375 140.333 32.5814 140.514L32.8911 140.824C33.3813 141.314 33.2007 141.701 32.5298 141.701H29.6398" stroke="white" stroke-width="0.387059" stroke-miterlimit="10" stroke-linecap="round" stroke-linejoin="round"/>
<path d="M38.4357 139.117V143.169H38.9411V141.723H39.8762C40.6371 141.723 41.179 141.187 41.179 140.417C41.179 139.651 40.6427 139.117 39.8818 139.117H38.4357ZM38.9411 139.566H39.7498C40.331 139.566 40.6596 139.881 40.6596 140.417C40.6596 140.956 40.3282 141.274 39.7498 141.274H38.9411V139.566ZM41.6845 143.169H42.173V141.349C42.173 140.937 42.4201 140.664 42.7992 140.664C42.9171 140.664 43.021 140.678 43.0603 140.692V140.218C43.021 140.212 42.948 140.198 42.8638 140.198C42.5212 140.198 42.2517 140.403 42.1562 140.726H42.145V140.249H41.6845V143.169ZM43.4843 143.169H43.9729V140.249H43.4843V143.169ZM43.7286 139.757C43.8971 139.757 44.0347 139.62 44.0347 139.454C44.0347 139.286 43.8971 139.151 43.7286 139.151C43.5629 139.151 43.4254 139.286 43.4254 139.454C43.4254 139.62 43.5629 139.757 43.7286 139.757ZM45.843 143.219C46.6488 143.219 47.1936 142.638 47.1936 141.709C47.1936 140.777 46.6488 140.198 45.843 140.198C45.0343 140.198 44.4896 140.777 44.4896 141.709C44.4896 142.638 45.0343 143.219 45.843 143.219ZM45.843 142.79C45.3263 142.79 44.9865 142.397 44.9865 141.709C44.9865 141.021 45.3263 140.628 45.843 140.628C46.3596 140.628 46.6966 141.021 46.6966 141.709C46.6966 142.397 46.3596 142.79 45.843 142.79ZM47.6878 143.169H48.1763V141.349C48.1763 140.937 48.4234 140.664 48.8025 140.664C48.9204 140.664 49.0243 140.678 49.0636 140.692V140.218C49.0243 140.212 48.9513 140.198 48.8671 140.198C48.5245 140.198 48.255 140.403 48.1595 140.726H48.1482V140.249H47.6878V143.169ZM49.4876 143.169H49.9762V140.249H49.4876V143.169ZM49.7319 139.757C49.9004 139.757 50.038 139.62 50.038 139.454C50.038 139.286 49.9004 139.151 49.7319 139.151C49.5662 139.151 49.4287 139.286 49.4287 139.454C49.4287 139.62 49.5662 139.757 49.7319 139.757ZM50.7933 139.544V140.249H50.3581V140.65H50.7933V142.411C50.7933 142.972 51.0011 143.191 51.5374 143.191C51.6525 143.191 51.7873 143.183 51.8463 143.169V142.759C51.8126 142.765 51.7002 142.773 51.6441 142.773C51.3942 142.773 51.2819 142.652 51.2819 142.386V140.65H51.8491V140.249H51.2819V139.544H50.7933ZM52.6128 144.261C53.1407 144.261 53.3822 144.056 53.6321 143.374L54.7805 140.249H54.2667L53.458 142.68H53.4496L52.6409 140.249H52.1186L53.1969 143.172L53.1295 143.377C53.0172 143.716 52.8655 143.848 52.5932 143.848C52.5314 143.848 52.4556 143.846 52.4022 143.834V144.244C52.4556 144.256 52.5539 144.261 52.6128 144.261ZM56.5046 139.544V140.249H56.0693V140.65H56.5046V142.411C56.5046 142.972 56.7124 143.191 57.2487 143.191C57.3638 143.191 57.4986 143.183 57.5575 143.169V142.759C57.5238 142.765 57.4115 142.773 57.3554 142.773C57.1055 142.773 56.9931 142.652 56.9931 142.386V140.65H57.5603V140.249H56.9931V139.544H56.5046ZM58.9896 142.804C58.6386 142.804 58.4055 142.621 58.4055 142.343C58.4055 142.068 58.6302 141.894 59.0233 141.869L59.8039 141.821V142.06C59.8039 142.481 59.4501 142.804 58.9896 142.804ZM58.8801 143.219C59.2732 143.219 59.6438 143 59.8179 142.666H59.8291V143.169H60.2924V141.15C60.2924 140.569 59.86 140.198 59.1749 140.198C58.4841 140.198 58.0517 140.586 58.018 141.091H58.4898C58.5515 140.805 58.7874 140.628 59.1637 140.628C59.568 140.628 59.8039 140.841 59.8039 141.198V141.442L58.9671 141.49C58.2932 141.529 57.9085 141.844 57.9085 142.343C57.9085 142.868 58.2988 143.219 58.8801 143.219ZM60.8624 141.055C60.8624 141.453 61.1152 141.717 61.629 141.849L62.1428 141.981C62.4714 142.068 62.5921 142.181 62.5921 142.388C62.5921 142.652 62.3478 142.821 61.9519 142.821C61.556 142.821 61.3257 142.658 61.2724 142.355H60.7838C60.8344 142.871 61.2808 143.219 61.921 143.219C62.6033 143.219 63.0835 142.86 63.0835 142.352C63.0835 141.922 62.8701 141.709 62.2804 141.56L61.8284 141.45C61.497 141.366 61.3426 141.231 61.3426 141.029C61.3426 140.774 61.5785 140.597 61.9351 140.597C62.2945 140.597 62.5219 140.771 62.5556 141.052H63.0217C62.9993 140.558 62.5556 140.198 61.9519 140.198C61.3089 140.198 60.8624 140.555 60.8624 141.055ZM64.1056 141.546V139.117H63.617V143.169H64.1056V142.068L64.3779 141.81L65.4618 143.169H66.029L64.7233 141.509L65.9897 140.249H65.3972L64.1056 141.546ZM68.3989 141.299H68.9071C69.4855 141.299 69.8449 141.594 69.8449 142.071C69.8449 142.495 69.4602 142.798 68.9239 142.798C68.3792 142.798 68.0338 142.512 67.9889 142.096H67.5031C67.5396 142.767 68.0816 143.236 68.9295 143.236C69.7242 143.236 70.3588 142.751 70.3588 142.054C70.3588 141.484 69.9657 141.105 69.3535 141.069V141.057C69.859 140.968 70.1847 140.602 70.1847 140.094C70.1847 139.485 69.6371 139.05 68.9127 139.05C68.1518 139.05 67.6407 139.491 67.5846 140.178H68.0703C68.1153 139.755 68.4241 139.488 68.8902 139.488C69.4041 139.488 69.6765 139.76 69.6765 140.162C69.6765 140.572 69.3507 140.872 68.8846 140.872H68.3989V141.299Z" fill="white"/>
<path d="M157.228 141.038C157.431 141.038 157.596 140.873 157.596 140.669C157.596 140.465 157.431 140.3 157.228 140.3C157.024 140.3 156.859 140.465 156.859 140.669C156.859 140.873 157.024 141.038 157.228 141.038Z" stroke="white" stroke-width="0.663529" stroke-linecap="round" stroke-linejoin="round"/>
<path d="M154.647 141.038C154.851 141.038 155.016 140.873 155.016 140.669C155.016 140.465 154.851 140.3 154.647 140.3C154.444 140.3 154.279 140.465 154.279 140.669C154.279 140.873 154.444 141.038 154.647 141.038Z" stroke="white" stroke-width="0.663529" stroke-linecap="round" stroke-linejoin="round"/>
<path d="M152.067 141.038C152.271 141.038 152.436 140.873 152.436 140.669C152.436 140.465 152.271 140.3 152.067 140.3C151.863 140.3 151.698 140.465 151.698 140.669C151.698 140.873 151.863 141.038 152.067 141.038Z" stroke="white" stroke-width="0.663529" stroke-linecap="round" stroke-linejoin="round"/>
<path d="M47.0867 162.709V157.723H46.1882L44.5777 161.659H44.5501L42.9362 157.723H42.0411V162.709H42.7461V159.039H42.7703L44.2771 162.671H44.8507L46.3541 159.039H46.3782V162.709H47.0867ZM49.4367 159.609C49.9585 159.609 50.311 160 50.3283 160.556H48.5105C48.5485 160.007 48.9149 159.609 49.4367 159.609ZM50.3249 161.642C50.2246 161.959 49.9102 162.174 49.4851 162.174C48.8872 162.174 48.5071 161.756 48.5071 161.123V161.078H51.0748V160.822C51.0748 159.72 50.4458 159.008 49.4367 159.008C48.4103 159.008 47.7537 159.768 47.7537 160.909C47.7537 162.056 48.3999 162.779 49.4678 162.779C50.3007 162.779 50.9296 162.305 51.0333 161.642H50.3249ZM53.0205 162.772C53.5492 162.772 53.9639 162.506 54.1782 162.091H54.192V162.709H54.9177V157.723H54.1678V159.679H54.154C53.9501 159.278 53.5354 159.015 53.0135 159.015C52.1012 159.015 51.493 159.744 51.493 160.892C51.493 162.039 52.1012 162.772 53.0205 162.772ZM53.2174 159.644C53.7911 159.644 54.1747 160.138 54.1747 160.892C54.1747 161.652 53.7911 162.139 53.2174 162.139C52.6265 162.139 52.2567 161.659 52.2567 160.892C52.2567 160.128 52.6265 159.644 53.2174 159.644ZM55.7091 162.709H56.4556V159.074H55.7091V162.709ZM56.0824 158.542C56.3243 158.542 56.5178 158.352 56.5178 158.117C56.5178 157.878 56.3243 157.688 56.0824 157.688C55.8439 157.688 55.6504 157.878 55.6504 158.117C55.6504 158.352 55.8439 158.542 56.0824 158.542ZM60.34 160.325C60.2744 159.609 59.7041 159.008 58.7676 159.008C57.7343 159.008 57.0569 159.737 57.0569 160.892C57.0569 162.067 57.7343 162.779 58.7745 162.779C59.6488 162.779 60.2674 162.253 60.3469 161.479H59.6281C59.5417 161.901 59.241 162.153 58.7814 162.153C58.2008 162.153 57.8172 161.69 57.8172 160.892C57.8172 160.111 58.1974 159.63 58.7745 159.63C59.2618 159.63 59.5521 159.938 59.6281 160.325H60.34ZM62.1474 162.181C61.7466 162.181 61.4839 161.973 61.4839 161.655C61.4839 161.344 61.7362 161.147 62.182 161.116L63.0771 161.061V161.348C63.0771 161.821 62.6693 162.181 62.1474 162.181ZM61.9401 162.772C62.417 162.772 62.8766 162.516 63.0874 162.112H63.1047V162.709H63.8201V160.204C63.8201 159.475 63.2568 159.008 62.3755 159.008C61.477 159.008 60.9171 159.492 60.8757 160.149H61.5807C61.6463 159.824 61.9159 159.616 62.3479 159.616C62.8041 159.616 63.0771 159.858 63.0771 160.263V160.543L62.0818 160.601C61.2178 160.65 60.7305 161.04 60.7305 161.676C60.7305 162.329 61.2282 162.772 61.9401 162.772ZM64.5735 162.709H65.3199V157.723H64.5735V162.709ZM67.6146 157.723V162.709H69.3737C70.8597 162.709 71.7341 161.783 71.7341 160.207C71.7341 158.635 70.8563 157.723 69.3737 157.723H67.6146ZM68.3888 158.39H69.3011C70.3552 158.39 70.9427 159.039 70.9427 160.214C70.9427 161.393 70.3586 162.039 69.3011 162.039H68.3888V158.39ZM73.9044 159.609C74.4262 159.609 74.7787 160 74.796 160.556H72.9782C73.0162 160.007 73.3825 159.609 73.9044 159.609ZM74.7925 161.642C74.6923 161.959 74.3778 162.174 73.9527 162.174C73.3549 162.174 72.9747 161.756 72.9747 161.123V161.078H75.5424V160.822C75.5424 159.72 74.9135 159.008 73.9044 159.008C72.878 159.008 72.2213 159.768 72.2213 160.909C72.2213 162.056 72.8676 162.779 73.9355 162.779C74.7683 162.779 75.3973 162.305 75.501 161.642H74.7925ZM76.0574 160.104C76.0574 160.612 76.3891 160.954 77.0457 161.113L77.6955 161.272C78.0756 161.369 78.2138 161.496 78.2138 161.728C78.2138 162.022 77.9374 162.208 77.4881 162.208C77.0319 162.208 76.7624 162.015 76.7036 161.666H75.9641C76.0228 162.333 76.593 162.779 77.4535 162.779C78.3452 162.779 78.9638 162.322 78.9638 161.659C78.9638 161.123 78.6873 160.847 77.9546 160.67L77.343 160.529C76.9663 160.435 76.7866 160.283 76.7866 160.059C76.7866 159.772 77.0561 159.575 77.4605 159.575C77.8786 159.575 78.1447 159.779 78.1793 160.107H78.8808C78.8566 159.461 78.2899 159.008 77.4812 159.008C76.631 159.008 76.0574 159.454 76.0574 160.104ZM79.5685 162.709H80.315V159.074H79.5685V162.709ZM79.9418 158.542C80.1837 158.542 80.3772 158.352 80.3772 158.117C80.3772 157.878 80.1837 157.688 79.9418 157.688C79.7033 157.688 79.5098 157.878 79.5098 158.117C79.5098 158.352 79.7033 158.542 79.9418 158.542ZM82.627 162.105C82.0533 162.105 81.6801 161.642 81.6801 160.881C81.6801 160.124 82.0533 159.644 82.627 159.644C83.211 159.644 83.5946 160.135 83.5946 160.881C83.5946 161.631 83.211 162.105 82.627 162.105ZM82.6339 164.078C83.6707 164.078 84.3411 163.511 84.3411 162.644V159.074H83.6154V159.696H83.6016C83.3804 159.274 82.9588 159.015 82.4438 159.015C81.5107 159.015 80.9163 159.734 80.9163 160.878C80.9163 162.011 81.5142 162.723 82.4266 162.723C82.9449 162.723 83.3735 162.464 83.5774 162.07H83.5912V162.668C83.5912 163.166 83.2456 163.497 82.6616 163.497C82.2365 163.497 81.9047 163.297 81.7976 162.993H81.0477C81.141 163.622 81.7769 164.078 82.6339 164.078ZM85.0807 162.709H85.8271V160.591C85.8271 160.028 86.1658 159.654 86.6911 159.654C87.2095 159.654 87.4652 159.955 87.4652 160.501V162.709H88.2152V160.356C88.2152 159.523 87.7555 159.012 86.9538 159.012C86.3939 159.012 86.0069 159.267 85.8099 159.682H85.7926V159.074H85.0807V162.709ZM90.2438 161.32C90.2921 162.222 91.0386 162.792 92.1445 162.792C93.3264 162.792 94.0694 162.208 94.0694 161.275C94.0694 160.546 93.6444 160.135 92.6214 159.893L92.0719 159.758C91.4291 159.599 91.1665 159.392 91.1665 159.039C91.1665 158.597 91.5777 158.293 92.1791 158.293C92.7804 158.293 93.1916 158.593 93.2366 159.091H93.9899C93.9657 158.231 93.2435 157.64 92.1894 157.64C91.125 157.64 90.3751 158.231 90.3751 159.091C90.3751 159.786 90.8002 160.214 91.716 160.435L92.3622 160.591C93.0085 160.75 93.2815 160.981 93.2815 161.369C93.2815 161.814 92.8288 162.139 92.1998 162.139C91.5432 162.139 91.0628 161.814 91.0075 161.32H90.2438ZM95.0336 164.064C95.7905 164.064 96.1464 163.781 96.4574 162.899L97.8225 159.074H97.0346L96.1119 162.032H96.1015L95.1788 159.074H94.3701L95.6833 162.713C95.6833 162.716 95.6177 162.931 95.6177 162.937C95.5036 163.311 95.3205 163.456 94.9714 163.456C94.9092 163.456 94.7848 163.456 94.7295 163.442V164.047C94.7848 164.057 94.9749 164.064 95.0336 164.064ZM98.1957 160.104C98.1957 160.612 98.5275 160.954 99.1841 161.113L99.8338 161.272C100.214 161.369 100.352 161.496 100.352 161.728C100.352 162.022 100.076 162.208 99.6265 162.208C99.1703 162.208 98.9007 162.015 98.842 161.666H98.1024C98.1612 162.333 98.7314 162.779 99.5919 162.779C100.484 162.779 101.102 162.322 101.102 161.659C101.102 161.123 100.826 160.847 100.093 160.67L99.4813 160.529C99.1046 160.435 98.9249 160.283 98.9249 160.059C98.9249 159.772 99.1945 159.575 99.5988 159.575C100.017 159.575 100.283 159.779 100.318 160.107H101.019C100.995 159.461 100.428 159.008 99.6196 159.008C98.7694 159.008 98.1957 159.454 98.1957 160.104ZM101.9 158.213V159.074H101.372V159.665H101.9V161.752C101.9 162.454 102.187 162.734 102.923 162.734C103.089 162.734 103.255 162.72 103.338 162.699V162.108C103.29 162.118 103.169 162.125 103.093 162.125C102.789 162.125 102.65 161.984 102.65 161.669V159.665H103.342V159.074H102.65V158.213H101.9ZM105.387 159.609C105.909 159.609 106.262 160 106.279 160.556H104.461C104.499 160.007 104.866 159.609 105.387 159.609ZM106.276 161.642C106.175 161.959 105.861 162.174 105.436 162.174C104.838 162.174 104.458 161.756 104.458 161.123V161.078H107.026V160.822C107.026 159.72 106.397 159.008 105.387 159.008C104.361 159.008 103.704 159.768 103.704 160.909C103.704 162.056 104.351 162.779 105.419 162.779C106.251 162.779 106.88 162.305 106.984 161.642H106.276ZM107.606 162.709H108.353V160.463C108.353 159.997 108.667 159.651 109.109 159.651C109.531 159.651 109.797 159.917 109.797 160.335V162.709H110.53V160.439C110.53 159.979 110.837 159.651 111.28 159.651C111.722 159.651 111.974 159.921 111.974 160.391V162.709H112.724V160.211C112.724 159.489 112.254 159.012 111.535 159.012C111.017 159.012 110.589 159.281 110.402 159.724H110.385C110.239 159.271 109.873 159.012 109.369 159.012C108.878 159.012 108.498 159.281 108.335 159.686H108.318V159.074H107.606V162.709Z" fill="#333333"/>
<circle cx="32.292" cy="160.133" r="3.64941" stroke="#EA4335" stroke-width="0.663529"/>
<circle cx="32.292" cy="160.133" r="1.32706" fill="#EA4335"/>
<path d="M28.3109 173.556L158.805 173.556" stroke="#E0E5ED" stroke-width="0.221176"/>
<path d="M31.4073 182.376V183.731H32.762" stroke="#FF486A" stroke-width="0.331765" stroke-linecap="round" stroke-linejoin="round"/>
<path d="M31.4073 185.859C32.583 185.859 33.5361 184.906 33.5361 183.731C33.5361 182.555 32.583 181.602 31.4073 181.602C30.2315 181.602 29.2784 182.555 29.2784 183.731C29.2784 184.906 30.2315 185.859 31.4073 185.859Z" stroke="#FF486A" stroke-width="0.331765" stroke-miterlimit="10"/>
<path d="M33.0494 181.267L33.8705 182.088" stroke="#FF486A" stroke-width="0.331765" stroke-linecap="round" stroke-linejoin="round"/>
<path d="M28.944 182.088L29.7651 181.267" stroke="#FF486A" stroke-width="0.331765" stroke-linecap="round" stroke-linejoin="round"/>
<path d="M38.77 185.793C39.6409 185.793 40.1437 185.039 40.1437 183.857C40.1437 182.683 39.6383 181.928 38.77 181.928C37.9017 181.928 37.3911 182.688 37.3911 183.859C37.3911 185.041 37.8965 185.793 38.77 185.793ZM38.77 185.386C38.1842 185.386 37.8602 184.79 37.8602 183.857C37.8602 182.944 38.192 182.338 38.77 182.338C39.348 182.338 39.6746 182.939 39.6746 183.859C39.6746 184.792 39.3532 185.386 38.77 185.386ZM41.9658 185.793C42.759 185.793 43.324 185.347 43.324 184.72C43.324 184.256 43.0026 183.872 42.5179 183.758V183.748C42.9248 183.618 43.1711 183.302 43.1711 182.913C43.1711 182.343 42.6656 181.928 41.9658 181.928C41.2712 181.928 40.758 182.346 40.758 182.911C40.758 183.305 41.0094 183.623 41.4138 183.748V183.758C40.9317 183.87 40.6103 184.253 40.6103 184.72C40.6103 185.344 41.1753 185.793 41.9658 185.793ZM41.9658 185.386C41.4526 185.386 41.0846 185.093 41.0846 184.686C41.0846 184.277 41.4526 183.984 41.9658 183.984C42.4816 183.984 42.8471 184.274 42.8471 184.686C42.8471 185.093 42.4816 185.386 41.9658 185.386ZM41.9658 183.574C41.5278 183.574 41.222 183.318 41.222 182.955C41.222 182.589 41.5278 182.33 41.9658 182.33C42.4039 182.33 42.7097 182.587 42.7097 182.955C42.7097 183.318 42.4013 183.574 41.9658 183.574ZM44.156 185.757C44.3219 185.757 44.4515 185.627 44.4515 185.461C44.4515 185.295 44.3219 185.166 44.156 185.166C43.9901 185.166 43.8605 185.295 43.8605 185.461C43.8605 185.627 43.9901 185.757 44.156 185.757ZM45.8744 184.004H46.3436C46.8775 184.004 47.2093 184.277 47.2093 184.717C47.2093 185.109 46.8542 185.388 46.3591 185.388C45.8563 185.388 45.5375 185.124 45.496 184.741H45.0476C45.0813 185.36 45.5815 185.793 46.3643 185.793C47.0978 185.793 47.6836 185.344 47.6836 184.702C47.6836 184.175 47.3207 183.826 46.7557 183.792V183.782C47.2222 183.699 47.5229 183.362 47.5229 182.892C47.5229 182.33 47.0175 181.928 46.3488 181.928C45.6463 181.928 45.1746 182.335 45.1228 182.97H45.5712C45.6127 182.579 45.8978 182.333 46.328 182.333C46.8023 182.333 47.0538 182.584 47.0538 182.955C47.0538 183.333 46.7531 183.61 46.3228 183.61H45.8744V184.004ZM49.5627 185.793C50.4336 185.793 50.9364 185.039 50.9364 183.857C50.9364 182.683 50.431 181.928 49.5627 181.928C48.6944 181.928 48.1838 182.688 48.1838 183.859C48.1838 185.041 48.6893 185.793 49.5627 185.793ZM49.5627 185.386C48.977 185.386 48.653 184.79 48.653 183.857C48.653 182.944 48.9847 182.338 49.5627 182.338C50.1407 182.338 50.4673 182.939 50.4673 183.859C50.4673 184.792 50.1459 185.386 49.5627 185.386ZM52.6212 181.99V185.731H53.0877V184.396H53.9508C54.6532 184.396 55.1535 183.901 55.1535 183.191C55.1535 182.483 54.6584 181.99 53.956 181.99H52.6212ZM53.0877 182.405H53.8342C54.3707 182.405 54.674 182.695 54.674 183.191C54.674 183.688 54.3681 183.981 53.8342 183.981H53.0877V182.405ZM59.3757 185.731V181.99H58.834L57.5432 185.111H57.5225L56.2317 181.99H55.69V185.731H56.1254V182.848H56.1436L57.3359 185.705H57.7298L58.9221 182.848H58.9403V185.731H59.3757Z" fill="#FF486A"/>
<path fill-rule="evenodd" clip-rule="evenodd" d="M70.3872 185.555C69.5986 186.344 68.4309 186.514 67.4752 186.072C67.3342 186.015 67.2185 185.969 67.1086 185.969C66.8023 185.971 66.4211 186.268 66.223 186.07C66.0248 185.872 66.322 185.491 66.322 185.183C66.322 185.073 66.2779 184.959 66.2211 184.818C65.779 183.862 65.9496 182.694 66.7382 181.906C67.7449 180.899 69.3805 180.899 70.3872 181.905C71.3957 182.914 71.3939 184.548 70.3872 185.555Z" stroke="#767E8C" stroke-width="0.387059" stroke-linecap="round" stroke-linejoin="round"/>
<path d="M69.579 183.837H69.5814" stroke="#767E8C" stroke-width="0.516078" stroke-linecap="round" stroke-linejoin="round"/>
<path d="M68.5445 183.837H68.5469" stroke="#767E8C" stroke-width="0.516078" stroke-linecap="round" stroke-linejoin="round"/>
<path d="M67.5101 183.837H67.5124" stroke="#767E8C" stroke-width="0.516078" stroke-linecap="round" stroke-linejoin="round"/>
<path d="M74.6855 185.827H75.1365V182.087H74.6803L73.685 182.802V183.295L74.6751 182.582H74.6855V185.827Z" fill="#767E8C"/>
<path d="M83.9484 181.15V182.957L84.4645 182.44" stroke="#767E8C" stroke-width="0.387059" stroke-linecap="round" stroke-linejoin="round"/>
<path d="M83.9484 182.957L83.4323 182.44" stroke="#767E8C" stroke-width="0.387059" stroke-linecap="round" stroke-linejoin="round"/>
<path d="M81.3629 183.989H82.5008C82.5989 183.989 82.6866 184.043 82.7305 184.131L83.0324 184.734C83.1201 184.91 83.2981 185.021 83.4943 185.021H84.4051C84.6012 185.021 84.7793 184.91 84.867 184.734L85.1689 184.131C85.2128 184.043 85.3031 183.989 85.3986 183.989H86.5236" stroke="#767E8C" stroke-width="0.387059" stroke-linecap="round" stroke-linejoin="round"/>
<path d="M82.6582 181.7C81.7447 181.834 81.368 182.371 81.368 183.473V184.505C81.368 185.795 81.8841 186.311 83.1743 186.311H84.7225C86.0127 186.311 86.5288 185.795 86.5288 184.505V183.473C86.5288 182.371 86.152 181.834 85.2386 181.7" stroke="#767E8C" stroke-width="0.387059" stroke-linecap="round" stroke-linejoin="round"/>
<path d="M89.0942 183.069V183.071H89.5452V183.069C89.5452 182.651 89.877 182.335 90.315 182.335C90.7271 182.335 91.0563 182.623 91.0563 182.983C91.0563 183.294 90.937 183.494 90.4342 184.023L89.1175 185.409V185.731H91.585V185.316H89.7629V185.306L90.709 184.328C91.3336 183.683 91.5228 183.372 91.5228 182.955C91.5228 182.382 90.9967 181.928 90.3279 181.928C89.6229 181.928 89.0942 182.416 89.0942 183.069Z" fill="#767E8C"/>
<path d="M125.173 185.731V181.99H124.632L123.341 185.111H123.32L122.029 181.99H121.488V185.731H121.923V182.848H121.941L123.134 185.705H123.528L124.72 182.848H124.738V185.731H125.173ZM126.946 185.777C127.69 185.777 128.193 185.241 128.193 184.383C128.193 183.522 127.69 182.988 126.946 182.988C126.2 182.988 125.697 183.522 125.697 184.383C125.697 185.241 126.2 185.777 126.946 185.777ZM126.946 185.381C126.469 185.381 126.156 185.018 126.156 184.383C126.156 183.748 126.469 183.385 126.946 183.385C127.423 183.385 127.734 183.748 127.734 184.383C127.734 185.018 127.423 185.381 126.946 185.381ZM128.649 185.731H129.1V184.144C129.1 183.688 129.378 183.388 129.803 183.388C130.217 183.388 130.422 183.626 130.422 184.061V185.731H130.873V183.981C130.873 183.369 130.531 182.988 129.94 182.988C129.523 182.988 129.235 183.175 129.085 183.465H129.074V183.035H128.649V185.731ZM131.757 186.474L132.112 185.155H131.632L131.381 186.474H131.757ZM134.59 185.731H135.041V181.99H134.585L133.589 182.706V183.198L134.579 182.486H134.59V185.731ZM137.179 185.793C138.094 185.793 138.628 185.057 138.628 183.797C138.628 183.39 138.568 183.053 138.444 182.765C138.216 182.229 137.77 181.926 137.208 181.926C136.44 181.926 135.883 182.465 135.883 183.204C135.883 183.914 136.412 184.44 137.125 184.44C137.602 184.44 138.011 184.199 138.169 183.828C138.172 183.828 138.172 183.828 138.174 183.828H138.177C138.164 184.821 137.806 185.386 137.184 185.386C136.814 185.386 136.51 185.163 136.412 184.823H135.938C136.052 185.409 136.542 185.793 137.179 185.793ZM137.205 184.03C136.715 184.03 136.355 183.675 136.355 183.188C136.355 182.719 136.733 182.346 137.213 182.346C137.695 182.346 138.068 182.721 138.068 183.201C138.068 183.678 137.7 184.03 137.205 184.03ZM140.061 184.852C140.061 185.42 140.497 185.819 141.119 185.819C141.808 185.819 142.218 185.399 142.218 184.689V181.99H141.751V184.686C141.751 185.142 141.528 185.388 141.116 185.388C140.777 185.388 140.536 185.168 140.525 184.852H140.061ZM145.087 183.035H144.636V184.619C144.636 185.077 144.372 185.378 143.934 185.378C143.516 185.378 143.312 185.142 143.312 184.704V183.035H142.861V184.785C142.861 185.396 143.205 185.777 143.794 185.777C144.208 185.777 144.488 185.604 144.649 185.293H144.659V185.731H145.087V183.035ZM145.696 185.731H146.147V181.99H145.696V185.731ZM147.832 183.069V183.071H148.283V183.069C148.283 182.651 148.615 182.335 149.053 182.335C149.465 182.335 149.794 182.623 149.794 182.983C149.794 183.294 149.675 183.494 149.172 184.023L147.855 185.409V185.731H150.323V185.316H148.501V185.306L149.447 184.328C150.071 183.683 150.261 183.372 150.261 182.955C150.261 182.382 149.734 181.928 149.066 181.928C148.361 181.928 147.832 182.416 147.832 183.069ZM152.171 185.793C153.042 185.793 153.545 185.039 153.545 183.857C153.545 182.683 153.039 181.928 152.171 181.928C151.303 181.928 150.792 182.688 150.792 183.859C150.792 185.041 151.297 185.793 152.171 185.793ZM152.171 185.386C151.585 185.386 151.261 184.79 151.261 183.857C151.261 182.944 151.593 182.338 152.171 182.338C152.749 182.338 153.075 182.939 153.075 183.859C153.075 184.792 152.754 185.386 152.171 185.386ZM154.006 183.069V183.071H154.457V183.069C154.457 182.651 154.789 182.335 155.227 182.335C155.639 182.335 155.968 182.623 155.968 182.983C155.968 183.294 155.849 183.494 155.346 184.023L154.029 185.409V185.731H156.497V185.316H154.675V185.306L155.621 184.328C156.245 183.683 156.434 183.372 156.434 182.955C156.434 182.382 155.908 181.928 155.24 181.928C154.535 181.928 154.006 182.416 154.006 183.069ZM157.012 183.069V183.071H157.463V183.069C157.463 182.651 157.795 182.335 158.233 182.335C158.645 182.335 158.975 182.623 158.975 182.983C158.975 183.294 158.855 183.494 158.353 184.023L157.036 185.409V185.731H159.503V185.316H157.681V185.306L158.627 184.328C159.252 183.683 159.441 183.372 159.441 182.955C159.441 182.382 158.915 181.928 158.246 181.928C157.541 181.928 157.012 182.416 157.012 183.069Z" fill="#767E8C"/>
</g>
</g>
<g filter="url(#filter2_d_610_5725)">
<g clip-path="url(#clip6_610_5725)">
<rect x="21.2333" y="61.0458" width="144.649" height="61.0447" rx="3.53882" fill="white"/>
<path d="M21.2333 64.5848C21.2333 62.6304 22.8177 61.046 24.7721 61.046H162.344C164.298 61.046 165.883 62.6304 165.883 64.5848V76.9707H21.2333V64.5848Z" fill="#24A19C"/>
<path d="M30.0068 66.4276V71.5884" stroke="white" stroke-width="0.387059" stroke-miterlimit="10" stroke-linecap="round" stroke-linejoin="round"/>
<path d="M30.0068 66.9437H32.8969C33.5936 66.9437 33.7484 67.3308 33.2581 67.821L32.9485 68.1307C32.7421 68.3371 32.7421 68.6726 32.9485 68.8532L33.2581 69.1628C33.7484 69.6531 33.5678 70.0402 32.8969 70.0402H30.0068" stroke="white" stroke-width="0.387059" stroke-miterlimit="10" stroke-linecap="round" stroke-linejoin="round"/>
<path d="M38.8028 67.4562V71.508H39.3082V70.0619H40.2432C41.0042 70.0619 41.5461 69.5256 41.5461 68.7563C41.5461 67.9897 41.0098 67.4562 40.2488 67.4562H38.8028ZM39.3082 67.9055H40.1169C40.6981 67.9055 41.0266 68.22 41.0266 68.7563C41.0266 69.2954 40.6953 69.6127 40.1169 69.6127H39.3082V67.9055ZM42.0515 71.508H42.5401V69.6885C42.5401 69.2757 42.7872 69.0034 43.1663 69.0034C43.2842 69.0034 43.3881 69.0174 43.4274 69.0314V68.5569C43.3881 68.5513 43.3151 68.5372 43.2308 68.5372C42.8883 68.5372 42.6187 68.7422 42.5232 69.0651H42.512V68.5878H42.0515V71.508ZM43.8514 71.508H44.34V68.5878H43.8514V71.508ZM44.0957 68.0964C44.2641 68.0964 44.4017 67.9588 44.4017 67.7932C44.4017 67.6247 44.2641 67.4899 44.0957 67.4899C43.93 67.4899 43.7924 67.6247 43.7924 67.7932C43.7924 67.9588 43.93 68.0964 44.0957 68.0964ZM46.21 71.5586C47.0159 71.5586 47.5606 70.9773 47.5606 70.0479C47.5606 69.1157 47.0159 68.5372 46.21 68.5372C45.4013 68.5372 44.8566 69.1157 44.8566 70.0479C44.8566 70.9773 45.4013 71.5586 46.21 71.5586ZM46.21 71.1289C45.6934 71.1289 45.3536 70.7358 45.3536 70.0479C45.3536 69.36 45.6934 68.9669 46.21 68.9669C46.7267 68.9669 47.0636 69.36 47.0636 70.0479C47.0636 70.7358 46.7267 71.1289 46.21 71.1289ZM48.0548 71.508H48.5434V69.6885C48.5434 69.2757 48.7905 69.0034 49.1696 69.0034C49.2875 69.0034 49.3914 69.0174 49.4307 69.0314V68.5569C49.3914 68.5513 49.3184 68.5372 49.2341 68.5372C48.8916 68.5372 48.622 68.7422 48.5265 69.0651H48.5153V68.5878H48.0548V71.508ZM49.8547 71.508H50.3433V68.5878H49.8547V71.508ZM50.099 68.0964C50.2674 68.0964 50.405 67.9588 50.405 67.7932C50.405 67.6247 50.2674 67.4899 50.099 67.4899C49.9333 67.4899 49.7957 67.6247 49.7957 67.7932C49.7957 67.9588 49.9333 68.0964 50.099 68.0964ZM51.1604 67.883V68.5878H50.7251V68.9893H51.1604V70.7499C51.1604 71.3115 51.3681 71.5305 51.9045 71.5305C52.0196 71.5305 52.1544 71.5221 52.2133 71.508V71.0981C52.1796 71.1037 52.0673 71.1121 52.0112 71.1121C51.7613 71.1121 51.6489 70.9914 51.6489 70.7246V68.9893H52.2161V68.5878H51.6489V67.883H51.1604ZM52.9799 72.6003C53.5078 72.6003 53.7492 72.3953 53.9992 71.713L55.1476 68.5878H54.6337L53.8251 71.0194H53.8166L53.008 68.5878H52.4857L53.5639 71.5108L53.4965 71.7158C53.3842 72.0556 53.2326 72.1875 52.9602 72.1875C52.8985 72.1875 52.8226 72.1847 52.7693 72.1735V72.5834C52.8226 72.5947 52.9209 72.6003 52.9799 72.6003ZM56.8716 67.883V68.5878H56.4364V68.9893H56.8716V70.7499C56.8716 71.3115 57.0794 71.5305 57.6157 71.5305C57.7309 71.5305 57.8656 71.5221 57.9246 71.508V71.0981C57.8909 71.1037 57.7786 71.1121 57.7224 71.1121C57.4725 71.1121 57.3602 70.9914 57.3602 70.7246V68.9893H57.9274V68.5878H57.3602V67.883H56.8716ZM59.3566 71.143C59.0056 71.143 58.7726 70.9605 58.7726 70.6825C58.7726 70.4073 58.9972 70.2332 59.3903 70.208L60.1709 70.1602V70.3989C60.1709 70.8201 59.8171 71.143 59.3566 71.143ZM59.2471 71.5586C59.6402 71.5586 60.0109 71.3395 60.185 71.0054H60.1962V71.508H60.6595V69.4891C60.6595 68.9079 60.2271 68.5372 59.542 68.5372C58.8512 68.5372 58.4188 68.9247 58.3851 69.4302H58.8568C58.9186 69.1438 59.1545 68.9669 59.5307 68.9669C59.9351 68.9669 60.1709 69.1803 60.1709 69.5369V69.7811L59.3342 69.8289C58.6603 69.8682 58.2756 70.1827 58.2756 70.6825C58.2756 71.2076 58.6659 71.5586 59.2471 71.5586ZM61.2295 69.3937C61.2295 69.7924 61.4822 70.0563 61.9961 70.1883L62.5099 70.3203C62.8384 70.4073 62.9592 70.5196 62.9592 70.7274C62.9592 70.9914 62.7149 71.1598 62.319 71.1598C61.9231 71.1598 61.6928 70.997 61.6395 70.6937H61.1509C61.2014 71.2104 61.6479 71.5586 62.2881 71.5586C62.9704 71.5586 63.4506 71.1991 63.4506 70.6909C63.4506 70.2613 63.2372 70.0479 62.6475 69.8991L62.1954 69.7896C61.8641 69.7053 61.7097 69.5706 61.7097 69.3684C61.7097 69.1129 61.9455 68.936 62.3021 68.936C62.6615 68.936 62.889 69.1101 62.9227 69.3909H63.3888C63.3663 68.8967 62.9227 68.5372 62.319 68.5372C61.676 68.5372 61.2295 68.8939 61.2295 69.3937ZM64.4726 69.885V67.4562H63.9841V71.508H64.4726V70.4073L64.745 70.149L65.8289 71.508H66.3961L65.0904 69.8485L66.3567 68.5878H65.7643L64.4726 69.885ZM68.9737 71.508H69.4623V67.4562H68.9681L67.8899 68.2312V68.7647L68.9625 67.9925H68.9737V71.508Z" fill="white"/>
<path d="M156.962 69.3766C157.165 69.3766 157.33 69.2116 157.33 69.008C157.33 68.8044 157.165 68.6394 156.962 68.6394C156.758 68.6394 156.593 68.8044 156.593 69.008C156.593 69.2116 156.758 69.3766 156.962 69.3766Z" stroke="white" stroke-width="0.663529" stroke-linecap="round" stroke-linejoin="round"/>
<path d="M154.381 69.3766C154.585 69.3766 154.75 69.2116 154.75 69.008C154.75 68.8044 154.585 68.6394 154.381 68.6394C154.178 68.6394 154.013 68.8044 154.013 69.008C154.013 69.2116 154.178 69.3766 154.381 69.3766Z" stroke="white" stroke-width="0.663529" stroke-linecap="round" stroke-linejoin="round"/>
<path d="M151.801 69.3766C152.005 69.3766 152.17 69.2116 152.17 69.008C152.17 68.8044 152.005 68.6394 151.801 68.6394C151.597 68.6394 151.432 68.8044 151.432 69.008C151.432 69.2116 151.597 69.3766 151.801 69.3766Z" stroke="white" stroke-width="0.663529" stroke-linecap="round" stroke-linejoin="round"/>
<path d="M47.0867 91.048V86.0612H46.1882L44.5777 89.9974H44.5501L42.9362 86.0612H42.0411V91.048H42.7461V87.3779H42.7703L44.2771 91.01H44.8507L46.3541 87.3779H46.3782V91.048H47.0867ZM49.0911 90.5193C48.6902 90.5193 48.4276 90.3119 48.4276 89.994C48.4276 89.6829 48.6799 89.4859 49.1257 89.4548L50.0207 89.3995V89.6864C50.0207 90.1598 49.613 90.5193 49.0911 90.5193ZM48.8838 91.1102C49.3607 91.1102 49.8203 90.8545 50.0311 90.4501H50.0484V91.048H50.7638V88.5425C50.7638 87.8133 50.2005 87.3468 49.3192 87.3468C48.4207 87.3468 47.8608 87.8306 47.8193 88.4872H48.5243C48.59 88.1623 48.8596 87.955 49.2916 87.955C49.7477 87.955 50.0207 88.1969 50.0207 88.6012V88.8812L49.0255 88.9399C48.1615 88.9883 47.6742 89.3788 47.6742 90.0147C47.6742 90.6679 48.1718 91.1102 48.8838 91.1102ZM51.4238 88.4423C51.4238 88.9503 51.7556 89.2924 52.4122 89.4514L53.0619 89.6104C53.4421 89.7071 53.5803 89.835 53.5803 90.0665C53.5803 90.3603 53.3038 90.5469 52.8546 90.5469C52.3984 90.5469 52.1288 90.3534 52.0701 90.0043H51.3305C51.3893 90.6713 51.9595 91.1171 52.82 91.1171C53.7116 91.1171 54.3302 90.6609 54.3302 89.9974C54.3302 89.4618 54.0538 89.1853 53.3211 89.009L52.7094 88.8673C52.3327 88.774 52.153 88.622 52.153 88.3973C52.153 88.1105 52.4226 87.9135 52.8269 87.9135C53.2451 87.9135 53.5112 88.1174 53.5457 88.4457H54.2473C54.2231 87.7995 53.6563 87.3468 52.8477 87.3468C51.9975 87.3468 51.4238 87.7926 51.4238 88.4423ZM55.2702 92.4027C56.0271 92.4027 56.383 92.1193 56.6941 91.2381L58.0591 87.4124H57.2712L56.3485 90.3707H56.3381L55.4154 87.4124H54.6067L55.9199 91.0515C55.9199 91.0549 55.8543 91.2692 55.8543 91.2761C55.7402 91.6493 55.5571 91.7945 55.208 91.7945C55.1458 91.7945 55.0214 91.7945 54.9661 91.7807V92.3854C55.0214 92.3958 55.2115 92.4027 55.2702 92.4027ZM58.5257 91.048H59.2721V86.0612H58.5257V91.048ZM61.3111 90.5193C60.9102 90.5193 60.6476 90.3119 60.6476 89.994C60.6476 89.6829 60.8999 89.4859 61.3457 89.4548L62.2407 89.3995V89.6864C62.2407 90.1598 61.833 90.5193 61.3111 90.5193ZM61.1038 91.1102C61.5807 91.1102 62.0403 90.8545 62.2511 90.4501H62.2684V91.048H62.9838V88.5425C62.9838 87.8133 62.4205 87.3468 61.5392 87.3468C60.6407 87.3468 60.0808 87.8306 60.0394 88.4872H60.7444C60.81 88.1623 61.0796 87.955 61.5116 87.955C61.9677 87.955 62.2407 88.1969 62.2407 88.6012V88.8812L61.2455 88.9399C60.3815 88.9883 59.8942 89.3788 59.8942 90.0147C59.8942 90.6679 60.3919 91.1102 61.1038 91.1102ZM68.0812 87.288H68.1157L69.194 91.048H69.9232L71.271 86.0612H70.4657L69.543 89.9663H69.5154L68.4579 86.0612H67.7391L66.685 89.9663H66.6574L65.7346 86.0612H64.9294L66.2738 91.048H67.0064L68.0812 87.288ZM72.9229 87.9481C73.4447 87.9481 73.7972 88.3386 73.8145 88.895H71.9967C72.0347 88.3455 72.401 87.9481 72.9229 87.9481ZM73.811 89.9801C73.7108 90.2981 73.3963 90.5123 72.9713 90.5123C72.3734 90.5123 71.9932 90.0942 71.9932 89.4618V89.4168H74.561V89.1611C74.561 88.0587 73.932 87.3468 72.9229 87.3468C71.8965 87.3468 71.2399 88.107 71.2399 89.2475C71.2399 90.3948 71.8861 91.1171 72.954 91.1171C73.7868 91.1171 74.4158 90.6437 74.5195 89.9801H73.811ZM77.0769 91.1102C77.9996 91.1102 78.594 90.3845 78.594 89.2302C78.594 88.0794 77.9961 87.3537 77.0803 87.3537C76.5654 87.3537 76.1507 87.6094 75.933 88.031H75.9157V86.0612H75.1692V91.048H75.8949V90.4294H75.9088C76.1334 90.851 76.5446 91.1102 77.0769 91.1102ZM76.8764 87.9826C77.4639 87.9826 77.8268 88.4665 77.8268 89.2302C77.8268 90.0009 77.4639 90.4778 76.8764 90.4778C76.3096 90.4778 75.9122 89.987 75.9122 89.2302C75.9122 88.4803 76.3096 87.9826 76.8764 87.9826ZM79.1124 88.4423C79.1124 88.9503 79.4441 89.2924 80.1007 89.4514L80.7505 89.6104C81.1306 89.7071 81.2688 89.835 81.2688 90.0665C81.2688 90.3603 80.9924 90.5469 80.5431 90.5469C80.0869 90.5469 79.8174 90.3534 79.7586 90.0043H79.0191C79.0778 90.6713 79.648 91.1171 80.5085 91.1171C81.4002 91.1171 82.0188 90.6609 82.0188 89.9974C82.0188 89.4618 81.7423 89.1853 81.0096 89.009L80.398 88.8673C80.0213 88.774 79.8416 88.622 79.8416 88.3973C79.8416 88.1105 80.1111 87.9135 80.5155 87.9135C80.9336 87.9135 81.1997 88.1174 81.2343 88.4457H81.9358C81.9116 87.7995 81.3449 87.3468 80.5362 87.3468C79.686 87.3468 79.1124 87.7926 79.1124 88.4423ZM82.6235 91.048H83.37V87.4124H82.6235V91.048ZM82.9968 86.8802C83.2387 86.8802 83.4322 86.6901 83.4322 86.4551C83.4322 86.2167 83.2387 86.0266 82.9968 86.0266C82.7583 86.0266 82.5648 86.2167 82.5648 86.4551C82.5648 86.6901 82.7583 86.8802 82.9968 86.8802ZM84.3515 86.5519V87.4124H83.8227V88.0034H84.3515V90.0907C84.3515 90.7923 84.6383 91.0722 85.3744 91.0722C85.5403 91.0722 85.7062 91.0584 85.7891 91.0376V90.4467C85.7407 90.457 85.6198 90.464 85.5438 90.464C85.2396 90.464 85.1014 90.3223 85.1014 90.0078V88.0034H85.7926V87.4124H85.1014V86.5519H84.3515ZM87.8385 87.9481C88.3603 87.9481 88.7128 88.3386 88.7301 88.895H86.9123C86.9503 88.3455 87.3166 87.9481 87.8385 87.9481ZM88.7266 89.9801C88.6264 90.2981 88.3119 90.5123 87.8869 90.5123C87.289 90.5123 86.9088 90.0942 86.9088 89.4618V89.4168H89.4766V89.1611C89.4766 88.0587 88.8476 87.3468 87.8385 87.3468C86.8121 87.3468 86.1555 88.107 86.1555 89.2475C86.1555 90.3948 86.8017 91.1171 87.8696 91.1171C88.7024 91.1171 89.3314 90.6437 89.4351 89.9801H88.7266ZM91.5846 86.0612V91.048H92.3588V89.3443H93.4301C94.4081 89.3443 95.0958 88.6738 95.0958 87.6993C95.0958 86.7282 94.4219 86.0612 93.4543 86.0612H91.5846ZM92.3588 86.7143H93.2504C93.9208 86.7143 94.3044 87.0737 94.3044 87.7027C94.3044 88.3317 93.9208 88.6945 93.2469 88.6945H92.3588V86.7143ZM95.6833 91.048H96.4298V88.8708C96.4298 88.3559 96.727 88.0345 97.2074 88.0345C97.3525 88.0345 97.4838 88.0518 97.5426 88.0759V87.3813C97.4873 87.3709 97.394 87.3537 97.2869 87.3537C96.8583 87.3537 96.5335 87.6059 96.4125 88.031H96.3952V87.4124H95.6833V91.048ZM99.4088 91.1171C100.449 91.1171 101.133 90.4018 101.133 89.2302C101.133 88.0621 100.446 87.3468 99.4088 87.3468C98.372 87.3468 97.6843 88.0621 97.6843 89.2302C97.6843 90.4018 98.3685 91.1171 99.4088 91.1171ZM99.4088 90.502C98.8247 90.502 98.4446 90.0389 98.4446 89.2302C98.4446 88.425 98.8247 87.9619 99.4088 87.9619C99.9928 87.9619 100.373 88.425 100.373 89.2302C100.373 90.0389 99.9963 90.502 99.4088 90.502ZM102.481 87.4124H101.735V91.2173C101.735 91.5837 101.596 91.7219 101.227 91.7219C101.213 91.7219 101.133 91.7184 101.119 91.7184V92.3059C101.14 92.3129 101.258 92.3129 101.292 92.3129C102.097 92.3129 102.481 91.9604 102.481 91.2208V87.4124ZM102.108 86.8802C102.35 86.8802 102.543 86.6901 102.543 86.4551C102.543 86.2167 102.35 86.0266 102.108 86.0266C101.869 86.0266 101.676 86.2167 101.676 86.4551C101.676 86.6901 101.869 86.8802 102.108 86.8802ZM104.765 87.9481C105.287 87.9481 105.64 88.3386 105.657 88.895H103.839C103.877 88.3455 104.244 87.9481 104.765 87.9481ZM105.654 89.9801C105.553 90.2981 105.239 90.5123 104.814 90.5123C104.216 90.5123 103.836 90.0942 103.836 89.4618V89.4168H106.403V89.1611C106.403 88.0587 105.774 87.3468 104.765 87.3468C103.739 87.3468 103.082 88.107 103.082 89.2475C103.082 90.3948 103.729 91.1171 104.796 91.1171C105.629 91.1171 106.258 90.6437 106.362 89.9801H105.654ZM110.105 88.6634C110.039 87.9481 109.469 87.3468 108.532 87.3468C107.499 87.3468 106.822 88.0759 106.822 89.2302C106.822 90.4052 107.499 91.1171 108.539 91.1171C109.414 91.1171 110.032 90.5918 110.112 89.8177H109.393C109.306 90.2393 109.006 90.4916 108.546 90.4916C107.966 90.4916 107.582 90.0285 107.582 89.2302C107.582 88.4492 107.962 87.9688 108.539 87.9688C109.026 87.9688 109.317 88.2764 109.393 88.6634H110.105ZM110.858 86.5519V87.4124H110.329V88.0034H110.858V90.0907C110.858 90.7923 111.145 91.0722 111.881 91.0722C112.047 91.0722 112.213 91.0584 112.296 91.0376V90.4467C112.247 90.457 112.126 90.464 112.05 90.464C111.746 90.464 111.608 90.3223 111.608 90.0078V88.0034H112.299V87.4124H111.608V86.5519H110.858Z" fill="#333333"/>
<circle cx="32.292" cy="88.4714" r="3.64941" stroke="#24A19C" stroke-width="0.663529"/>
<circle cx="32.292" cy="88.4714" r="1.32706" fill="#24A19C"/>
<path d="M28.3109 101.895L158.805 101.895" stroke="#E0E5ED" stroke-width="0.221176"/>
<path d="M31.4073 110.714V112.069H32.7621" stroke="#FF486A" stroke-width="0.331765" stroke-linecap="round" stroke-linejoin="round"/>
<path d="M31.4073 114.198C32.583 114.198 33.5361 113.245 33.5361 112.069C33.5361 110.893 32.583 109.94 31.4073 109.94C30.2316 109.94 29.2785 110.893 29.2785 112.069C29.2785 113.245 30.2316 114.198 31.4073 114.198Z" stroke="#FF486A" stroke-width="0.331765" stroke-miterlimit="10"/>
<path d="M33.0495 109.606L33.8706 110.427" stroke="#FF486A" stroke-width="0.331765" stroke-linecap="round" stroke-linejoin="round"/>
<path d="M28.9441 110.427L29.7652 109.606" stroke="#FF486A" stroke-width="0.331765" stroke-linecap="round" stroke-linejoin="round"/>
<path d="M38.7701 114.131C39.6409 114.131 40.1438 113.377 40.1438 112.195C40.1438 111.021 39.6384 110.267 38.7701 110.267C37.9018 110.267 37.3912 111.026 37.3912 112.198C37.3912 113.38 37.8966 114.131 38.7701 114.131ZM38.7701 113.724C38.1843 113.724 37.8603 113.128 37.8603 112.195C37.8603 111.283 38.1921 110.676 38.7701 110.676C39.3481 110.676 39.6746 111.278 39.6746 112.198C39.6746 113.131 39.3532 113.724 38.7701 113.724ZM41.9659 114.131C42.759 114.131 43.3241 113.686 43.3241 113.058C43.3241 112.594 43.0027 112.211 42.518 112.097V112.086C42.9249 111.957 43.1711 111.641 43.1711 111.252C43.1711 110.682 42.6657 110.267 41.9659 110.267C41.2713 110.267 40.7581 110.684 40.7581 111.249C40.7581 111.643 41.0095 111.962 41.4138 112.086V112.097C40.9317 112.208 40.6103 112.592 40.6103 113.058C40.6103 113.683 41.1754 114.131 41.9659 114.131ZM41.9659 113.724C41.4527 113.724 41.0846 113.432 41.0846 113.025C41.0846 112.615 41.4527 112.322 41.9659 112.322C42.4817 112.322 42.8471 112.613 42.8471 113.025C42.8471 113.432 42.4817 113.724 41.9659 113.724ZM41.9659 111.913C41.5279 111.913 41.222 111.656 41.222 111.293C41.222 110.928 41.5279 110.669 41.9659 110.669C42.4039 110.669 42.7098 110.925 42.7098 111.293C42.7098 111.656 42.4013 111.913 41.9659 111.913ZM44.1561 114.095C44.3219 114.095 44.4515 113.966 44.4515 113.8C44.4515 113.634 44.3219 113.504 44.1561 113.504C43.9902 113.504 43.8606 113.634 43.8606 113.8C43.8606 113.966 43.9902 114.095 44.1561 114.095ZM45.8745 112.343H46.3436C46.8776 112.343 47.2093 112.615 47.2093 113.056C47.2093 113.447 46.8542 113.727 46.3592 113.727C45.8564 113.727 45.5375 113.463 45.4961 113.079H45.0477C45.0814 113.699 45.5816 114.131 46.3644 114.131C47.0979 114.131 47.6837 113.683 47.6837 113.04C47.6837 112.514 47.3208 112.164 46.7557 112.13V112.12C47.2223 112.037 47.523 111.7 47.523 111.231C47.523 110.669 47.0175 110.267 46.3488 110.267C45.6464 110.267 45.1747 110.674 45.1228 111.309H45.5712C45.6127 110.917 45.8978 110.671 46.3281 110.671C46.8024 110.671 47.0538 110.923 47.0538 111.293C47.0538 111.672 46.7532 111.949 46.3229 111.949H45.8745V112.343ZM49.5628 114.131C50.4337 114.131 50.9365 113.377 50.9365 112.195C50.9365 111.021 50.4311 110.267 49.5628 110.267C48.6945 110.267 48.1839 111.026 48.1839 112.198C48.1839 113.38 48.6893 114.131 49.5628 114.131ZM49.5628 113.724C48.977 113.724 48.653 113.128 48.653 112.195C48.653 111.283 48.9848 110.676 49.5628 110.676C50.1408 110.676 50.4674 111.278 50.4674 112.198C50.4674 113.131 50.146 113.724 49.5628 113.724ZM52.6212 110.329V114.069H53.0878V112.734H53.9509C54.6533 112.734 55.1535 112.239 55.1535 111.529C55.1535 110.822 54.6585 110.329 53.9561 110.329H52.6212ZM53.0878 110.744H53.8343C54.3708 110.744 54.674 111.034 54.674 111.529C54.674 112.027 54.3682 112.32 53.8343 112.32H53.0878V110.744ZM59.3758 114.069V110.329H58.8341L57.5433 113.45H57.5225L56.2318 110.329H55.6901V114.069H56.1255V111.187H56.1437L57.3359 114.043H57.7299L58.9222 111.187H58.9403V114.069H59.3758Z" fill="#FF486A"/>
<path fill-rule="evenodd" clip-rule="evenodd" d="M70.3873 113.893C69.5987 114.682 68.4309 114.853 67.4753 114.411C67.3342 114.354 67.2186 114.308 67.1086 114.308C66.8024 114.31 66.4211 114.607 66.223 114.409C66.0249 114.211 66.3221 113.829 66.3221 113.521C66.3221 113.411 66.278 113.298 66.2212 113.156C65.7791 112.201 65.9497 111.033 66.7383 110.244C67.745 109.237 69.3806 109.237 70.3873 110.244C71.3958 111.252 71.394 112.887 70.3873 113.893Z" stroke="#767E8C" stroke-width="0.387059" stroke-linecap="round" stroke-linejoin="round"/>
<path d="M69.5791 112.176H69.5814" stroke="#767E8C" stroke-width="0.516078" stroke-linecap="round" stroke-linejoin="round"/>
<path d="M68.5446 112.176H68.5469" stroke="#767E8C" stroke-width="0.516078" stroke-linecap="round" stroke-linejoin="round"/>
<path d="M67.5102 112.176H67.5125" stroke="#767E8C" stroke-width="0.516078" stroke-linecap="round" stroke-linejoin="round"/>
<path d="M74.6855 114.166H75.1365V110.426H74.6804L73.6851 111.141V111.633L74.6752 110.921H74.6855V114.166Z" fill="#767E8C"/>
<path d="M83.9485 109.489V111.295L84.4646 110.779" stroke="#767E8C" stroke-width="0.387059" stroke-linecap="round" stroke-linejoin="round"/>
<path d="M83.9485 111.295L83.4324 110.779" stroke="#767E8C" stroke-width="0.387059" stroke-linecap="round" stroke-linejoin="round"/>
<path d="M81.3629 112.327H82.5009C82.5989 112.327 82.6867 112.381 82.7305 112.469L83.0324 113.073C83.1202 113.248 83.2982 113.359 83.4943 113.359H84.4052C84.6013 113.359 84.7794 113.248 84.8671 113.073L85.169 112.469C85.2129 112.381 85.3032 112.327 85.3986 112.327H86.5237" stroke="#767E8C" stroke-width="0.387059" stroke-linecap="round" stroke-linejoin="round"/>
<path d="M82.6582 110.038C81.7448 110.173 81.368 110.709 81.368 111.811V112.843C81.368 114.134 81.8841 114.65 83.1743 114.65H84.7226C86.0127 114.65 86.5288 114.134 86.5288 112.843V111.811C86.5288 110.709 86.1521 110.173 85.2386 110.038" stroke="#767E8C" stroke-width="0.387059" stroke-linecap="round" stroke-linejoin="round"/>
<path d="M89.0943 111.407V111.41H89.5453V111.407C89.5453 110.99 89.877 110.674 90.315 110.674C90.7272 110.674 91.0563 110.961 91.0563 111.322C91.0563 111.633 90.9371 111.832 90.4343 112.361L89.1176 113.748V114.069H91.5851V113.654H89.763V113.644L90.709 112.667C91.3337 112.022 91.5229 111.711 91.5229 111.293C91.5229 110.72 90.9967 110.267 90.328 110.267C89.623 110.267 89.0943 110.754 89.0943 111.407Z" fill="#767E8C"/>
<path d="M125.174 114.069V110.329H124.632L123.341 113.45H123.32L122.03 110.329H121.488V114.069H121.923V111.187H121.941L123.134 114.043H123.528L124.72 111.187H124.738V114.069H125.174ZM126.946 114.116C127.69 114.116 128.193 113.579 128.193 112.721C128.193 111.861 127.69 111.327 126.946 111.327C126.2 111.327 125.697 111.861 125.697 112.721C125.697 113.579 126.2 114.116 126.946 114.116ZM126.946 113.719C126.47 113.719 126.156 113.356 126.156 112.721C126.156 112.086 126.47 111.724 126.946 111.724C127.423 111.724 127.734 112.086 127.734 112.721C127.734 113.356 127.423 113.719 126.946 113.719ZM128.649 114.069H129.1V112.483C129.1 112.027 129.378 111.726 129.803 111.726C130.217 111.726 130.422 111.965 130.422 112.4V114.069H130.873V112.32C130.873 111.708 130.531 111.327 129.94 111.327C129.523 111.327 129.235 111.514 129.085 111.804H129.074V111.374H128.649V114.069ZM131.757 114.813L132.112 113.494H131.633L131.381 114.813H131.757ZM134.59 114.069H135.041V110.329H134.585L133.59 111.044V111.537L134.58 110.824H134.59V114.069ZM137.179 114.131C138.094 114.131 138.628 113.395 138.628 112.136C138.628 111.729 138.569 111.392 138.444 111.104C138.216 110.568 137.77 110.264 137.208 110.264C136.441 110.264 135.883 110.803 135.883 111.542C135.883 112.252 136.412 112.778 137.125 112.778C137.602 112.778 138.011 112.537 138.169 112.167C138.172 112.167 138.172 112.167 138.175 112.167H138.177C138.164 113.159 137.807 113.724 137.184 113.724C136.814 113.724 136.511 113.502 136.412 113.162H135.938C136.052 113.748 136.542 114.131 137.179 114.131ZM137.205 112.369C136.715 112.369 136.355 112.014 136.355 111.527C136.355 111.057 136.733 110.684 137.213 110.684C137.695 110.684 138.068 111.06 138.068 111.539C138.068 112.016 137.7 112.369 137.205 112.369ZM140.062 113.191C140.062 113.758 140.497 114.157 141.119 114.157C141.808 114.157 142.218 113.737 142.218 113.027V110.329H141.751V113.025C141.751 113.481 141.529 113.727 141.116 113.727C140.777 113.727 140.536 113.507 140.525 113.191H140.062ZM145.087 111.374H144.636V112.957C144.636 113.416 144.372 113.717 143.934 113.717C143.517 113.717 143.312 113.481 143.312 113.043V111.374H142.861V113.123C142.861 113.735 143.205 114.116 143.794 114.116C144.209 114.116 144.488 113.942 144.649 113.631H144.66V114.069H145.087V111.374ZM145.696 114.069H146.147V110.329H145.696V114.069ZM147.832 111.407V111.41H148.283V111.407C148.283 110.99 148.615 110.674 149.053 110.674C149.465 110.674 149.794 110.961 149.794 111.322C149.794 111.633 149.675 111.832 149.172 112.361L147.855 113.748V114.069H150.323V113.654H148.501V113.644L149.447 112.667C150.071 112.022 150.261 111.711 150.261 111.293C150.261 110.72 149.735 110.267 149.066 110.267C148.361 110.267 147.832 110.754 147.832 111.407ZM152.171 114.131C153.042 114.131 153.545 113.377 153.545 112.195C153.545 111.021 153.039 110.267 152.171 110.267C151.303 110.267 150.792 111.026 150.792 112.198C150.792 113.38 151.297 114.131 152.171 114.131ZM152.171 113.724C151.585 113.724 151.261 113.128 151.261 112.195C151.261 111.283 151.593 110.676 152.171 110.676C152.749 110.676 153.075 111.278 153.075 112.198C153.075 113.131 152.754 113.724 152.171 113.724ZM154.006 111.407V111.41H154.457V111.407C154.457 110.99 154.789 110.674 155.227 110.674C155.639 110.674 155.968 110.961 155.968 111.322C155.968 111.633 155.849 111.832 155.346 112.361L154.029 113.748V114.069H156.497V113.654H154.675V113.644L155.621 112.667C156.245 112.022 156.435 111.711 156.435 111.293C156.435 110.72 155.908 110.267 155.24 110.267C154.535 110.267 154.006 110.754 154.006 111.407ZM157.013 111.407V111.41H157.464V111.407C157.464 110.99 157.795 110.674 158.233 110.674C158.646 110.674 158.975 110.961 158.975 111.322C158.975 111.633 158.855 111.832 158.353 112.361L157.036 113.748V114.069H159.503V113.654H157.681V113.644L158.627 112.667C159.252 112.022 159.441 111.711 159.441 111.293C159.441 110.72 158.915 110.267 158.246 110.267C157.541 110.267 157.013 110.754 157.013 111.407Z" fill="#767E8C"/>
</g>
</g>
</g>
</g>
</g>
<mask id="path-87-inside-1_610_5725" fill="white">
<path fill-rule="evenodd" clip-rule="evenodd" d="M12.5054 16.9779C11.059 19.8166 11.059 23.5327 11.059 30.9649V347.796C11.059 355.228 11.059 358.944 12.5054 361.783C13.7777 364.28 15.8079 366.31 18.3049 367.583C21.1436 369.029 24.8597 369.029 32.292 369.029H155.708C163.141 369.029 166.857 369.029 169.696 367.583C172.193 366.31 174.223 364.28 175.495 361.783C176.941 358.944 176.941 355.228 176.941 347.796V30.9649C176.941 23.5327 176.941 19.8166 175.495 16.9779C174.223 14.4808 172.193 12.4507 169.696 11.1784C166.857 9.73199 163.141 9.73199 155.708 9.73199H32.292C24.8597 9.73199 21.1436 9.73199 18.3049 11.1784C15.8079 12.4507 13.7777 14.4808 12.5054 16.9779ZM50.2925 12.4822C50.2904 11.1066 48.9148 9.73212 47.5393 9.73212H50.2925H137.708V15.7506C137.708 19.2693 134.855 22.1217 131.337 22.1217H56.6635C53.1449 22.1217 50.2925 19.2693 50.2925 15.7506V12.4822ZM137.708 9.73212H140.117C138.74 9.73212 137.708 10.7646 137.708 12.1412V9.73212Z"/>
</mask>
<path d="M12.5054 16.9779L12.3084 16.8774L12.5054 16.9779ZM12.5054 361.783L12.7025 361.683H12.7025L12.5054 361.783ZM18.3049 367.583L18.4053 367.386H18.4053L18.3049 367.583ZM169.696 367.583L169.595 367.386L169.696 367.583ZM175.495 361.783L175.298 361.683L175.495 361.783ZM175.495 16.9779L175.298 17.0783V17.0783L175.495 16.9779ZM169.696 11.1784L169.595 11.3755V11.3755L169.696 11.1784ZM18.3049 11.1784L18.2045 10.9813L18.3049 11.1784ZM50.2925 12.4822H50.5137V12.4819L50.2925 12.4822ZM137.708 9.73212H137.929V9.51094H137.708V9.73212ZM137.708 9.73212V9.51094H137.487V9.73212H137.708ZM11.2802 30.9649C11.2802 27.2452 11.2804 24.4687 11.4603 22.2669C11.6399 20.0676 11.9978 18.4613 12.7025 17.0783L12.3084 16.8774C11.5666 18.3332 11.2013 20.0043 11.0194 22.2308C10.8377 24.4548 10.8378 27.2525 10.8378 30.9649H11.2802ZM11.2802 347.796V30.9649H10.8378V347.796H11.2802ZM12.7025 361.683C11.9978 360.3 11.6399 358.693 11.4603 356.494C11.2804 354.292 11.2802 351.516 11.2802 347.796H10.8378C10.8378 351.509 10.8377 354.306 11.0194 356.53C11.2013 358.757 11.5666 360.428 12.3084 361.884L12.7025 361.683ZM18.4053 367.386C15.9499 366.134 13.9536 364.138 12.7025 361.683L12.3084 361.884C13.6019 364.422 15.6658 366.486 18.2045 367.78L18.4053 367.386ZM32.292 368.808C28.5722 368.808 25.7957 368.808 23.5939 368.628C21.3947 368.448 19.7883 368.09 18.4053 367.386L18.2045 367.78C19.6602 368.521 21.3313 368.887 23.5579 369.069C25.7819 369.25 28.5795 369.25 32.292 369.25V368.808ZM155.708 368.808H32.292V369.25H155.708V368.808ZM169.595 367.386C168.212 368.09 166.606 368.448 164.407 368.628C162.205 368.808 159.428 368.808 155.708 368.808V369.25C159.421 369.25 162.219 369.25 164.443 369.069C166.669 368.887 168.34 368.521 169.796 367.78L169.595 367.386ZM175.298 361.683C174.047 364.138 172.051 366.134 169.595 367.386L169.796 367.78C172.335 366.486 174.399 364.422 175.692 361.884L175.298 361.683ZM176.72 347.796C176.72 351.516 176.72 354.292 176.54 356.494C176.36 358.693 176.003 360.3 175.298 361.683L175.692 361.884C176.434 360.428 176.799 358.757 176.981 356.53C177.163 354.306 177.163 351.509 177.163 347.796H176.72ZM176.72 30.9649V347.796H177.163V30.9649H176.72ZM175.298 17.0783C176.003 18.4613 176.36 20.0676 176.54 22.2669C176.72 24.4687 176.72 27.2452 176.72 30.9649H177.163C177.163 27.2525 177.163 24.4548 176.981 22.2308C176.799 20.0043 176.434 18.3332 175.692 16.8774L175.298 17.0783ZM169.595 11.3755C172.051 12.6266 174.047 14.6229 175.298 17.0783L175.692 16.8774C174.399 14.3388 172.335 12.2748 169.796 10.9813L169.595 11.3755ZM155.708 9.95317C159.428 9.95317 162.205 9.95334 164.407 10.1332C166.606 10.3129 168.212 10.6708 169.595 11.3755L169.796 10.9813C168.34 10.2396 166.669 9.87427 164.443 9.69235C162.219 9.51065 159.421 9.51082 155.708 9.51082V9.95317ZM32.292 9.95317H155.708V9.51082H32.292V9.95317ZM18.4053 11.3755C19.7883 10.6708 21.3947 10.3129 23.5939 10.1332C25.7957 9.95334 28.5722 9.95317 32.292 9.95317V9.51082C28.5795 9.51082 25.7818 9.51065 23.5579 9.69235C21.3313 9.87427 19.6602 10.2396 18.2045 10.9813L18.4053 11.3755ZM12.7025 17.0783C13.9536 14.6229 15.9499 12.6266 18.4053 11.3755L18.2045 10.9813C15.6658 12.2748 13.6019 14.3388 12.3084 16.8774L12.7025 17.0783ZM47.5393 9.9533C48.1552 9.9533 48.7896 10.2632 49.2746 10.7478C49.7597 11.2324 50.0704 11.8666 50.0713 12.4826L50.5137 12.4819C50.5125 11.7223 50.1344 10.9814 49.5873 10.4349C49.0401 9.88827 48.2989 9.51094 47.5393 9.51094V9.9533ZM50.2925 9.51094H47.5393V9.9533H50.2925V9.51094ZM137.708 9.51094H50.2925V9.9533H137.708V9.51094ZM137.929 15.7506V9.73212H137.487V15.7506H137.929ZM131.337 22.3428C134.977 22.3428 137.929 19.3914 137.929 15.7506H137.487C137.487 19.1471 134.733 21.9005 131.337 21.9005V22.3428ZM56.6635 22.3428H131.337V21.9005H56.6635V22.3428ZM50.0713 15.7506C50.0713 19.3914 53.0228 22.3428 56.6635 22.3428V21.9005C53.2671 21.9005 50.5137 19.1471 50.5137 15.7506H50.0713ZM50.0713 12.4822V15.7506H50.5137V12.4822H50.0713ZM140.117 9.51094H137.708V9.9533H140.117V9.51094ZM137.929 12.1412C137.929 10.8867 138.862 9.9533 140.117 9.9533V9.51094C138.618 9.51094 137.487 10.6424 137.487 12.1412H137.929ZM137.487 9.73212V12.1412H137.929V9.73212H137.487Z" fill="#1E1E20" style="mix-blend-mode:overlay" mask="url(#path-87-inside-1_610_5725)"/>
<path fill-rule="evenodd" clip-rule="evenodd" d="M47.5394 9.73199C48.9149 9.73199 50.2905 11.1065 50.2926 12.4821V15.7505C50.2926 19.2691 53.145 22.1215 56.6636 22.1215H131.337C134.855 22.1215 137.708 19.2691 137.708 15.7505V9.73199H50.2926H50.2926H47.5394ZM137.708 12.1411C137.708 10.7645 138.74 9.73199 140.117 9.73199H137.708V12.1411Z" fill="#1E1E20"/>
<circle cx="2.65412" cy="2.65412" r="2.65412" transform="matrix(-1 0 0 1 111.031 11.5019)" fill="#333333"/>
<rect x="76.9697" y="12.3864" width="22.1176" height="3.53882" rx="1.76941" fill="#333333"/>
</g>
<rect x="7.52008" y="6.19328" width="172.96" height="366.268" rx="21.2329" stroke="#1E1E20" stroke-width="7.07765"/>
<defs>
<filter id="filter0_d_610_5725" x="-24.7715" y="292.839" width="236.659" height="109.704" filterUnits="userSpaceOnUse" color-interpolation-filters="sRGB">
<feFlood flood-opacity="0" result="BackgroundImageFix"/>
<feColorMatrix in="SourceAlpha" type="matrix" values="0 0 0 0 0 0 0 0 0 0 0 0 0 0 0 0 0 0 127 0" result="hardAlpha"/>
<feOffset dy="-1.76941"/>
<feGaussianBlur stdDeviation="17.6941"/>
<feComposite in2="hardAlpha" operator="out"/>
<feColorMatrix type="matrix" values="0 0 0 0 0.00784314 0 0 0 0 0.160784 0 0 0 0 0.392157 0 0 0 0.1 0"/>
<feBlend mode="normal" in2="BackgroundImageFix" result="effect1_dropShadow_610_5725"/>
<feBlend mode="normal" in="SourceGraphic" in2="effect1_dropShadow_610_5725" result="shape"/>
</filter>
<filter id="filter1_d_610_5725" x="3.53916" y="116.782" width="180.038" height="96.4329" filterUnits="userSpaceOnUse" color-interpolation-filters="sRGB">
<feFlood flood-opacity="0" result="BackgroundImageFix"/>
<feColorMatrix in="SourceAlpha" type="matrix" values="0 0 0 0 0 0 0 0 0 0 0 0 0 0 0 0 0 0 127 0" result="hardAlpha"/>
<feOffset dy="1.76941"/>
<feGaussianBlur stdDeviation="8.84706"/>
<feComposite in2="hardAlpha" operator="out"/>
<feColorMatrix type="matrix" values="0 0 0 0 0.0588235 0 0 0 0 0.0862745 0 0 0 0 0.227451 0 0 0 0.08 0"/>
<feBlend mode="normal" in2="BackgroundImageFix" result="effect1_dropShadow_610_5725"/>
<feBlend mode="normal" in="SourceGraphic" in2="effect1_dropShadow_610_5725" result="shape"/>
</filter>
<filter id="filter2_d_610_5725" x="3.53916" y="45.1211" width="180.038" height="96.4329" filterUnits="userSpaceOnUse" color-interpolation-filters="sRGB">
<feFlood flood-opacity="0" result="BackgroundImageFix"/>
<feColorMatrix in="SourceAlpha" type="matrix" values="0 0 0 0 0 0 0 0 0 0 0 0 0 0 0 0 0 0 127 0" result="hardAlpha"/>
<feOffset dy="1.76941"/>
<feGaussianBlur stdDeviation="8.84706"/>
<feComposite in2="hardAlpha" operator="out"/>
<feColorMatrix type="matrix" values="0 0 0 0 0.0588235 0 0 0 0 0.0862745 0 0 0 0 0.227451 0 0 0 0.08 0"/>
<feBlend mode="normal" in2="BackgroundImageFix" result="effect1_dropShadow_610_5725"/>
<feBlend mode="normal" in="SourceGraphic" in2="effect1_dropShadow_610_5725" result="shape"/>
</filter>
<clipPath id="clip0_610_5725">
<rect x="11.0589" y="9.7321" width="165.882" height="359.191" rx="17.6941" fill="white"/>
</clipPath>
<clipPath id="clip1_610_5725">
<rect width="165.882" height="359.191" fill="white" transform="translate(11.059 9.73227)"/>
</clipPath>
<clipPath id="clip2_610_5725">
<rect width="165.882" height="359.191" fill="white" transform="translate(10.6166 9.73244)"/>
</clipPath>
<clipPath id="clip3_610_5725">
<rect width="165.882" height="359.191" fill="white" transform="translate(10.6167 9.7326)"/>
</clipPath>
<clipPath id="clip4_610_5725">
<rect width="165.882" height="38.9271" fill="white" transform="translate(10.6168 329.996)"/>
</clipPath>
<clipPath id="clip5_610_5725">
<rect x="21.2333" y="132.707" width="144.649" height="61.0447" rx="3.53882" fill="white"/>
</clipPath>
<clipPath id="clip6_610_5725">
<rect x="21.2333" y="61.0458" width="144.649" height="61.0447" rx="3.53882" fill="white"/>
</clipPath>
</defs>
</svg>
