<svg width="24" height="25" viewBox="0 0 24 25" fill="none" xmlns="http://www.w3.org/2000/svg">
<path d="M20 11.9731L12.4356 19.5376C11.5089 20.4643 10.252 20.9849 8.94144 20.9849C7.63089 20.9849 6.37401 20.4643 5.44731 19.5376C4.52061 18.6109 4 17.354 4 16.0435C4 14.7329 4.52061 13.476 5.44731 12.5493L13.0117 4.9849C13.6295 4.3671 14.4675 4.02002 15.3412 4.02002C16.2149 4.02002 17.0528 4.3671 17.6706 4.9849C18.2884 5.6027 18.6355 6.44061 18.6355 7.31431C18.6355 8.18801 18.2884 9.02593 17.6706 9.64373L10.0979 17.2082C9.78902 17.5171 9.37006 17.6906 8.93321 17.6906C8.49636 17.6906 8.0774 17.5171 7.7685 17.2082C7.4596 16.8993 7.28606 16.4803 7.28606 16.0435C7.28606 15.6066 7.4596 15.1876 7.7685 14.8787L14.7568 7.89873" stroke="#767E8C" stroke-width="1.5" stroke-linecap="round" stroke-linejoin="round"/>
</svg>
