<svg width="24" height="24" viewBox="0 0 24 24" fill="none" xmlns="http://www.w3.org/2000/svg">
<path d="M21.9 13.96C22.17 15.63 21.7 17.42 20.27 18.68C19.28 19.59 17.98 20.09 16.63 20.08H5.54C0.870003 19.74 0.860003 12.94 5.54 12.6H5.59C3.4 6.46998 9.09 2.86998 13.38 4.24998" stroke="#1B1C1F" stroke-width="1.5" stroke-miterlimit="10" stroke-linecap="round" stroke-linejoin="round"/>
<path d="M7.26 13.01C6.74 12.75 6.17 12.61 5.59 12.6" stroke="#1B1C1F" stroke-width="1.5" stroke-miterlimit="10" stroke-linecap="round" stroke-linejoin="round"/>
<path d="M21.97 8.5C21.97 9.6 21.46 10.59 20.65 11.23C20.06 11.71 19.29 12 18.47 12C16.54 12 14.97 10.43 14.97 8.5C14.97 7.54 15.36 6.67 16 6.04V6.03C16.63 5.39 17.51 5 18.47 5C20.4 5 21.97 6.57 21.97 8.5Z" stroke="#1B1C1F" stroke-width="1.5" stroke-miterlimit="10" stroke-linecap="round" stroke-linejoin="round"/>
</svg>
